{"glyphs":{"0":{"ha":1069,"x_min":136,"x_max":982,"o":"m 654 978 q 898 884 814 978 q 982 615 982 790 q 920 290 982 431 q 742 71 858 149 q 464 -7 625 -7 q 220 88 304 -7 q 136 357 136 182 q 198 682 136 542 q 376 900 260 822 q 654 978 493 978 m 635 872 q 364 731 456 872 q 272 363 272 590 q 325 167 272 233 q 483 100 378 100 q 683 166 601 100 q 806 347 765 232 q 846 610 846 463 q 792 806 846 739 q 635 872 739 872 z "},"1":{"ha":586,"x_min":149,"x_max":524,"o":"m 169 972 l 524 972 l 335 0 l 201 0 l 368 851 l 149 851 l 169 972 z "},"2":{"ha":875,"x_min":18,"x_max":815,"o":"m 813 744 q 568 421 792 614 l 217 121 l 743 121 l 721 0 l 18 0 l 38 103 l 490 493 q 616 618 568 557 q 669 725 664 679 q 671 744 671 732 q 628 829 671 799 q 506 860 585 860 q 359 828 438 860 q 207 742 281 797 l 171 843 q 358 942 261 907 q 544 978 454 978 q 742 924 669 978 q 815 781 815 871 q 813 744 815 769 z "},"3":{"ha":883,"x_min":14,"x_max":856,"o":"m 839 888 l 449 564 l 507 560 q 706 495 633 553 q 779 342 779 438 q 723 164 779 243 q 566 39 667 85 q 338 -7 465 -7 q 158 21 246 -7 q 14 94 71 49 l 90 203 q 206 133 139 158 q 349 107 274 107 q 505 135 438 107 q 609 213 572 163 q 646 325 646 263 q 587 434 646 396 q 419 472 528 472 l 285 472 l 300 557 l 657 851 l 210 851 l 231 972 l 856 972 l 839 888 z "},"4":{"ha":894,"x_min":50,"x_max":828,"o":"m 828 369 l 807 250 l 656 250 l 607 0 l 482 0 l 531 250 l 50 250 l 69 353 l 538 972 l 667 972 l 217 369 l 554 369 l 603 618 l 728 618 l 679 369 l 828 369 z "},"5":{"ha":925,"x_min":49,"x_max":894,"o":"m 393 851 l 344 604 q 507 610 410 610 q 671 578 601 610 q 777 491 740 547 q 814 363 814 435 q 758 174 814 258 q 603 41 703 89 q 378 -7 503 -7 q 202 23 292 -7 q 49 103 113 53 l 122 210 q 246 138 176 163 q 388 113 315 113 q 533 141 469 113 q 633 222 597 169 q 668 339 668 274 q 613 449 668 410 q 454 489 558 489 q 328 483 411 489 q 193 469 246 478 l 290 972 l 894 972 l 874 851 l 393 851 z "},"6":{"ha":960,"x_min":131,"x_max":921,"o":"m 449 -7 q 213 87 296 -7 q 131 349 131 181 q 198 669 131 525 q 383 895 265 813 q 646 978 500 978 q 792 958 717 978 q 921 904 867 939 l 849 803 q 750 850 807 833 q 636 867 693 867 q 394 758 489 867 q 275 464 300 650 q 403 583 325 542 q 581 625 482 625 q 778 558 707 625 q 849 376 849 492 q 797 177 849 264 q 654 42 746 90 q 449 -7 563 -7 m 461 110 q 594 140 535 110 q 687 227 653 171 q 721 356 721 283 q 673 474 721 431 q 539 518 625 518 q 403 485 464 518 q 306 396 342 451 q 271 278 271 340 q 320 159 271 208 q 461 110 369 110 z "},"7":{"ha":864,"x_min":143,"x_max":922,"o":"m 194 972 l 922 972 l 903 868 l 308 0 l 167 0 l 751 851 l 293 851 l 264 711 l 143 711 l 194 972 z "},"8":{"ha":956,"x_min":90,"x_max":871,"o":"m 596 978 q 798 923 725 978 q 871 772 871 868 q 818 620 871 686 q 674 519 765 554 q 788 440 747 494 q 829 314 829 386 q 776 146 829 218 q 626 33 722 74 q 406 -7 531 -7 q 174 56 257 -7 q 90 226 90 118 q 160 408 90 332 q 349 519 229 485 q 259 592 290 546 q 228 699 228 638 q 274 845 228 782 q 403 943 319 908 q 596 978 488 978 m 578 881 q 405 831 469 881 q 340 696 340 781 q 386 600 340 635 q 515 565 432 565 q 689 616 625 565 q 753 751 753 667 q 707 847 753 813 q 578 881 661 881 m 496 460 q 294 403 369 460 q 219 251 219 347 q 273 140 219 179 q 425 100 326 100 q 627 158 551 100 q 703 313 703 215 q 649 421 703 382 q 496 460 594 460 z "},"9":{"ha":956,"x_min":85,"x_max":872,"o":"m 157 169 q 255 122 199 139 q 368 106 311 106 q 608 214 514 106 q 728 508 701 322 q 601 389 679 431 q 424 347 522 347 q 228 414 299 347 q 158 596 158 481 q 209 795 158 708 q 351 930 260 882 q 556 978 442 978 q 790 885 707 978 q 872 624 872 792 q 805 303 872 447 q 620 76 738 158 q 358 -7 503 -7 q 214 13 288 -7 q 85 68 140 33 l 157 169 m 543 863 q 411 831 469 863 q 319 744 353 800 q 286 615 286 689 q 333 498 286 542 q 465 454 381 454 q 601 488 540 454 q 697 576 663 521 q 732 694 732 632 q 683 814 732 765 q 543 863 635 863 z "},"\u0000":{"ha":0,"x_min":0,"x_max":0,"o":""},"\r":{"ha":364,"x_min":0,"x_max":0,"o":""}," ":{"ha":364,"x_min":0,"x_max":0,"o":""},"A":{"ha":1008,"x_min":-69,"x_max":932,"o":"m 789 0 l 725 238 l 211 238 l 69 0 l -69 0 l 524 972 l 661 972 l 932 0 l 789 0 m 282 357 l 693 357 l 565 832 l 282 357 z "},"Á":{"ha":1008,"x_min":-69,"x_max":932,"o":"m 789 0 l 725 238 l 211 238 l 69 0 l -69 0 l 524 972 l 661 972 l 932 0 l 789 0 m 282 357 l 693 357 l 565 832 l 282 357 m 688 1253 l 821 1194 l 650 1058 l 539 1072 l 688 1253 z "},"Ă":{"ha":1008,"x_min":-69,"x_max":932,"o":"m 789 0 l 725 238 l 211 238 l 69 0 l -69 0 l 524 972 l 661 972 l 932 0 l 789 0 m 282 357 l 693 357 l 565 832 l 282 357 m 550 1243 q 549 1225 549 1238 q 569 1168 549 1190 q 625 1146 590 1146 q 696 1174 664 1146 q 739 1243 728 1201 l 829 1243 q 749 1108 811 1160 q 608 1057 688 1057 q 498 1097 539 1057 q 457 1206 457 1138 q 460 1243 457 1218 l 550 1243 z "},"Ắ":{"ha":1008,"x_min":-69,"x_max":932,"o":"m 789 0 l 725 238 l 211 238 l 69 0 l -69 0 l 524 972 l 661 972 l 932 0 l 789 0 m 282 357 l 693 357 l 565 832 l 282 357 z "},"Ặ":{"ha":1008,"x_min":-69,"x_max":932,"o":"m 789 0 l 725 238 l 211 238 l 69 0 l -69 0 l 524 972 l 661 972 l 932 0 l 789 0 m 282 357 l 693 357 l 565 832 l 282 357 m 429 -103 q 478 -122 460 -103 q 496 -171 496 -140 q 466 -240 496 -211 q 397 -269 436 -269 q 350 -249 368 -269 q 332 -200 332 -229 q 361 -131 332 -160 q 429 -103 390 -103 m 565 1243 q 564 1225 564 1238 q 585 1168 564 1190 q 640 1146 606 1146 q 711 1174 679 1146 q 754 1243 743 1201 l 844 1243 q 765 1108 826 1160 q 624 1057 703 1057 q 513 1097 554 1057 q 472 1206 472 1138 q 475 1243 472 1218 l 565 1243 z "},"Ằ":{"ha":1008,"x_min":-69,"x_max":932,"o":"m 789 0 l 725 238 l 211 238 l 69 0 l -69 0 l 524 972 l 661 972 l 932 0 l 789 0 m 282 357 l 693 357 l 565 832 l 282 357 z "},"Ẳ":{"ha":1008,"x_min":-69,"x_max":932,"o":"m 789 0 l 725 238 l 211 238 l 69 0 l -69 0 l 524 972 l 661 972 l 932 0 l 789 0 m 282 357 l 693 357 l 565 832 l 282 357 z "},"Ẵ":{"ha":1008,"x_min":-69,"x_max":932,"o":"m 789 0 l 725 238 l 211 238 l 69 0 l -69 0 l 524 972 l 661 972 l 932 0 l 789 0 m 282 357 l 693 357 l 565 832 l 282 357 z "},"Â":{"ha":1008,"x_min":-69,"x_max":932,"o":"m 789 0 l 725 238 l 211 238 l 69 0 l -69 0 l 524 972 l 661 972 l 932 0 l 789 0 m 282 357 l 693 357 l 565 832 l 282 357 m 824 1065 l 694 1065 l 628 1158 l 525 1065 l 396 1065 l 578 1250 l 713 1250 l 824 1065 z "},"Ấ":{"ha":1008,"x_min":-69,"x_max":932,"o":"m 789 0 l 725 238 l 211 238 l 69 0 l -69 0 l 524 972 l 661 972 l 932 0 l 789 0 m 282 357 l 693 357 l 565 832 l 282 357 z "},"Ậ":{"ha":1008,"x_min":-69,"x_max":932,"o":"m 789 0 l 725 238 l 211 238 l 69 0 l -69 0 l 524 972 l 661 972 l 932 0 l 789 0 m 282 357 l 693 357 l 565 832 l 282 357 m 429 -103 q 478 -122 460 -103 q 496 -171 496 -140 q 466 -240 496 -211 q 397 -269 436 -269 q 350 -249 368 -269 q 332 -200 332 -229 q 361 -131 332 -160 q 429 -103 390 -103 m 839 1065 l 710 1065 l 643 1158 l 540 1065 l 411 1065 l 593 1250 l 728 1250 l 839 1065 z "},"Ầ":{"ha":1008,"x_min":-69,"x_max":932,"o":"m 789 0 l 725 238 l 211 238 l 69 0 l -69 0 l 524 972 l 661 972 l 932 0 l 789 0 m 282 357 l 693 357 l 565 832 l 282 357 z "},"Ẩ":{"ha":1008,"x_min":-69,"x_max":932,"o":"m 789 0 l 725 238 l 211 238 l 69 0 l -69 0 l 524 972 l 661 972 l 932 0 l 789 0 m 282 357 l 693 357 l 565 832 l 282 357 z "},"Ẫ":{"ha":1008,"x_min":-69,"x_max":932,"o":"m 789 0 l 725 238 l 211 238 l 69 0 l -69 0 l 524 972 l 661 972 l 932 0 l 789 0 m 282 357 l 693 357 l 565 832 l 282 357 z "},"Ȁ":{"ha":1008,"x_min":-69,"x_max":932,"o":"m 789 0 l 725 238 l 211 238 l 69 0 l -69 0 l 524 972 l 661 972 l 932 0 l 789 0 m 282 357 l 693 357 l 565 832 l 282 357 m 489 1260 l 568 1069 l 467 1057 l 368 1207 l 489 1260 m 704 1260 l 782 1069 l 682 1057 l 582 1207 l 704 1260 z "},"Ä":{"ha":1008,"x_min":-69,"x_max":932,"o":"m 789 0 l 725 238 l 211 238 l 69 0 l -69 0 l 524 972 l 661 972 l 932 0 l 789 0 m 282 357 l 693 357 l 565 832 l 282 357 m 519 1211 q 563 1193 546 1211 q 579 1147 579 1175 q 552 1085 579 1113 q 490 1058 525 1058 q 447 1076 464 1058 q 429 1122 429 1094 q 456 1185 429 1160 q 519 1211 482 1211 m 758 1211 q 801 1194 785 1211 q 817 1147 817 1176 q 790 1085 817 1113 q 729 1058 764 1058 q 685 1076 703 1058 q 668 1122 668 1094 q 694 1185 668 1160 q 758 1211 721 1211 z "},"Ạ":{"ha":1008,"x_min":-69,"x_max":932,"o":"m 789 0 l 725 238 l 211 238 l 69 0 l -69 0 l 524 972 l 661 972 l 932 0 l 789 0 m 282 357 l 693 357 l 565 832 l 282 357 m 429 -103 q 478 -122 460 -103 q 496 -171 496 -140 q 466 -240 496 -211 q 397 -269 436 -269 q 350 -249 368 -269 q 332 -200 332 -229 q 361 -131 332 -160 q 429 -103 390 -103 z "},"À":{"ha":1008,"x_min":-69,"x_max":932,"o":"m 789 0 l 725 238 l 211 238 l 69 0 l -69 0 l 524 972 l 661 972 l 932 0 l 789 0 m 282 357 l 693 357 l 565 832 l 282 357 m 554 1253 l 703 1072 l 592 1058 l 421 1194 l 554 1253 z "},"Ả":{"ha":1008,"x_min":-69,"x_max":932,"o":"m 789 0 l 725 238 l 211 238 l 69 0 l -69 0 l 524 972 l 661 972 l 932 0 l 789 0 m 282 357 l 693 357 l 565 832 l 282 357 m 653 1314 q 734 1290 703 1314 q 765 1222 765 1265 q 727 1129 765 1179 q 631 1035 689 1079 l 564 1068 q 626 1131 603 1097 q 649 1188 649 1165 q 638 1213 649 1203 q 608 1224 626 1224 q 551 1206 583 1224 l 522 1275 q 653 1314 588 1314 z "},"Ȃ":{"ha":1008,"x_min":-69,"x_max":932,"o":"m 789 0 l 725 238 l 211 238 l 69 0 l -69 0 l 524 972 l 661 972 l 932 0 l 789 0 m 282 357 l 693 357 l 565 832 l 282 357 m 704 1064 q 706 1082 706 1069 q 685 1139 706 1117 q 629 1161 664 1161 q 558 1133 590 1161 q 515 1064 526 1106 l 425 1064 q 505 1199 443 1147 q 646 1250 567 1250 q 756 1210 715 1250 q 797 1101 797 1169 q 794 1064 797 1089 l 704 1064 z "},"Ā":{"ha":1008,"x_min":-69,"x_max":932,"o":"m 789 0 l 725 238 l 211 238 l 69 0 l -69 0 l 524 972 l 661 972 l 932 0 l 789 0 m 282 357 l 693 357 l 565 832 l 282 357 m 418 1157 l 835 1157 l 818 1071 l 401 1071 l 418 1157 z "},"Ą":{"ha":1008,"x_min":-69,"x_max":932,"o":"m 804 -201 q 861 -187 833 -201 l 876 -274 q 758 -300 818 -300 q 673 -275 704 -300 q 642 -203 642 -250 q 788 3 642 -94 l 725 238 l 211 238 l 69 0 l -69 0 l 524 972 l 661 972 l 932 0 q 805 -95 842 -58 q 768 -167 768 -132 q 778 -192 768 -183 q 804 -201 788 -201 m 282 357 l 693 357 l 565 832 l 282 357 z "},"Å":{"ha":1008,"x_min":-69,"x_max":932,"o":"m 789 0 l 725 238 l 211 238 l 69 0 l -69 0 l 524 972 l 661 972 l 932 0 l 789 0 m 282 357 l 693 357 l 565 832 l 282 357 m 647 1332 q 741 1294 704 1332 q 778 1201 778 1257 q 755 1121 778 1158 q 694 1061 732 1083 q 613 1039 656 1039 q 519 1076 556 1039 q 482 1167 482 1113 q 505 1248 482 1210 q 566 1309 528 1286 q 647 1332 604 1332 m 639 1258 q 580 1233 606 1258 q 554 1176 554 1208 q 573 1131 554 1149 q 621 1113 592 1113 q 681 1137 654 1113 q 707 1193 707 1161 q 688 1240 707 1221 q 639 1258 668 1258 z "},"Ǻ":{"ha":1008,"x_min":-69,"x_max":932,"o":"m 789 0 l 725 238 l 211 238 l 69 0 l -69 0 l 524 972 l 661 972 l 932 0 l 789 0 m 282 357 l 693 357 l 565 832 l 282 357 m 636 1333 q 730 1296 693 1333 q 767 1203 767 1258 q 744 1122 767 1160 q 683 1063 721 1085 q 601 1040 644 1040 q 508 1077 544 1040 q 471 1168 471 1114 q 494 1249 471 1211 q 555 1310 517 1288 q 636 1333 593 1333 m 628 1260 q 569 1235 594 1260 q 543 1178 543 1210 q 562 1132 543 1150 q 610 1114 581 1114 q 669 1138 643 1114 q 696 1194 696 1163 q 676 1241 696 1222 q 628 1260 657 1260 m 739 1550 l 850 1475 l 656 1371 l 558 1401 l 739 1550 z "},"Ã":{"ha":1008,"x_min":-69,"x_max":932,"o":"m 789 0 l 725 238 l 211 238 l 69 0 l -69 0 l 524 972 l 661 972 l 932 0 l 789 0 m 282 357 l 693 357 l 565 832 l 282 357 m 854 1226 q 805 1104 840 1151 q 710 1057 769 1057 q 658 1068 681 1057 q 604 1101 635 1079 q 569 1124 582 1117 q 543 1131 556 1131 q 485 1063 497 1131 l 394 1063 q 444 1184 408 1136 q 538 1232 479 1232 q 590 1221 567 1232 q 644 1189 613 1210 q 680 1167 667 1174 q 706 1160 693 1160 q 745 1178 731 1160 q 764 1226 760 1196 l 854 1226 z "},"Æ":{"ha":1440,"x_min":-69,"x_max":1468,"o":"m 1444 850 l 903 850 l 842 551 l 1326 551 l 1303 431 l 818 431 l 754 122 l 1314 122 l 1290 0 l 599 0 l 650 256 l 271 256 l 74 0 l -69 0 l 694 972 l 1468 972 l 1444 850 m 671 363 l 771 861 l 740 861 l 354 363 l 671 363 z "},"Ǽ":{"ha":1440,"x_min":-69,"x_max":1468,"o":"m 1444 850 l 903 850 l 842 551 l 1326 551 l 1303 431 l 818 431 l 754 122 l 1314 122 l 1290 0 l 599 0 l 650 256 l 271 256 l 74 0 l -69 0 l 694 972 l 1468 972 l 1444 850 m 671 363 l 771 861 l 740 861 l 354 363 l 671 363 m 1078 1253 l 1211 1194 l 1040 1058 l 929 1072 l 1078 1253 z "},"B":{"ha":992,"x_min":65,"x_max":950,"o":"m 726 511 q 855 444 810 497 q 900 313 900 392 q 849 147 900 218 q 706 38 799 76 q 489 0 613 0 l 65 0 l 260 972 l 675 972 q 878 919 806 972 q 950 771 950 865 q 890 603 950 674 q 726 511 829 533 m 808 733 q 766 819 808 789 q 646 850 724 850 l 368 850 l 311 560 l 586 560 q 749 606 689 560 q 808 733 808 653 m 497 122 q 692 172 621 122 q 764 307 764 221 q 711 404 764 369 q 563 439 658 439 l 286 439 l 224 122 l 497 122 z "},"C":{"ha":1008,"x_min":79,"x_max":986,"o":"m 639 981 q 831 942 740 981 q 986 835 922 904 l 897 739 q 777 830 847 797 q 631 863 707 863 q 424 807 519 863 q 272 657 329 751 q 215 451 215 563 q 260 281 215 358 q 381 160 304 204 q 554 115 458 115 q 707 147 631 115 q 846 232 783 178 l 918 144 q 736 31 836 72 q 536 -10 636 -10 q 301 50 406 -10 q 138 213 197 110 q 79 442 79 315 q 156 713 79 589 q 360 908 232 836 q 639 981 489 981 z "},"Ć":{"ha":1008,"x_min":79,"x_max":986,"o":"m 639 981 q 831 942 740 981 q 986 835 922 904 l 897 739 q 777 830 847 797 q 631 863 707 863 q 424 807 519 863 q 272 657 329 751 q 215 451 215 563 q 260 281 215 358 q 381 160 304 204 q 554 115 458 115 q 707 147 631 115 q 846 232 783 178 l 918 144 q 736 31 836 72 q 536 -10 636 -10 q 301 50 406 -10 q 138 213 197 110 q 79 442 79 315 q 156 713 79 589 q 360 908 232 836 q 639 981 489 981 m 700 1253 l 833 1194 l 663 1058 l 551 1072 l 700 1253 z "},"Č":{"ha":1008,"x_min":79,"x_max":986,"o":"m 639 981 q 831 942 740 981 q 986 835 922 904 l 897 739 q 777 830 847 797 q 631 863 707 863 q 424 807 519 863 q 272 657 329 751 q 215 451 215 563 q 260 281 215 358 q 381 160 304 204 q 554 115 458 115 q 707 147 631 115 q 846 232 783 178 l 918 144 q 736 31 836 72 q 536 -10 636 -10 q 301 50 406 -10 q 138 213 197 110 q 79 442 79 315 q 156 713 79 589 q 360 908 232 836 q 639 981 489 981 m 742 1249 l 871 1249 l 689 1064 l 554 1064 l 443 1249 l 572 1249 l 639 1156 l 742 1249 z "},"Ç":{"ha":1008,"x_min":79,"x_max":986,"o":"m 918 144 q 747 36 842 76 q 557 -10 651 -4 l 522 -71 q 592 -103 569 -78 q 615 -162 615 -128 q 563 -264 615 -226 q 435 -301 511 -301 q 310 -272 365 -301 l 356 -186 q 433 -206 392 -206 q 486 -191 465 -206 q 507 -158 507 -176 q 490 -133 507 -143 q 443 -122 474 -122 l 401 -122 l 460 -4 q 263 75 349 13 q 128 233 176 138 q 79 440 79 328 q 156 712 79 588 q 360 908 232 836 q 639 981 489 981 q 831 942 740 981 q 986 835 922 904 l 897 739 q 777 830 847 797 q 631 863 707 863 q 424 807 519 863 q 272 657 329 751 q 215 451 215 563 q 260 281 215 358 q 381 160 304 204 q 554 115 458 115 q 707 147 631 115 q 846 232 783 178 l 918 144 z "},"Ḉ":{"ha":1008,"x_min":79,"x_max":986,"o":"m 903 1194 l 732 1058 l 621 1072 l 769 1253 l 903 1194 m 918 144 q 747 36 842 76 q 557 -10 651 -4 l 522 -71 q 592 -103 569 -78 q 615 -162 615 -128 q 563 -264 615 -226 q 435 -301 511 -301 q 310 -272 365 -301 l 356 -186 q 433 -206 392 -206 q 486 -191 465 -206 q 507 -158 507 -176 q 490 -133 507 -143 q 443 -122 474 -122 l 401 -122 l 460 -4 q 263 75 349 13 q 128 233 176 138 q 79 440 79 328 q 156 712 79 588 q 360 908 232 836 q 639 981 489 981 q 831 942 740 981 q 986 835 922 904 l 897 739 q 777 830 847 797 q 631 863 707 863 q 424 807 519 863 q 272 657 329 751 q 215 451 215 563 q 260 281 215 358 q 381 160 304 204 q 554 115 458 115 q 707 147 631 115 q 846 232 783 178 l 918 144 z "},"Ĉ":{"ha":1008,"x_min":79,"x_max":986,"o":"m 639 981 q 831 942 740 981 q 986 835 922 904 l 897 739 q 777 830 847 797 q 631 863 707 863 q 424 807 519 863 q 272 657 329 751 q 215 451 215 563 q 260 281 215 358 q 381 160 304 204 q 554 115 458 115 q 707 147 631 115 q 846 232 783 178 l 918 144 q 736 31 836 72 q 536 -10 636 -10 q 301 50 406 -10 q 138 213 197 110 q 79 442 79 315 q 156 713 79 589 q 360 908 232 836 q 639 981 489 981 m 836 1065 l 707 1065 l 640 1158 l 538 1065 l 408 1065 l 590 1250 l 725 1250 l 836 1065 z "},"Ċ":{"ha":1008,"x_min":79,"x_max":986,"o":"m 639 981 q 831 942 740 981 q 986 835 922 904 l 897 739 q 777 830 847 797 q 631 863 707 863 q 424 807 519 863 q 272 657 329 751 q 215 451 215 563 q 260 281 215 358 q 381 160 304 204 q 554 115 458 115 q 707 147 631 115 q 846 232 783 178 l 918 144 q 736 31 836 72 q 536 -10 636 -10 q 301 50 406 -10 q 138 213 197 110 q 79 442 79 315 q 156 713 79 589 q 360 908 232 836 q 639 981 489 981 m 653 1225 q 701 1206 683 1225 q 719 1157 719 1188 q 690 1088 719 1117 q 621 1058 660 1058 q 574 1078 592 1058 q 556 1128 556 1099 q 585 1197 556 1168 q 653 1225 614 1225 z "},"D":{"ha":1090,"x_min":67,"x_max":1065,"o":"m 632 972 q 858 919 760 972 q 1011 772 957 867 q 1065 560 1065 678 q 986 277 1065 406 q 772 74 907 149 q 481 0 638 0 l 67 0 l 260 972 l 632 972 m 929 543 q 889 701 929 632 q 776 810 849 771 q 613 850 704 850 l 369 850 l 225 122 l 506 122 q 714 178 617 122 q 870 330 811 233 q 929 543 929 426 z "},"Ǆ":{"ha":2026,"x_min":67,"x_max":2050,"o":"m 632 972 q 858 919 760 972 q 1011 772 957 867 q 1065 560 1065 678 q 986 277 1065 406 q 772 74 907 149 q 481 0 638 0 l 67 0 l 260 972 l 632 972 m 929 543 q 889 701 929 632 q 776 810 849 771 q 613 850 704 850 l 369 850 l 225 122 l 506 122 q 714 178 617 122 q 870 330 811 233 q 929 543 929 426 m 2050 972 l 2035 874 l 1290 122 l 1914 122 l 1896 0 l 1089 0 l 1104 99 l 1850 850 l 1249 850 l 1268 972 l 2050 972 m 1800 1249 l 1929 1249 l 1747 1064 l 1613 1064 l 1501 1249 l 1631 1249 l 1697 1156 l 1800 1249 z "},"Ð":{"ha":1090,"x_min":53,"x_max":1065,"o":"m 632 972 q 858 919 760 972 q 1011 772 957 867 q 1065 560 1065 678 q 986 277 1065 406 q 772 74 907 149 q 481 0 638 0 l 67 0 l 156 446 l 53 446 l 68 526 l 171 526 l 260 972 l 632 972 m 929 543 q 889 701 929 632 q 776 810 849 771 q 613 850 704 850 l 369 850 l 306 526 l 576 526 l 561 446 l 289 446 l 225 122 l 506 122 q 714 178 617 122 q 870 330 811 233 q 929 543 929 426 z "},"Ď":{"ha":1090,"x_min":67,"x_max":1065,"o":"m 632 972 q 858 919 760 972 q 1011 772 957 867 q 1065 560 1065 678 q 986 277 1065 406 q 772 74 907 149 q 481 0 638 0 l 67 0 l 260 972 l 632 972 m 929 543 q 889 701 929 632 q 776 810 849 771 q 613 850 704 850 l 369 850 l 225 122 l 506 122 q 714 178 617 122 q 870 330 811 233 q 929 543 929 426 m 754 1249 l 883 1249 l 701 1064 l 567 1064 l 456 1249 l 585 1249 l 651 1156 l 754 1249 z "},"Đ":{"ha":1090,"x_min":53,"x_max":1065,"o":"m 632 972 q 858 919 760 972 q 1011 772 957 867 q 1065 560 1065 678 q 986 277 1065 406 q 772 74 907 149 q 481 0 638 0 l 67 0 l 156 446 l 53 446 l 68 526 l 171 526 l 260 972 l 632 972 m 929 543 q 889 701 929 632 q 776 810 849 771 q 613 850 704 850 l 369 850 l 306 526 l 576 526 l 561 446 l 289 446 l 225 122 l 506 122 q 714 178 617 122 q 870 330 811 233 q 929 543 929 426 z "},"Ḍ":{"ha":1090,"x_min":67,"x_max":1065,"o":"m 632 972 q 858 919 760 972 q 1011 772 957 867 q 1065 560 1065 678 q 986 277 1065 406 q 772 74 907 149 q 481 0 638 0 l 67 0 l 260 972 l 632 972 m 929 543 q 889 701 929 632 q 776 810 849 771 q 613 850 704 850 l 369 850 l 225 122 l 506 122 q 714 178 617 122 q 870 330 811 233 q 929 543 929 426 m 428 -103 q 476 -122 458 -103 q 494 -171 494 -140 q 465 -240 494 -211 q 396 -269 435 -269 q 349 -249 367 -269 q 331 -200 331 -229 q 360 -131 331 -160 q 428 -103 389 -103 z "},"Ḏ":{"ha":1090,"x_min":67,"x_max":1065,"o":"m 632 972 q 858 919 760 972 q 1011 772 957 867 q 1065 560 1065 678 q 986 277 1065 406 q 772 74 907 149 q 481 0 638 0 l 67 0 l 260 972 l 632 972 m 929 543 q 889 701 929 632 q 776 810 849 771 q 613 850 704 850 l 369 850 l 225 122 l 506 122 q 714 178 617 122 q 870 330 811 233 q 929 543 929 426 m 254 -115 l 597 -115 l 581 -200 l 238 -200 l 254 -115 z "},"ǅ":{"ha":1828,"x_min":67,"x_max":1835,"o":"m 632 972 q 858 919 760 972 q 1011 772 957 867 q 1065 560 1065 678 q 986 277 1065 406 q 772 74 907 149 q 481 0 638 0 l 67 0 l 260 972 l 632 972 m 929 543 q 889 701 929 632 q 776 810 849 771 q 613 850 704 850 l 369 850 l 225 122 l 506 122 q 714 178 617 122 q 870 330 811 233 q 929 543 929 426 m 1835 733 l 1818 642 l 1267 107 l 1719 107 l 1699 -1 l 1086 0 l 1103 92 l 1653 626 l 1225 628 l 1244 735 l 1835 733 m 1678 1040 l 1807 1040 l 1625 856 l 1490 856 l 1379 1040 l 1508 1040 l 1575 947 l 1678 1040 z "},"E":{"ha":907,"x_min":65,"x_max":933,"o":"m 911 850 l 368 850 l 308 551 l 793 551 l 769 431 l 285 431 l 224 122 l 781 122 l 758 0 l 65 0 l 260 972 l 933 972 l 911 850 z "},"É":{"ha":907,"x_min":65,"x_max":933,"o":"m 911 850 l 368 850 l 308 551 l 793 551 l 769 431 l 285 431 l 224 122 l 781 122 l 758 0 l 65 0 l 260 972 l 933 972 l 911 850 m 713 1253 l 846 1194 l 675 1058 l 564 1072 l 713 1253 z "},"Ĕ":{"ha":907,"x_min":65,"x_max":933,"o":"m 911 850 l 368 850 l 308 551 l 793 551 l 769 431 l 285 431 l 224 122 l 781 122 l 758 0 l 65 0 l 260 972 l 933 972 l 911 850 m 575 1243 q 574 1225 574 1238 q 594 1168 574 1190 q 650 1146 615 1146 q 721 1174 689 1146 q 764 1243 753 1201 l 854 1243 q 774 1108 836 1160 q 633 1057 713 1057 q 523 1097 564 1057 q 482 1206 482 1138 q 485 1243 482 1218 l 575 1243 z "},"Ě":{"ha":907,"x_min":65,"x_max":933,"o":"m 911 850 l 368 850 l 308 551 l 793 551 l 769 431 l 285 431 l 224 122 l 781 122 l 758 0 l 65 0 l 260 972 l 933 972 l 911 850 m 754 1249 l 883 1249 l 701 1064 l 567 1064 l 456 1249 l 585 1249 l 651 1156 l 754 1249 z "},"Ḝ":{"ha":907,"x_min":65,"x_max":933,"o":"m 622 1057 q 512 1097 553 1057 q 471 1206 471 1138 q 474 1243 471 1218 l 564 1243 q 563 1225 563 1238 q 583 1168 563 1190 q 639 1146 604 1146 q 710 1174 678 1146 q 753 1243 742 1201 l 843 1243 q 763 1108 825 1160 q 622 1057 701 1057 m 368 850 l 308 551 l 793 551 l 769 431 l 285 431 l 224 122 l 781 122 l 758 0 l 493 0 l 453 -71 q 523 -103 500 -78 q 546 -162 546 -128 q 494 -264 546 -226 q 365 -301 442 -301 q 240 -272 296 -301 l 286 -186 q 364 -206 322 -206 q 417 -191 396 -206 q 438 -158 438 -176 q 421 -133 438 -143 q 374 -122 404 -122 l 332 -122 l 393 0 l 65 0 l 260 972 l 933 972 l 911 850 l 368 850 z "},"Ê":{"ha":907,"x_min":65,"x_max":933,"o":"m 911 850 l 368 850 l 308 551 l 793 551 l 769 431 l 285 431 l 224 122 l 781 122 l 758 0 l 65 0 l 260 972 l 933 972 l 911 850 m 849 1065 l 719 1065 l 653 1158 l 550 1065 l 421 1065 l 603 1250 l 738 1250 l 849 1065 z "},"Ế":{"ha":907,"x_min":65,"x_max":933,"o":"m 911 850 l 368 850 l 308 551 l 793 551 l 769 431 l 285 431 l 224 122 l 781 122 l 758 0 l 65 0 l 260 972 l 933 972 l 911 850 m 875 1050 l 736 1050 l 654 1126 l 543 1050 l 400 1050 l 574 1183 l 749 1183 l 875 1050 m 753 1404 l 864 1329 l 669 1225 l 572 1256 l 753 1404 z "},"Ệ":{"ha":907,"x_min":65,"x_max":933,"o":"m 911 850 l 368 850 l 308 551 l 793 551 l 769 431 l 285 431 l 224 122 l 781 122 l 758 0 l 65 0 l 260 972 l 933 972 l 911 850 m 422 -103 q 471 -122 453 -103 q 489 -171 489 -140 q 459 -240 489 -211 q 390 -269 429 -269 q 343 -249 361 -269 q 325 -200 325 -229 q 354 -131 325 -160 q 422 -103 383 -103 m 832 1065 l 703 1065 l 636 1158 l 533 1065 l 404 1065 l 586 1250 l 721 1250 l 832 1065 z "},"Ề":{"ha":907,"x_min":65,"x_max":933,"o":"m 911 850 l 368 850 l 308 551 l 793 551 l 769 431 l 285 431 l 224 122 l 781 122 l 758 0 l 65 0 l 260 972 l 933 972 l 911 850 m 869 1050 l 731 1050 l 649 1126 l 538 1050 l 394 1050 l 568 1183 l 743 1183 l 869 1050 m 576 1404 l 758 1256 l 660 1225 l 465 1329 l 576 1404 z "},"Ể":{"ha":907,"x_min":65,"x_max":933,"o":"m 911 850 l 368 850 l 308 551 l 793 551 l 769 431 l 285 431 l 224 122 l 781 122 l 758 0 l 65 0 l 260 972 l 933 972 l 911 850 m 819 1051 l 681 1051 l 599 1128 l 488 1051 l 344 1051 l 518 1185 l 693 1185 l 819 1051 m 647 1444 q 719 1424 693 1444 q 746 1368 746 1403 q 714 1294 746 1332 q 628 1224 682 1257 l 567 1251 q 619 1296 600 1274 q 638 1336 638 1318 q 628 1355 638 1347 q 604 1363 619 1363 q 554 1349 581 1363 l 526 1408 q 647 1444 586 1444 z "},"Ễ":{"ha":907,"x_min":65,"x_max":933,"o":"m 911 850 l 368 850 l 308 551 l 793 551 l 769 431 l 285 431 l 224 122 l 781 122 l 758 0 l 65 0 l 260 972 l 933 972 l 911 850 m 886 1051 l 747 1051 l 665 1128 l 554 1051 l 411 1051 l 585 1185 l 760 1185 l 886 1051 m 918 1386 q 871 1279 906 1319 q 779 1239 836 1239 q 726 1249 750 1239 q 669 1278 701 1258 q 633 1299 647 1292 q 603 1306 618 1306 q 543 1243 554 1306 l 467 1243 q 514 1351 479 1310 q 606 1392 549 1392 q 659 1382 636 1392 q 715 1353 682 1372 q 752 1332 738 1339 q 781 1325 767 1325 q 842 1386 831 1325 l 918 1386 z "},"Ȅ":{"ha":907,"x_min":65,"x_max":933,"o":"m 911 850 l 368 850 l 308 551 l 793 551 l 769 431 l 285 431 l 224 122 l 781 122 l 758 0 l 65 0 l 260 972 l 933 972 l 911 850 m 514 1260 l 593 1069 l 492 1057 l 393 1207 l 514 1260 m 729 1260 l 807 1069 l 707 1057 l 607 1207 l 729 1260 z "},"Ë":{"ha":907,"x_min":65,"x_max":933,"o":"m 911 850 l 368 850 l 308 551 l 793 551 l 769 431 l 285 431 l 224 122 l 781 122 l 758 0 l 65 0 l 260 972 l 933 972 l 911 850 m 544 1211 q 588 1193 571 1211 q 604 1147 604 1175 q 577 1085 604 1113 q 515 1058 550 1058 q 472 1076 489 1058 q 454 1122 454 1094 q 481 1185 454 1160 q 544 1211 507 1211 m 783 1211 q 826 1194 810 1211 q 842 1147 842 1176 q 815 1085 842 1113 q 754 1058 789 1058 q 710 1076 728 1058 q 693 1122 693 1094 q 719 1185 693 1160 q 783 1211 746 1211 z "},"Ė":{"ha":907,"x_min":65,"x_max":933,"o":"m 911 850 l 368 850 l 308 551 l 793 551 l 769 431 l 285 431 l 224 122 l 781 122 l 758 0 l 65 0 l 260 972 l 933 972 l 911 850 m 665 1225 q 714 1206 696 1225 q 732 1157 732 1188 q 702 1088 732 1117 q 633 1058 672 1058 q 586 1078 604 1058 q 568 1128 568 1099 q 597 1197 568 1168 q 665 1225 626 1225 z "},"Ẹ":{"ha":907,"x_min":65,"x_max":933,"o":"m 911 850 l 368 850 l 308 551 l 793 551 l 769 431 l 285 431 l 224 122 l 781 122 l 758 0 l 65 0 l 260 972 l 933 972 l 911 850 m 422 -103 q 471 -122 453 -103 q 489 -171 489 -140 q 459 -240 489 -211 q 390 -269 429 -269 q 343 -249 361 -269 q 325 -200 325 -229 q 354 -131 325 -160 q 422 -103 383 -103 z "},"È":{"ha":907,"x_min":65,"x_max":933,"o":"m 911 850 l 368 850 l 308 551 l 793 551 l 769 431 l 285 431 l 224 122 l 781 122 l 758 0 l 65 0 l 260 972 l 933 972 l 911 850 m 579 1253 l 728 1072 l 617 1058 l 446 1194 l 579 1253 z "},"Ẻ":{"ha":907,"x_min":65,"x_max":933,"o":"m 911 850 l 368 850 l 308 551 l 793 551 l 769 431 l 285 431 l 224 122 l 781 122 l 758 0 l 65 0 l 260 972 l 933 972 l 911 850 m 678 1314 q 759 1290 728 1314 q 790 1222 790 1265 q 752 1129 790 1179 q 656 1035 714 1079 l 589 1068 q 651 1131 628 1097 q 674 1188 674 1165 q 663 1213 674 1203 q 633 1224 651 1224 q 576 1206 608 1224 l 547 1275 q 678 1314 613 1314 z "},"Ȇ":{"ha":907,"x_min":65,"x_max":933,"o":"m 911 850 l 368 850 l 308 551 l 793 551 l 769 431 l 285 431 l 224 122 l 781 122 l 758 0 l 65 0 l 260 972 l 933 972 l 911 850 m 729 1064 q 731 1082 731 1069 q 710 1139 731 1117 q 654 1161 689 1161 q 583 1133 615 1161 q 540 1064 551 1106 l 450 1064 q 530 1199 468 1147 q 671 1250 592 1250 q 781 1210 740 1250 q 822 1101 822 1169 q 819 1064 822 1089 l 729 1064 z "},"Ē":{"ha":907,"x_min":65,"x_max":933,"o":"m 911 850 l 368 850 l 308 551 l 793 551 l 769 431 l 285 431 l 224 122 l 781 122 l 758 0 l 65 0 l 260 972 l 933 972 l 911 850 m 443 1157 l 860 1157 l 843 1071 l 426 1071 l 443 1157 z "},"Ḗ":{"ha":907,"x_min":65,"x_max":933,"o":"m 911 850 l 368 850 l 308 551 l 793 551 l 769 431 l 285 431 l 224 122 l 781 122 l 758 0 l 65 0 l 260 972 l 933 972 l 911 850 z "},"Ḕ":{"ha":907,"x_min":65,"x_max":933,"o":"m 911 850 l 368 850 l 308 551 l 793 551 l 769 431 l 285 431 l 224 122 l 781 122 l 758 0 l 65 0 l 260 972 l 933 972 l 911 850 z "},"Ę":{"ha":907,"x_min":65,"x_max":933,"o":"m 368 850 l 308 551 l 793 551 l 769 431 l 285 431 l 224 122 l 781 122 l 758 0 q 631 -95 668 -58 q 594 -167 594 -132 q 604 -192 594 -183 q 631 -201 614 -201 q 688 -187 660 -201 l 703 -274 q 585 -300 644 -300 q 499 -275 531 -300 q 468 -203 468 -250 q 610 0 468 -97 l 65 0 l 260 972 l 933 972 l 911 850 l 368 850 z "},"Ẽ":{"ha":907,"x_min":65,"x_max":933,"o":"m 911 850 l 368 850 l 308 551 l 793 551 l 769 431 l 285 431 l 224 122 l 781 122 l 758 0 l 65 0 l 260 972 l 933 972 l 911 850 m 879 1226 q 830 1104 865 1151 q 735 1057 794 1057 q 683 1068 706 1057 q 629 1101 660 1079 q 594 1124 607 1117 q 568 1131 581 1131 q 510 1063 522 1131 l 419 1063 q 469 1184 433 1136 q 563 1232 504 1232 q 615 1221 592 1232 q 669 1189 638 1210 q 705 1167 692 1174 q 731 1160 718 1160 q 770 1178 756 1160 q 789 1226 785 1196 l 879 1226 z "},"F":{"ha":789,"x_min":65,"x_max":892,"o":"m 868 850 l 368 850 l 304 532 l 754 532 l 731 411 l 281 411 l 199 0 l 65 0 l 260 972 l 892 972 l 868 850 z "},"G":{"ha":1063,"x_min":79,"x_max":997,"o":"m 857 475 l 974 475 l 904 118 q 540 -10 725 -10 q 304 50 410 -10 q 139 213 199 110 q 79 442 79 315 q 156 713 79 589 q 364 908 233 836 q 646 981 494 981 q 840 945 747 981 q 997 846 932 910 l 911 749 q 788 833 860 803 q 636 863 715 863 q 427 807 524 863 q 273 656 331 751 q 215 450 215 561 q 260 278 215 356 q 383 155 304 200 q 561 110 463 110 q 799 185 679 110 l 857 475 z "},"Ğ":{"ha":1063,"x_min":79,"x_max":997,"o":"m 857 475 l 974 475 l 904 118 q 540 -10 725 -10 q 304 50 410 -10 q 139 213 199 110 q 79 442 79 315 q 156 713 79 589 q 364 908 233 836 q 646 981 494 981 q 840 945 747 981 q 997 846 932 910 l 911 749 q 788 833 860 803 q 636 863 715 863 q 427 807 524 863 q 273 656 331 751 q 215 450 215 561 q 260 278 215 356 q 383 155 304 200 q 561 110 463 110 q 799 185 679 110 l 857 475 m 588 1243 q 586 1225 586 1238 q 607 1168 586 1190 q 663 1146 628 1146 q 733 1174 701 1146 q 776 1243 765 1201 l 867 1243 q 787 1108 849 1160 q 646 1057 725 1057 q 535 1097 576 1057 q 494 1206 494 1138 q 497 1243 494 1218 l 588 1243 z "},"Ǧ":{"ha":1063,"x_min":79,"x_max":997,"o":"m 857 475 l 974 475 l 904 118 q 540 -10 725 -10 q 304 50 410 -10 q 139 213 199 110 q 79 442 79 315 q 156 713 79 589 q 364 908 233 836 q 646 981 494 981 q 840 945 747 981 q 997 846 932 910 l 911 749 q 788 833 860 803 q 636 863 715 863 q 427 807 524 863 q 273 656 331 751 q 215 450 215 561 q 260 278 215 356 q 383 155 304 200 q 561 110 463 110 q 799 185 679 110 l 857 475 m 767 1249 l 896 1249 l 714 1064 l 579 1064 l 468 1249 l 597 1249 l 664 1156 l 767 1249 z "},"Ĝ":{"ha":1063,"x_min":79,"x_max":997,"o":"m 857 475 l 974 475 l 904 118 q 540 -10 725 -10 q 304 50 410 -10 q 139 213 199 110 q 79 442 79 315 q 156 713 79 589 q 364 908 233 836 q 646 981 494 981 q 840 945 747 981 q 997 846 932 910 l 911 749 q 788 833 860 803 q 636 863 715 863 q 427 807 524 863 q 273 656 331 751 q 215 450 215 561 q 260 278 215 356 q 383 155 304 200 q 561 110 463 110 q 799 185 679 110 l 857 475 m 861 1065 l 732 1065 l 665 1158 l 563 1065 l 433 1065 l 615 1250 l 750 1250 l 861 1065 z "},"Ģ":{"ha":1063,"x_min":79,"x_max":997,"o":"m 857 475 l 974 475 l 904 118 q 540 -10 725 -10 q 304 50 410 -10 q 139 213 199 110 q 79 442 79 315 q 156 713 79 589 q 364 908 233 836 q 646 981 494 981 q 840 945 747 981 q 997 846 932 910 l 911 749 q 788 833 860 803 q 636 863 715 863 q 427 807 524 863 q 273 656 331 751 q 215 450 215 561 q 260 278 215 356 q 383 155 304 200 q 561 110 463 110 q 799 185 679 110 l 857 475 m 467 -82 l 589 -82 l 475 -303 l 381 -303 l 467 -82 z "},"Ġ":{"ha":1063,"x_min":79,"x_max":997,"o":"m 857 475 l 974 475 l 904 118 q 540 -10 725 -10 q 304 50 410 -10 q 139 213 199 110 q 79 442 79 315 q 156 713 79 589 q 364 908 233 836 q 646 981 494 981 q 840 945 747 981 q 997 846 932 910 l 911 749 q 788 833 860 803 q 636 863 715 863 q 427 807 524 863 q 273 656 331 751 q 215 450 215 561 q 260 278 215 356 q 383 155 304 200 q 561 110 463 110 q 799 185 679 110 l 857 475 m 678 1225 q 726 1206 708 1225 q 744 1157 744 1188 q 715 1088 744 1117 q 646 1058 685 1058 q 599 1078 617 1058 q 581 1128 581 1099 q 610 1197 581 1168 q 678 1225 639 1225 z "},"Ḡ":{"ha":1063,"x_min":79,"x_max":997,"o":"m 857 475 l 974 475 l 904 118 q 540 -10 725 -10 q 304 50 410 -10 q 139 213 199 110 q 79 442 79 315 q 156 713 79 589 q 364 908 233 836 q 646 981 494 981 q 840 945 747 981 q 997 846 932 910 l 911 749 q 788 833 860 803 q 636 863 715 863 q 427 807 524 863 q 273 656 331 751 q 215 450 215 561 q 260 278 215 356 q 383 155 304 200 q 561 110 463 110 q 799 185 679 110 l 857 475 m 456 1157 l 872 1157 l 856 1071 l 439 1071 l 456 1157 z "},"H":{"ha":1199,"x_min":114,"x_max":1132,"o":"m 999 972 l 1132 972 l 938 0 l 804 0 l 888 418 l 331 418 l 247 0 l 114 0 l 308 972 l 442 972 l 356 539 l 913 539 l 999 972 z "},"Ħ":{"ha":1172,"x_min":101,"x_max":1207,"o":"m 1207 810 l 1192 729 l 1071 729 l 925 0 l 790 0 l 874 418 l 318 418 l 235 0 l 101 0 l 247 729 l 124 729 l 139 810 l 264 810 l 296 972 l 429 972 l 397 810 l 953 810 l 985 972 l 1119 972 l 1088 810 l 1207 810 m 899 539 l 936 729 l 381 729 l 343 539 l 899 539 z "},"Ḫ":{"ha":1199,"x_min":114,"x_max":1132,"o":"m 999 972 l 1132 972 l 938 0 l 804 0 l 888 418 l 331 418 l 247 0 l 114 0 l 308 972 l 442 972 l 356 539 l 913 539 l 999 972 m 418 -69 q 417 -87 417 -75 q 438 -144 417 -122 q 493 -167 458 -167 q 564 -139 532 -167 q 607 -69 596 -111 l 697 -69 q 617 -204 679 -153 q 476 -256 556 -256 q 366 -215 407 -256 q 325 -107 325 -175 q 328 -69 325 -94 l 418 -69 z "},"Ĥ":{"ha":1199,"x_min":114,"x_max":1132,"o":"m 999 972 l 1132 972 l 938 0 l 804 0 l 888 418 l 331 418 l 247 0 l 114 0 l 308 972 l 442 972 l 356 539 l 913 539 l 999 972 m 953 1065 l 824 1065 l 757 1158 l 654 1065 l 525 1065 l 707 1250 l 842 1250 l 953 1065 z "},"Ḥ":{"ha":1199,"x_min":114,"x_max":1132,"o":"m 999 972 l 1132 972 l 938 0 l 804 0 l 888 418 l 331 418 l 247 0 l 114 0 l 308 972 l 442 972 l 356 539 l 913 539 l 999 972 m 507 -103 q 556 -122 538 -103 q 574 -171 574 -140 q 544 -240 574 -211 q 475 -269 514 -269 q 428 -249 446 -269 q 410 -200 410 -229 q 439 -131 410 -160 q 507 -103 468 -103 z "},"I":{"ha":411,"x_min":65,"x_max":393,"o":"m 393 972 l 199 0 l 65 0 l 260 972 l 393 972 z "},"Ĳ":{"ha":1092,"x_min":65,"x_max":1096,"o":"m 393 972 l 199 0 l 65 0 l 260 972 l 393 972 m 1096 972 l 960 294 q 840 73 932 151 q 611 -6 747 -6 q 466 31 529 -6 q 364 133 403 67 l 447 236 q 533 153 483 182 q 636 125 582 125 q 759 170 710 125 q 826 299 808 215 l 938 850 l 596 850 l 619 972 l 1096 972 z "},"Í":{"ha":411,"x_min":65,"x_max":556,"o":"m 393 972 l 199 0 l 65 0 l 260 972 l 393 972 m 422 1253 l 556 1194 l 385 1058 l 274 1072 l 422 1253 z "},"Ĭ":{"ha":411,"x_min":65,"x_max":564,"o":"m 393 972 l 199 0 l 65 0 l 260 972 l 393 972 m 285 1243 q 283 1225 283 1238 q 304 1168 283 1190 q 360 1146 325 1146 q 431 1174 399 1146 q 474 1243 463 1201 l 564 1243 q 484 1108 546 1160 q 343 1057 422 1057 q 233 1097 274 1057 q 192 1206 192 1138 q 194 1243 192 1218 l 285 1243 z "},"Î":{"ha":411,"x_min":65,"x_max":558,"o":"m 393 972 l 199 0 l 65 0 l 260 972 l 393 972 m 558 1065 l 429 1065 l 363 1158 l 260 1065 l 131 1065 l 313 1250 l 447 1250 l 558 1065 z "},"Ȉ":{"ha":411,"x_min":65,"x_max":517,"o":"m 393 972 l 199 0 l 65 0 l 260 972 l 393 972 m 224 1260 l 303 1069 l 201 1057 l 103 1207 l 224 1260 m 439 1260 l 517 1069 l 417 1057 l 317 1207 l 439 1260 z "},"Ï":{"ha":411,"x_min":65,"x_max":551,"o":"m 393 972 l 199 0 l 65 0 l 260 972 l 393 972 m 254 1211 q 297 1193 281 1211 q 314 1147 314 1175 q 287 1085 314 1113 q 225 1058 260 1058 q 181 1076 199 1058 q 164 1122 164 1094 q 190 1185 164 1160 q 254 1211 217 1211 m 493 1211 q 535 1194 519 1211 q 551 1147 551 1176 q 525 1085 551 1113 q 464 1058 499 1058 q 420 1076 438 1058 q 403 1122 403 1094 q 429 1185 403 1160 q 493 1211 456 1211 z "},"Ḯ":{"ha":411,"x_min":65,"x_max":569,"o":"m 393 972 l 199 0 l 65 0 l 260 972 l 393 972 z "},"İ":{"ha":411,"x_min":65,"x_max":442,"o":"m 393 972 l 199 0 l 65 0 l 260 972 l 393 972 m 375 1225 q 424 1206 406 1225 q 442 1157 442 1188 q 412 1088 442 1117 q 343 1058 382 1058 q 296 1078 314 1058 q 278 1128 278 1099 q 307 1197 278 1168 q 375 1225 336 1225 z "},"Ị":{"ha":411,"x_min":15,"x_max":393,"o":"m 393 972 l 199 0 l 65 0 l 260 972 l 393 972 m 113 -103 q 161 -122 143 -103 q 179 -171 179 -140 q 149 -240 179 -211 q 81 -269 119 -269 q 33 -249 51 -269 q 15 -200 15 -229 q 44 -131 15 -160 q 113 -103 74 -103 z "},"Ì":{"ha":411,"x_min":65,"x_max":438,"o":"m 393 972 l 199 0 l 65 0 l 260 972 l 393 972 m 289 1253 l 438 1072 l 326 1058 l 156 1194 l 289 1253 z "},"Ỉ":{"ha":411,"x_min":65,"x_max":500,"o":"m 393 972 l 199 0 l 65 0 l 260 972 l 393 972 m 388 1314 q 469 1290 438 1314 q 500 1222 500 1265 q 462 1129 500 1179 q 365 1035 424 1079 l 299 1068 q 360 1131 338 1097 q 383 1188 383 1165 q 372 1213 383 1203 q 343 1224 361 1224 q 286 1206 318 1224 l 257 1275 q 388 1314 322 1314 z "},"Ȋ":{"ha":411,"x_min":65,"x_max":532,"o":"m 393 972 l 199 0 l 65 0 l 260 972 l 393 972 m 439 1064 q 440 1082 440 1069 q 419 1139 440 1117 q 364 1161 399 1161 q 293 1133 325 1161 q 250 1064 261 1106 l 160 1064 q 240 1199 178 1147 q 381 1250 301 1250 q 491 1210 450 1250 q 532 1101 532 1169 q 529 1064 532 1089 l 439 1064 z "},"Ī":{"ha":411,"x_min":65,"x_max":561,"o":"m 393 972 l 199 0 l 65 0 l 260 972 l 393 972 m 164 1157 l 561 1157 l 546 1071 l 147 1071 l 164 1157 z "},"Į":{"ha":411,"x_min":-92,"x_max":393,"o":"m 199 0 q 72 -95 108 -58 q 35 -167 35 -132 q 44 -192 35 -183 q 71 -201 54 -201 q 128 -187 100 -201 l 143 -274 q 25 -300 85 -300 q -60 -275 -29 -300 q -92 -203 -92 -250 q 68 11 -92 -90 l 260 972 l 393 972 l 199 0 z "},"Ĩ":{"ha":411,"x_min":65,"x_max":589,"o":"m 393 972 l 199 0 l 65 0 l 260 972 l 393 972 m 589 1226 q 540 1104 575 1151 q 444 1057 504 1057 q 392 1068 415 1057 q 339 1101 369 1079 q 303 1124 317 1117 q 278 1131 290 1131 q 219 1063 232 1131 l 129 1063 q 178 1184 143 1136 q 272 1232 214 1232 q 324 1221 301 1232 q 379 1189 347 1210 q 415 1167 401 1174 q 440 1160 428 1160 q 480 1178 465 1160 q 499 1226 494 1196 l 589 1226 z "},"J":{"ha":681,"x_min":-47,"x_max":685,"o":"m 685 972 l 549 294 q 428 73 521 151 q 200 -6 336 -6 q 55 31 118 -6 q -47 133 -8 67 l 36 236 q 122 153 72 182 q 225 125 171 125 q 348 170 299 125 q 415 299 397 215 l 526 850 l 185 850 l 208 972 l 685 972 z "},"Ĵ":{"ha":681,"x_min":-47,"x_max":685,"o":"m 685 972 l 549 294 q 428 73 521 151 q 200 -6 336 -6 q 55 31 118 -6 q -47 133 -8 67 l 36 236 q 122 153 72 182 q 225 125 171 125 q 348 170 299 125 q 415 299 397 215 l 526 850 l 185 850 l 208 972 l 685 972 m 674 1065 l 544 1065 l 478 1158 l 375 1065 l 246 1065 l 428 1250 l 563 1250 l 674 1065 z "},"K":{"ha":982,"x_min":65,"x_max":1056,"o":"m 1056 972 l 588 544 l 882 0 l 724 0 l 478 443 l 244 229 l 199 0 l 65 0 l 260 972 l 393 972 l 285 433 l 885 972 l 1056 972 z "},"Ķ":{"ha":982,"x_min":65,"x_max":1056,"o":"m 1056 972 l 588 544 l 882 0 l 724 0 l 478 443 l 244 229 l 199 0 l 65 0 l 260 972 l 393 972 l 285 433 l 885 972 l 1056 972 m 336 -82 l 458 -82 l 344 -303 l 250 -303 l 336 -82 z "},"L":{"ha":728,"x_min":65,"x_max":646,"o":"m 224 122 l 646 122 l 624 0 l 65 0 l 260 972 l 393 972 l 224 122 z "},"Ǉ":{"ha":1410,"x_min":65,"x_max":1413,"o":"m 224 122 l 646 122 l 624 0 l 65 0 l 260 972 l 393 972 l 224 122 m 1413 972 l 1276 294 q 1156 73 1249 151 q 928 -6 1064 -6 q 783 31 846 -6 q 681 133 719 67 l 764 236 q 849 153 800 182 q 953 125 899 125 q 1076 170 1026 125 q 1143 299 1125 215 l 1254 850 l 913 850 l 936 972 l 1413 972 z "},"Ĺ":{"ha":728,"x_min":65,"x_max":646,"o":"m 224 122 l 646 122 l 624 0 l 65 0 l 260 972 l 393 972 l 224 122 m 428 1253 l 561 1194 l 390 1058 l 279 1072 l 428 1253 z "},"Ľ":{"ha":728,"x_min":65,"x_max":689,"o":"m 224 122 l 646 122 l 624 0 l 65 0 l 260 972 l 393 972 l 224 122 m 565 971 l 689 971 l 603 697 l 513 697 l 565 971 z "},"Ļ":{"ha":728,"x_min":65,"x_max":646,"o":"m 224 122 l 646 122 l 624 0 l 65 0 l 260 972 l 393 972 l 224 122 m 279 -82 l 401 -82 l 288 -303 l 193 -303 l 279 -82 z "},"Ŀ":{"ha":728,"x_min":65,"x_max":651,"o":"m 224 122 l 646 122 l 624 0 l 65 0 l 260 972 l 393 972 l 224 122 m 585 624 q 633 605 615 624 q 651 556 651 586 q 622 486 651 515 q 553 457 592 457 q 506 477 524 457 q 488 526 488 497 q 517 595 488 567 q 585 624 546 624 z "},"Ḷ":{"ha":728,"x_min":65,"x_max":646,"o":"m 224 122 l 646 122 l 624 0 l 65 0 l 260 972 l 393 972 l 224 122 m 335 -103 q 383 -122 365 -103 q 401 -171 401 -140 q 372 -240 401 -211 q 303 -269 342 -269 q 256 -249 274 -269 q 238 -200 238 -229 q 267 -131 238 -160 q 335 -103 296 -103 z "},"ǈ":{"ha":1104,"x_min":65,"x_max":1106,"o":"m 224 122 l 646 122 l 624 0 l 65 0 l 260 972 l 393 972 l 224 122 m 569 -153 q 626 -164 588 -161 q 719 -125 682 -165 q 772 -11 757 -85 l 922 735 l 1053 735 l 897 -42 q 811 -215 875 -156 q 650 -274 747 -274 q 531 -249 588 -274 l 569 -153 m 1039 1028 q 1088 1009 1069 1028 q 1106 960 1106 990 q 1076 890 1106 919 q 1007 861 1046 861 q 960 881 978 861 q 942 931 942 901 q 971 999 942 971 q 1039 1028 1000 1028 z "},"Ḻ":{"ha":728,"x_min":65,"x_max":646,"o":"m 224 122 l 646 122 l 624 0 l 65 0 l 260 972 l 393 972 l 224 122 m 161 -115 l 504 -115 l 488 -200 l 144 -200 l 161 -115 z "},"Ł":{"ha":763,"x_min":51,"x_max":681,"o":"m 257 122 l 681 122 l 657 0 l 100 0 l 186 428 l 51 360 l 68 453 l 204 521 l 294 972 l 428 972 l 351 596 l 542 692 l 524 597 l 333 501 l 257 122 z "},"M":{"ha":1306,"x_min":71,"x_max":1282,"o":"m 1128 972 l 1282 972 l 1093 0 l 974 0 l 1128 789 l 640 103 l 564 103 l 344 792 l 190 0 l 71 0 l 260 972 l 413 972 l 636 279 l 1128 972 z "},"Ṃ":{"ha":1306,"x_min":71,"x_max":1282,"o":"m 1128 972 l 1282 972 l 1093 0 l 974 0 l 1128 789 l 640 103 l 564 103 l 344 792 l 190 0 l 71 0 l 260 972 l 413 972 l 636 279 l 1128 972 m 578 -103 q 626 -122 608 -103 q 644 -171 644 -140 q 615 -240 644 -211 q 546 -269 585 -269 q 499 -249 517 -269 q 481 -200 481 -229 q 510 -131 481 -160 q 578 -103 539 -103 z "},"N":{"ha":1103,"x_min":65,"x_max":1083,"o":"m 951 972 l 1083 972 l 889 0 l 754 0 l 351 754 l 199 0 l 65 0 l 260 972 l 394 972 l 799 218 l 951 972 z "},"Ǌ":{"ha":1783,"x_min":65,"x_max":1788,"o":"m 951 972 l 1083 972 l 889 0 l 754 0 l 351 754 l 199 0 l 65 0 l 260 972 l 394 972 l 799 218 l 951 972 m 1788 972 l 1651 294 q 1531 73 1624 151 q 1303 -6 1439 -6 q 1158 31 1221 -6 q 1056 133 1094 67 l 1139 236 q 1224 153 1175 182 q 1328 125 1274 125 q 1451 170 1401 125 q 1518 299 1500 215 l 1629 850 l 1288 850 l 1311 972 l 1788 972 z "},"Ń":{"ha":1103,"x_min":65,"x_max":1083,"o":"m 951 972 l 1083 972 l 889 0 l 754 0 l 351 754 l 199 0 l 65 0 l 260 972 l 394 972 l 799 218 l 951 972 m 768 1253 l 901 1194 l 731 1058 l 619 1072 l 768 1253 z "},"Ň":{"ha":1103,"x_min":65,"x_max":1083,"o":"m 951 972 l 1083 972 l 889 0 l 754 0 l 351 754 l 199 0 l 65 0 l 260 972 l 394 972 l 799 218 l 951 972 m 810 1249 l 939 1249 l 757 1064 l 622 1064 l 511 1249 l 640 1249 l 707 1156 l 810 1249 z "},"Ņ":{"ha":1103,"x_min":65,"x_max":1083,"o":"m 951 972 l 1083 972 l 889 0 l 754 0 l 351 754 l 199 0 l 65 0 l 260 972 l 394 972 l 799 218 l 951 972 m 403 -82 l 525 -82 l 411 -303 l 317 -303 l 403 -82 z "},"Ṅ":{"ha":1103,"x_min":65,"x_max":1083,"o":"m 951 972 l 1083 972 l 889 0 l 754 0 l 351 754 l 199 0 l 65 0 l 260 972 l 394 972 l 799 218 l 951 972 m 721 1225 q 769 1206 751 1225 q 788 1157 788 1188 q 758 1088 788 1117 q 689 1058 728 1058 q 642 1078 660 1058 q 624 1128 624 1099 q 653 1197 624 1168 q 721 1225 682 1225 z "},"Ṇ":{"ha":1103,"x_min":65,"x_max":1083,"o":"m 951 972 l 1083 972 l 889 0 l 754 0 l 351 754 l 199 0 l 65 0 l 260 972 l 394 972 l 799 218 l 951 972 m 458 -103 q 507 -122 489 -103 q 525 -171 525 -140 q 495 -240 525 -211 q 426 -269 465 -269 q 379 -249 397 -269 q 361 -200 361 -229 q 390 -131 361 -160 q 458 -103 419 -103 z "},"Ŋ":{"ha":1103,"x_min":65,"x_max":1083,"o":"m 889 0 q 769 -205 861 -129 q 544 -281 678 -281 q 301 -165 385 -281 l 388 -62 q 469 -128 422 -106 q 567 -150 517 -150 q 683 -111 635 -150 q 753 1 732 -72 l 351 750 l 199 0 l 65 0 l 260 972 l 394 972 l 799 221 l 951 972 l 1083 972 l 889 0 z "},"ǋ":{"ha":1451,"x_min":65,"x_max":1453,"o":"m 739 972 q 941 898 865 972 q 1017 700 1017 824 q 1008 617 1017 661 l 885 0 l 750 0 l 868 588 q 875 647 875 622 q 819 790 875 736 q 669 843 764 843 q 513 805 588 843 q 385 701 438 767 q 311 554 332 635 l 199 0 l 65 0 l 260 972 l 393 972 l 358 799 q 526 926 426 879 q 739 972 625 972 m 917 -153 q 974 -164 935 -161 q 1067 -125 1029 -165 q 1119 -11 1104 -85 l 1269 735 l 1400 735 l 1244 -42 q 1158 -215 1222 -156 q 997 -274 1094 -274 q 878 -249 935 -274 l 917 -153 m 1386 1028 q 1435 1009 1417 1028 q 1453 960 1453 990 q 1423 890 1453 919 q 1354 861 1393 861 q 1307 881 1325 861 q 1289 931 1289 901 q 1318 999 1289 971 q 1386 1028 1347 1028 z "},"Ṉ":{"ha":1103,"x_min":65,"x_max":1083,"o":"m 951 972 l 1083 972 l 889 0 l 754 0 l 351 754 l 199 0 l 65 0 l 260 972 l 394 972 l 799 218 l 951 972 m 285 -115 l 628 -115 l 611 -200 l 268 -200 l 285 -115 z "},"Ñ":{"ha":1103,"x_min":65,"x_max":1083,"o":"m 951 972 l 1083 972 l 889 0 l 754 0 l 351 754 l 199 0 l 65 0 l 260 972 l 394 972 l 799 218 l 951 972 m 935 1226 q 885 1104 921 1151 q 790 1057 850 1057 q 738 1068 761 1057 q 685 1101 715 1079 q 649 1124 663 1117 q 624 1131 636 1131 q 565 1063 578 1131 l 475 1063 q 524 1184 489 1136 q 618 1232 560 1232 q 670 1221 647 1232 q 725 1189 693 1210 q 760 1167 747 1174 q 786 1160 774 1160 q 826 1178 811 1160 q 844 1226 840 1196 l 935 1226 z "},"O":{"ha":1135,"x_min":79,"x_max":1107,"o":"m 642 981 q 880 922 774 981 q 1047 760 986 863 q 1107 532 1107 658 q 1030 261 1107 386 q 823 63 953 136 q 543 -10 693 -10 q 306 50 411 -10 q 140 213 200 110 q 79 442 79 315 q 156 713 79 589 q 363 908 233 836 q 642 981 492 981 m 632 861 q 427 806 524 861 q 273 656 331 750 q 215 451 215 561 q 260 279 215 357 q 383 156 306 201 q 556 111 461 111 q 759 167 664 111 q 911 319 854 224 q 968 524 968 414 q 924 695 968 618 q 802 817 879 772 q 632 861 725 861 z "},"Ó":{"ha":1135,"x_min":79,"x_max":1107,"o":"m 642 981 q 880 922 774 981 q 1047 760 986 863 q 1107 532 1107 658 q 1030 261 1107 386 q 823 63 953 136 q 543 -10 693 -10 q 306 50 411 -10 q 140 213 200 110 q 79 442 79 315 q 156 713 79 589 q 363 908 233 836 q 642 981 492 981 m 632 861 q 427 806 524 861 q 273 656 331 750 q 215 451 215 561 q 260 279 215 357 q 383 156 306 201 q 556 111 461 111 q 759 167 664 111 q 911 319 854 224 q 968 524 968 414 q 924 695 968 618 q 802 817 879 772 q 632 861 725 861 m 736 1253 l 869 1194 l 699 1058 l 588 1072 l 736 1253 z "},"Ŏ":{"ha":1135,"x_min":79,"x_max":1107,"o":"m 642 981 q 880 922 774 981 q 1047 760 986 863 q 1107 532 1107 658 q 1030 261 1107 386 q 823 63 953 136 q 543 -10 693 -10 q 306 50 411 -10 q 140 213 200 110 q 79 442 79 315 q 156 713 79 589 q 363 908 233 836 q 642 981 492 981 m 632 861 q 427 806 524 861 q 273 656 331 750 q 215 451 215 561 q 260 279 215 357 q 383 156 306 201 q 556 111 461 111 q 759 167 664 111 q 911 319 854 224 q 968 524 968 414 q 924 695 968 618 q 802 817 879 772 q 632 861 725 861 m 599 1243 q 597 1225 597 1238 q 618 1168 597 1190 q 674 1146 639 1146 q 744 1174 713 1146 q 788 1243 776 1201 l 878 1243 q 798 1108 860 1160 q 657 1057 736 1057 q 547 1097 588 1057 q 506 1206 506 1138 q 508 1243 506 1218 l 599 1243 z "},"Ô":{"ha":1135,"x_min":79,"x_max":1107,"o":"m 642 981 q 880 922 774 981 q 1047 760 986 863 q 1107 532 1107 658 q 1030 261 1107 386 q 823 63 953 136 q 543 -10 693 -10 q 306 50 411 -10 q 140 213 200 110 q 79 442 79 315 q 156 713 79 589 q 363 908 233 836 q 642 981 492 981 m 632 861 q 427 806 524 861 q 273 656 331 750 q 215 451 215 561 q 260 279 215 357 q 383 156 306 201 q 556 111 461 111 q 759 167 664 111 q 911 319 854 224 q 968 524 968 414 q 924 695 968 618 q 802 817 879 772 q 632 861 725 861 m 872 1065 l 743 1065 l 676 1158 l 574 1065 l 444 1065 l 626 1250 l 761 1250 l 872 1065 z "},"Ố":{"ha":1135,"x_min":79,"x_max":1107,"o":"m 642 981 q 880 922 774 981 q 1047 760 986 863 q 1107 532 1107 658 q 1030 261 1107 386 q 823 63 953 136 q 543 -10 693 -10 q 306 50 411 -10 q 140 213 200 110 q 79 442 79 315 q 156 713 79 589 q 363 908 233 836 q 642 981 492 981 m 632 861 q 427 806 524 861 q 273 656 331 750 q 215 451 215 561 q 260 279 215 357 q 383 156 306 201 q 556 111 461 111 q 759 167 664 111 q 911 319 854 224 q 968 524 968 414 q 924 695 968 618 q 802 817 879 772 q 632 861 725 861 m 899 1050 l 760 1050 l 678 1126 l 567 1050 l 424 1050 l 597 1183 l 772 1183 l 899 1050 m 776 1404 l 888 1329 l 693 1225 l 596 1256 l 776 1404 z "},"Ộ":{"ha":1135,"x_min":79,"x_max":1107,"o":"m 642 981 q 880 922 774 981 q 1047 760 986 863 q 1107 532 1107 658 q 1030 261 1107 386 q 823 63 953 136 q 543 -10 693 -10 q 306 50 411 -10 q 140 213 200 110 q 79 442 79 315 q 156 713 79 589 q 363 908 233 836 q 642 981 492 981 m 632 861 q 427 806 524 861 q 273 656 331 750 q 215 451 215 561 q 260 279 215 357 q 383 156 306 201 q 556 111 461 111 q 759 167 664 111 q 911 319 854 224 q 968 524 968 414 q 924 695 968 618 q 802 817 879 772 q 632 861 725 861 m 528 -103 q 576 -122 558 -103 q 594 -171 594 -140 q 565 -240 594 -211 q 496 -269 535 -269 q 449 -249 467 -269 q 431 -200 431 -229 q 460 -131 431 -160 q 528 -103 489 -103 m 938 1065 l 808 1065 l 742 1158 l 639 1065 l 510 1065 l 692 1250 l 826 1250 l 938 1065 z "},"Ồ":{"ha":1135,"x_min":79,"x_max":1107,"o":"m 642 981 q 880 922 774 981 q 1047 760 986 863 q 1107 532 1107 658 q 1030 261 1107 386 q 823 63 953 136 q 543 -10 693 -10 q 306 50 411 -10 q 140 213 200 110 q 79 442 79 315 q 156 713 79 589 q 363 908 233 836 q 642 981 492 981 m 632 861 q 427 806 524 861 q 273 656 331 750 q 215 451 215 561 q 260 279 215 357 q 383 156 306 201 q 556 111 461 111 q 759 167 664 111 q 911 319 854 224 q 968 524 968 414 q 924 695 968 618 q 802 817 879 772 q 632 861 725 861 m 893 1050 l 754 1050 l 672 1126 l 561 1050 l 418 1050 l 592 1183 l 767 1183 l 893 1050 m 600 1404 l 782 1256 l 683 1225 l 489 1329 l 600 1404 z "},"Ổ":{"ha":1135,"x_min":79,"x_max":1107,"o":"m 642 981 q 880 922 774 981 q 1047 760 986 863 q 1107 532 1107 658 q 1030 261 1107 386 q 823 63 953 136 q 543 -10 693 -10 q 306 50 411 -10 q 140 213 200 110 q 79 442 79 315 q 156 713 79 589 q 363 908 233 836 q 642 981 492 981 m 632 861 q 427 806 524 861 q 273 656 331 750 q 215 451 215 561 q 260 279 215 357 q 383 156 306 201 q 556 111 461 111 q 759 167 664 111 q 911 319 854 224 q 968 524 968 414 q 924 695 968 618 q 802 817 879 772 q 632 861 725 861 m 843 1051 l 704 1051 l 622 1128 l 511 1051 l 368 1051 l 542 1185 l 717 1185 l 843 1051 m 671 1444 q 743 1424 717 1444 q 769 1368 769 1403 q 738 1294 769 1332 q 651 1224 706 1257 l 590 1251 q 642 1296 624 1274 q 661 1336 661 1318 q 652 1355 661 1347 q 628 1363 643 1363 q 578 1349 604 1363 l 550 1408 q 671 1444 610 1444 z "},"Ỗ":{"ha":1135,"x_min":79,"x_max":1107,"o":"m 642 981 q 880 922 774 981 q 1047 760 986 863 q 1107 532 1107 658 q 1030 261 1107 386 q 823 63 953 136 q 543 -10 693 -10 q 306 50 411 -10 q 140 213 200 110 q 79 442 79 315 q 156 713 79 589 q 363 908 233 836 q 642 981 492 981 m 632 861 q 427 806 524 861 q 273 656 331 750 q 215 451 215 561 q 260 279 215 357 q 383 156 306 201 q 556 111 461 111 q 759 167 664 111 q 911 319 854 224 q 968 524 968 414 q 924 695 968 618 q 802 817 879 772 q 632 861 725 861 m 910 1051 l 771 1051 l 689 1128 l 578 1051 l 435 1051 l 608 1185 l 783 1185 l 910 1051 m 942 1386 q 894 1279 929 1319 q 803 1239 860 1239 q 749 1249 774 1239 q 693 1278 725 1258 q 656 1299 671 1292 q 626 1306 642 1306 q 567 1243 578 1306 l 490 1243 q 538 1351 503 1310 q 629 1392 572 1392 q 683 1382 660 1392 q 739 1353 706 1372 q 776 1332 761 1339 q 804 1325 790 1325 q 865 1386 854 1325 l 942 1386 z "},"Ȍ":{"ha":1135,"x_min":79,"x_max":1107,"o":"m 642 981 q 880 922 774 981 q 1047 760 986 863 q 1107 532 1107 658 q 1030 261 1107 386 q 823 63 953 136 q 543 -10 693 -10 q 306 50 411 -10 q 140 213 200 110 q 79 442 79 315 q 156 713 79 589 q 363 908 233 836 q 642 981 492 981 m 632 861 q 427 806 524 861 q 273 656 331 750 q 215 451 215 561 q 260 279 215 357 q 383 156 306 201 q 556 111 461 111 q 759 167 664 111 q 911 319 854 224 q 968 524 968 414 q 924 695 968 618 q 802 817 879 772 q 632 861 725 861 m 538 1260 l 617 1069 l 515 1057 l 417 1207 l 538 1260 m 753 1260 l 831 1069 l 731 1057 l 631 1207 l 753 1260 z "},"Ö":{"ha":1135,"x_min":79,"x_max":1107,"o":"m 642 981 q 880 922 774 981 q 1047 760 986 863 q 1107 532 1107 658 q 1030 261 1107 386 q 823 63 953 136 q 543 -10 693 -10 q 306 50 411 -10 q 140 213 200 110 q 79 442 79 315 q 156 713 79 589 q 363 908 233 836 q 642 981 492 981 m 632 861 q 427 806 524 861 q 273 656 331 750 q 215 451 215 561 q 260 279 215 357 q 383 156 306 201 q 556 111 461 111 q 759 167 664 111 q 911 319 854 224 q 968 524 968 414 q 924 695 968 618 q 802 817 879 772 q 632 861 725 861 m 568 1211 q 611 1193 594 1211 q 628 1147 628 1175 q 601 1085 628 1113 q 539 1058 574 1058 q 495 1076 513 1058 q 478 1122 478 1094 q 504 1185 478 1160 q 568 1211 531 1211 m 807 1211 q 849 1194 833 1211 q 865 1147 865 1176 q 839 1085 865 1113 q 778 1058 813 1058 q 734 1076 751 1058 q 717 1122 717 1094 q 743 1185 717 1160 q 807 1211 769 1211 z "},"Ȫ":{"ha":1135,"x_min":79,"x_max":1107,"o":"m 642 981 q 880 922 774 981 q 1047 760 986 863 q 1107 532 1107 658 q 1030 261 1107 386 q 823 63 953 136 q 543 -10 693 -10 q 306 50 411 -10 q 140 213 200 110 q 79 442 79 315 q 156 713 79 589 q 363 908 233 836 q 642 981 492 981 m 632 861 q 427 806 524 861 q 273 656 331 750 q 215 451 215 561 q 260 279 215 357 q 383 156 306 201 q 556 111 461 111 q 759 167 664 111 q 911 319 854 224 q 968 524 968 414 q 924 695 968 618 q 802 817 879 772 q 632 861 725 861 z "},"Ȱ":{"ha":1135,"x_min":79,"x_max":1107,"o":"m 642 981 q 880 922 774 981 q 1047 760 986 863 q 1107 532 1107 658 q 1030 261 1107 386 q 823 63 953 136 q 543 -10 693 -10 q 306 50 411 -10 q 140 213 200 110 q 79 442 79 315 q 156 713 79 589 q 363 908 233 836 q 642 981 492 981 m 632 861 q 427 806 524 861 q 273 656 331 750 q 215 451 215 561 q 260 279 215 357 q 383 156 306 201 q 556 111 461 111 q 759 167 664 111 q 911 319 854 224 q 968 524 968 414 q 924 695 968 618 q 802 817 879 772 q 632 861 725 861 z "},"Ọ":{"ha":1135,"x_min":79,"x_max":1107,"o":"m 642 981 q 880 922 774 981 q 1047 760 986 863 q 1107 532 1107 658 q 1030 261 1107 386 q 823 63 953 136 q 543 -10 693 -10 q 306 50 411 -10 q 140 213 200 110 q 79 442 79 315 q 156 713 79 589 q 363 908 233 836 q 642 981 492 981 m 632 861 q 427 806 524 861 q 273 656 331 750 q 215 451 215 561 q 260 279 215 357 q 383 156 306 201 q 556 111 461 111 q 759 167 664 111 q 911 319 854 224 q 968 524 968 414 q 924 695 968 618 q 802 817 879 772 q 632 861 725 861 m 528 -103 q 576 -122 558 -103 q 594 -171 594 -140 q 565 -240 594 -211 q 496 -269 535 -269 q 449 -249 467 -269 q 431 -200 431 -229 q 460 -131 431 -160 q 528 -103 489 -103 z "},"Ò":{"ha":1135,"x_min":79,"x_max":1107,"o":"m 642 981 q 880 922 774 981 q 1047 760 986 863 q 1107 532 1107 658 q 1030 261 1107 386 q 823 63 953 136 q 543 -10 693 -10 q 306 50 411 -10 q 140 213 200 110 q 79 442 79 315 q 156 713 79 589 q 363 908 233 836 q 642 981 492 981 m 632 861 q 427 806 524 861 q 273 656 331 750 q 215 451 215 561 q 260 279 215 357 q 383 156 306 201 q 556 111 461 111 q 759 167 664 111 q 911 319 854 224 q 968 524 968 414 q 924 695 968 618 q 802 817 879 772 q 632 861 725 861 m 603 1253 l 751 1072 l 640 1058 l 469 1194 l 603 1253 z "},"Ỏ":{"ha":1135,"x_min":79,"x_max":1107,"o":"m 642 981 q 880 922 774 981 q 1047 760 986 863 q 1107 532 1107 658 q 1030 261 1107 386 q 823 63 953 136 q 543 -10 693 -10 q 306 50 411 -10 q 140 213 200 110 q 79 442 79 315 q 156 713 79 589 q 363 908 233 836 q 642 981 492 981 m 632 861 q 427 806 524 861 q 273 656 331 750 q 215 451 215 561 q 260 279 215 357 q 383 156 306 201 q 556 111 461 111 q 759 167 664 111 q 911 319 854 224 q 968 524 968 414 q 924 695 968 618 q 802 817 879 772 q 632 861 725 861 m 701 1314 q 783 1290 751 1314 q 814 1222 814 1265 q 776 1129 814 1179 q 679 1035 738 1079 l 613 1068 q 674 1131 651 1097 q 697 1188 697 1165 q 686 1213 697 1203 q 657 1224 675 1224 q 600 1206 632 1224 l 571 1275 q 701 1314 636 1314 z "},"Ơ":{"ha":1200,"x_min":79,"x_max":1144,"o":"m 979 847 q 1074 706 1040 788 q 1107 532 1107 625 q 1030 261 1107 386 q 823 63 953 136 q 543 -10 693 -10 q 306 50 411 -10 q 140 213 200 110 q 79 442 79 315 q 156 713 79 589 q 363 908 233 836 q 642 981 492 981 q 856 935 757 981 q 913 924 882 924 q 996 963 964 924 q 1028 1054 1028 1001 q 1013 1117 1028 1086 l 1126 1157 q 1144 1060 1144 1108 q 1099 926 1144 983 q 979 847 1054 868 m 968 524 q 924 695 968 618 q 802 817 879 772 q 632 861 725 861 q 427 806 524 861 q 273 656 331 750 q 215 451 215 561 q 260 279 215 357 q 383 156 306 201 q 556 111 461 111 q 759 167 664 111 q 911 319 854 224 q 968 524 968 414 z "},"Ớ":{"ha":1200,"x_min":79,"x_max":1144,"o":"m 979 847 q 1074 706 1040 788 q 1107 532 1107 625 q 1030 261 1107 386 q 823 63 953 136 q 543 -10 693 -10 q 306 50 411 -10 q 140 213 200 110 q 79 442 79 315 q 156 713 79 589 q 363 908 233 836 q 642 981 492 981 q 856 935 757 981 q 913 924 882 924 q 996 963 964 924 q 1028 1054 1028 1001 q 1013 1117 1028 1086 l 1126 1157 q 1144 1060 1144 1108 q 1099 926 1144 983 q 979 847 1054 868 m 968 524 q 924 695 968 618 q 802 817 879 772 q 632 861 725 861 q 427 806 524 861 q 273 656 331 750 q 215 451 215 561 q 260 279 215 357 q 383 156 306 201 q 556 111 461 111 q 759 167 664 111 q 911 319 854 224 q 968 524 968 414 m 736 1253 l 869 1194 l 699 1058 l 588 1072 l 736 1253 z "},"Ợ":{"ha":1224,"x_min":79,"x_max":1144,"o":"m 979 847 q 1074 706 1040 788 q 1107 532 1107 625 q 1030 261 1107 386 q 823 63 953 136 q 543 -10 693 -10 q 306 50 411 -10 q 140 213 200 110 q 79 442 79 315 q 156 713 79 589 q 363 908 233 836 q 642 981 492 981 q 856 935 757 981 q 913 924 882 924 q 996 963 964 924 q 1028 1054 1028 1001 q 1013 1117 1028 1086 l 1126 1157 q 1144 1060 1144 1108 q 1099 926 1144 983 q 979 847 1054 868 m 968 524 q 924 695 968 618 q 802 817 879 772 q 632 861 725 861 q 427 806 524 861 q 273 656 331 750 q 215 451 215 561 q 260 279 215 357 q 383 156 306 201 q 556 111 461 111 q 759 167 664 111 q 911 319 854 224 q 968 524 968 414 m 526 -103 q 575 -122 557 -103 q 593 -171 593 -140 q 563 -240 593 -211 q 494 -269 533 -269 q 447 -249 465 -269 q 429 -200 429 -229 q 458 -131 429 -160 q 526 -103 488 -103 z "},"Ờ":{"ha":1224,"x_min":79,"x_max":1144,"o":"m 979 847 q 1074 706 1040 788 q 1107 532 1107 625 q 1030 261 1107 386 q 823 63 953 136 q 543 -10 693 -10 q 306 50 411 -10 q 140 213 200 110 q 79 442 79 315 q 156 713 79 589 q 363 908 233 836 q 642 981 492 981 q 856 935 757 981 q 913 924 882 924 q 996 963 964 924 q 1028 1054 1028 1001 q 1013 1117 1028 1086 l 1126 1157 q 1144 1060 1144 1108 q 1099 926 1144 983 q 979 847 1054 868 m 968 524 q 924 695 968 618 q 802 817 879 772 q 632 861 725 861 q 427 806 524 861 q 273 656 331 750 q 215 451 215 561 q 260 279 215 357 q 383 156 306 201 q 556 111 461 111 q 759 167 664 111 q 911 319 854 224 q 968 524 968 414 m 604 1253 l 753 1072 l 642 1058 l 471 1194 l 604 1253 z "},"Ở":{"ha":1200,"x_min":79,"x_max":1144,"o":"m 979 847 q 1074 706 1040 788 q 1107 532 1107 625 q 1030 261 1107 386 q 823 63 953 136 q 543 -10 693 -10 q 306 50 411 -10 q 140 213 200 110 q 79 442 79 315 q 156 713 79 589 q 363 908 233 836 q 642 981 492 981 q 856 935 757 981 q 913 924 882 924 q 996 963 964 924 q 1028 1054 1028 1001 q 1013 1117 1028 1086 l 1126 1157 q 1144 1060 1144 1108 q 1099 926 1144 983 q 979 847 1054 868 m 968 524 q 924 695 968 618 q 802 817 879 772 q 632 861 725 861 q 427 806 524 861 q 273 656 331 750 q 215 451 215 561 q 260 279 215 357 q 383 156 306 201 q 556 111 461 111 q 759 167 664 111 q 911 319 854 224 q 968 524 968 414 m 703 1314 q 784 1290 753 1314 q 815 1222 815 1265 q 777 1129 815 1179 q 681 1035 739 1079 l 614 1068 q 676 1131 653 1097 q 699 1188 699 1165 q 688 1213 699 1203 q 658 1224 676 1224 q 601 1206 633 1224 l 572 1275 q 703 1314 638 1314 z "},"Ỡ":{"ha":1224,"x_min":79,"x_max":1144,"o":"m 979 847 q 1074 706 1040 788 q 1107 532 1107 625 q 1030 261 1107 386 q 823 63 953 136 q 543 -10 693 -10 q 306 50 411 -10 q 140 213 200 110 q 79 442 79 315 q 156 713 79 589 q 363 908 233 836 q 642 981 492 981 q 856 935 757 981 q 913 924 882 924 q 996 963 964 924 q 1028 1054 1028 1001 q 1013 1117 1028 1086 l 1126 1157 q 1144 1060 1144 1108 q 1099 926 1144 983 q 979 847 1054 868 m 968 524 q 924 695 968 618 q 802 817 879 772 q 632 861 725 861 q 427 806 524 861 q 273 656 331 750 q 215 451 215 561 q 260 279 215 357 q 383 156 306 201 q 556 111 461 111 q 759 167 664 111 q 911 319 854 224 q 968 524 968 414 m 904 1226 q 855 1104 890 1151 q 760 1057 819 1057 q 708 1068 731 1057 q 654 1101 685 1079 q 619 1124 632 1117 q 593 1131 606 1131 q 535 1063 547 1131 l 444 1063 q 494 1184 458 1136 q 588 1232 529 1232 q 640 1221 617 1232 q 694 1189 663 1210 q 730 1167 717 1174 q 756 1160 743 1160 q 795 1178 781 1160 q 814 1226 810 1196 l 904 1226 z "},"Ő":{"ha":1135,"x_min":79,"x_max":1107,"o":"m 642 981 q 880 922 774 981 q 1047 760 986 863 q 1107 532 1107 658 q 1030 261 1107 386 q 823 63 953 136 q 543 -10 693 -10 q 306 50 411 -10 q 140 213 200 110 q 79 442 79 315 q 156 713 79 589 q 363 908 233 836 q 642 981 492 981 m 632 861 q 427 806 524 861 q 273 656 331 750 q 215 451 215 561 q 260 279 215 357 q 383 156 306 201 q 556 111 461 111 q 759 167 664 111 q 911 319 854 224 q 968 524 968 414 q 924 695 968 618 q 802 817 879 772 q 632 861 725 861 m 601 1261 l 703 1208 l 571 1058 l 476 1071 l 601 1261 m 815 1261 l 917 1208 l 786 1058 l 692 1071 l 815 1261 z "},"Ȏ":{"ha":1135,"x_min":79,"x_max":1107,"o":"m 642 981 q 880 922 774 981 q 1047 760 986 863 q 1107 532 1107 658 q 1030 261 1107 386 q 823 63 953 136 q 543 -10 693 -10 q 306 50 411 -10 q 140 213 200 110 q 79 442 79 315 q 156 713 79 589 q 363 908 233 836 q 642 981 492 981 m 632 861 q 427 806 524 861 q 273 656 331 750 q 215 451 215 561 q 260 279 215 357 q 383 156 306 201 q 556 111 461 111 q 759 167 664 111 q 911 319 854 224 q 968 524 968 414 q 924 695 968 618 q 802 817 879 772 q 632 861 725 861 m 753 1064 q 754 1082 754 1069 q 733 1139 754 1117 q 678 1161 713 1161 q 607 1133 639 1161 q 564 1064 575 1106 l 474 1064 q 553 1199 492 1147 q 694 1250 615 1250 q 805 1210 764 1250 q 846 1101 846 1169 q 843 1064 846 1089 l 753 1064 z "},"Ō":{"ha":1135,"x_min":79,"x_max":1107,"o":"m 642 981 q 880 922 774 981 q 1047 760 986 863 q 1107 532 1107 658 q 1030 261 1107 386 q 823 63 953 136 q 543 -10 693 -10 q 306 50 411 -10 q 140 213 200 110 q 79 442 79 315 q 156 713 79 589 q 363 908 233 836 q 642 981 492 981 m 632 861 q 427 806 524 861 q 273 656 331 750 q 215 451 215 561 q 260 279 215 357 q 383 156 306 201 q 556 111 461 111 q 759 167 664 111 q 911 319 854 224 q 968 524 968 414 q 924 695 968 618 q 802 817 879 772 q 632 861 725 861 m 467 1157 l 883 1157 l 867 1071 l 450 1071 l 467 1157 z "},"Ṓ":{"ha":1135,"x_min":79,"x_max":1107,"o":"m 642 981 q 880 922 774 981 q 1047 760 986 863 q 1107 532 1107 658 q 1030 261 1107 386 q 823 63 953 136 q 543 -10 693 -10 q 306 50 411 -10 q 140 213 200 110 q 79 442 79 315 q 156 713 79 589 q 363 908 233 836 q 642 981 492 981 m 632 861 q 427 806 524 861 q 273 656 331 750 q 215 451 215 561 q 260 279 215 357 q 383 156 306 201 q 556 111 461 111 q 759 167 664 111 q 911 319 854 224 q 968 524 968 414 q 924 695 968 618 q 802 817 879 772 q 632 861 725 861 m 496 1151 l 839 1151 l 822 1067 l 481 1067 l 496 1151 m 764 1394 l 875 1319 l 681 1215 l 583 1246 l 764 1394 z "},"Ṑ":{"ha":1135,"x_min":79,"x_max":1107,"o":"m 642 981 q 880 922 774 981 q 1047 760 986 863 q 1107 532 1107 658 q 1030 261 1107 386 q 823 63 953 136 q 543 -10 693 -10 q 306 50 411 -10 q 140 213 200 110 q 79 442 79 315 q 156 713 79 589 q 363 908 233 836 q 642 981 492 981 m 632 861 q 427 806 524 861 q 273 656 331 750 q 215 451 215 561 q 260 279 215 357 q 383 156 306 201 q 556 111 461 111 q 759 167 664 111 q 911 319 854 224 q 968 524 968 414 q 924 695 968 618 q 802 817 879 772 q 632 861 725 861 m 503 1151 l 846 1151 l 829 1067 l 488 1067 l 503 1151 m 599 1394 l 781 1246 l 682 1215 l 488 1319 l 599 1394 z "},"Ǫ":{"ha":1135,"x_min":79,"x_max":1107,"o":"m 642 981 q 880 922 774 981 q 1047 760 986 863 q 1107 532 1107 658 q 1033 265 1107 388 q 833 69 958 142 q 704 -51 757 15 q 651 -164 651 -118 q 661 -191 651 -181 q 688 -201 671 -201 q 743 -187 715 -201 l 760 -274 q 640 -300 700 -300 q 556 -272 586 -300 q 526 -192 526 -243 q 631 -3 526 -101 q 543 -10 582 -10 q 306 50 411 -10 q 140 213 200 110 q 79 442 79 315 q 156 713 79 589 q 363 908 233 836 q 642 981 492 981 m 968 524 q 924 695 968 618 q 802 817 879 772 q 632 861 725 861 q 427 806 524 861 q 273 656 331 750 q 215 451 215 561 q 260 279 215 357 q 383 156 306 201 q 556 111 461 111 q 759 167 664 111 q 911 319 854 224 q 968 524 968 414 z "},"Ø":{"ha":1135,"x_min":79,"x_max":1107,"o":"m 931 889 q 1060 734 1014 828 q 1107 531 1107 640 q 1030 260 1107 385 q 823 63 953 136 q 543 -10 693 -10 q 304 51 411 -10 l 208 -76 l 94 -76 l 229 104 q 119 255 158 167 q 79 443 79 343 q 156 713 79 589 q 363 908 233 836 q 642 981 492 981 q 851 936 756 981 l 935 1049 l 1050 1049 l 931 889 m 215 451 q 240 321 215 382 q 310 213 265 260 l 772 832 q 632 861 706 861 q 427 806 524 861 q 273 656 331 750 q 215 451 215 561 m 968 522 q 938 668 968 600 q 851 783 907 736 l 382 157 q 556 111 463 111 q 759 167 664 111 q 911 317 854 222 q 968 522 968 411 z "},"Ǿ":{"ha":1135,"x_min":79,"x_max":1107,"o":"m 931 889 q 1060 734 1014 828 q 1107 531 1107 640 q 1030 260 1107 385 q 823 63 953 136 q 543 -10 693 -10 q 304 51 411 -10 l 208 -76 l 94 -76 l 229 104 q 119 255 158 167 q 79 443 79 343 q 156 713 79 589 q 363 908 233 836 q 642 981 492 981 q 851 936 756 981 l 935 1049 l 1050 1049 l 931 889 m 215 451 q 240 321 215 382 q 310 213 265 260 l 772 832 q 632 861 706 861 q 427 806 524 861 q 273 656 331 750 q 215 451 215 561 m 968 522 q 938 668 968 600 q 851 783 907 736 l 382 157 q 556 111 463 111 q 759 167 664 111 q 911 317 854 222 q 968 522 968 411 m 769 1253 l 903 1194 l 732 1058 l 621 1072 l 769 1253 z "},"Õ":{"ha":1135,"x_min":79,"x_max":1107,"o":"m 642 981 q 880 922 774 981 q 1047 760 986 863 q 1107 532 1107 658 q 1030 261 1107 386 q 823 63 953 136 q 543 -10 693 -10 q 306 50 411 -10 q 140 213 200 110 q 79 442 79 315 q 156 713 79 589 q 363 908 233 836 q 642 981 492 981 m 632 861 q 427 806 524 861 q 273 656 331 750 q 215 451 215 561 q 260 279 215 357 q 383 156 306 201 q 556 111 461 111 q 759 167 664 111 q 911 319 854 224 q 968 524 968 414 q 924 695 968 618 q 802 817 879 772 q 632 861 725 861 m 903 1226 q 853 1104 889 1151 q 758 1057 818 1057 q 706 1068 729 1057 q 653 1101 683 1079 q 617 1124 631 1117 q 592 1131 604 1131 q 533 1063 546 1131 l 443 1063 q 492 1184 457 1136 q 586 1232 528 1232 q 638 1221 615 1232 q 693 1189 661 1210 q 728 1167 715 1174 q 754 1160 742 1160 q 794 1178 779 1160 q 813 1226 808 1196 l 903 1226 z "},"Ṍ":{"ha":1135,"x_min":79,"x_max":1107,"o":"m 642 981 q 880 922 774 981 q 1047 760 986 863 q 1107 532 1107 658 q 1030 261 1107 386 q 823 63 953 136 q 543 -10 693 -10 q 306 50 411 -10 q 140 213 200 110 q 79 442 79 315 q 156 713 79 589 q 363 908 233 836 q 642 981 492 981 m 632 861 q 427 806 524 861 q 273 656 331 750 q 215 451 215 561 q 260 279 215 357 q 383 156 306 201 q 556 111 461 111 q 759 167 664 111 q 911 319 854 224 q 968 524 968 414 q 924 695 968 618 q 802 817 879 772 q 632 861 725 861 z "},"Ṏ":{"ha":1135,"x_min":79,"x_max":1107,"o":"m 642 981 q 880 922 774 981 q 1047 760 986 863 q 1107 532 1107 658 q 1030 261 1107 386 q 823 63 953 136 q 543 -10 693 -10 q 306 50 411 -10 q 140 213 200 110 q 79 442 79 315 q 156 713 79 589 q 363 908 233 836 q 642 981 492 981 m 632 861 q 427 806 524 861 q 273 656 331 750 q 215 451 215 561 q 260 279 215 357 q 383 156 306 201 q 556 111 461 111 q 759 167 664 111 q 911 319 854 224 q 968 524 968 414 q 924 695 968 618 q 802 817 879 772 q 632 861 725 861 z "},"Ȭ":{"ha":1135,"x_min":79,"x_max":1107,"o":"m 642 981 q 880 922 774 981 q 1047 760 986 863 q 1107 532 1107 658 q 1030 261 1107 386 q 823 63 953 136 q 543 -10 693 -10 q 306 50 411 -10 q 140 213 200 110 q 79 442 79 315 q 156 713 79 589 q 363 908 233 836 q 642 981 492 981 m 632 861 q 427 806 524 861 q 273 656 331 750 q 215 451 215 561 q 260 279 215 357 q 383 156 306 201 q 556 111 461 111 q 759 167 664 111 q 911 319 854 224 q 968 524 968 414 q 924 695 968 618 q 802 817 879 772 q 632 861 725 861 z "},"Œ":{"ha":1528,"x_min":79,"x_max":1556,"o":"m 990 850 l 931 551 l 1413 551 l 1390 431 l 906 431 l 843 122 l 1401 122 l 1378 0 l 544 0 q 307 60 414 0 q 140 224 200 119 q 79 454 79 328 q 156 713 79 594 q 362 902 232 832 q 642 972 492 972 l 1556 972 l 1532 850 l 990 850 m 710 121 l 857 851 l 632 851 q 425 799 521 851 q 272 656 329 746 q 215 458 215 565 q 260 287 215 364 q 382 165 304 210 q 556 121 460 121 l 710 121 z "},"P":{"ha":950,"x_min":65,"x_max":958,"o":"m 635 972 q 875 903 792 972 q 958 708 958 835 q 903 494 958 586 q 744 353 847 403 q 501 303 642 303 l 260 303 l 199 0 l 65 0 l 260 972 l 635 972 m 519 424 q 747 492 665 424 q 828 683 828 560 q 771 808 828 765 q 607 850 714 850 l 368 850 l 283 424 l 519 424 z "},"Þ":{"ha":956,"x_min":65,"x_max":938,"o":"m 582 831 q 847 763 756 831 q 938 571 938 696 q 881 360 938 449 q 714 224 824 272 q 450 176 604 176 l 233 176 l 199 0 l 65 0 l 260 972 l 393 972 l 365 831 l 582 831 m 467 288 q 713 356 629 288 q 797 549 797 424 q 556 719 797 719 l 343 719 l 256 288 l 467 288 z "},"Q":{"ha":1140,"x_min":79,"x_max":1132,"o":"m 1132 -99 q 1010 -176 1076 -149 q 878 -204 943 -204 q 713 -153 792 -204 q 571 -8 635 -103 q 543 -10 563 -10 q 306 50 411 -10 q 140 213 200 110 q 79 442 79 315 q 156 713 79 589 q 363 908 233 836 q 642 981 492 981 q 880 922 774 981 q 1047 760 986 863 q 1107 532 1107 658 q 1055 308 1107 413 q 913 126 1003 203 q 708 15 822 50 q 893 -87 803 -87 q 1076 -3 974 -87 l 1132 -99 m 215 451 q 260 279 215 357 q 383 156 306 201 q 556 111 461 111 q 759 167 664 111 q 911 319 854 224 q 968 524 968 414 q 924 695 968 618 q 802 817 879 772 q 632 861 725 861 q 427 806 524 861 q 273 656 331 750 q 215 451 215 561 z "},"R":{"ha":1004,"x_min":65,"x_max":969,"o":"m 969 708 q 895 467 969 567 q 688 328 821 368 l 846 0 l 693 0 l 563 304 q 507 303 544 303 l 260 303 l 199 0 l 65 0 l 260 972 l 640 972 q 884 903 799 972 q 969 708 969 833 m 529 424 q 758 491 676 424 q 839 683 839 558 q 782 808 839 765 q 617 850 725 850 l 368 850 l 283 424 l 529 424 z "},"Ŕ":{"ha":1004,"x_min":65,"x_max":969,"o":"m 969 708 q 895 467 969 567 q 688 328 821 368 l 846 0 l 693 0 l 563 304 q 507 303 544 303 l 260 303 l 199 0 l 65 0 l 260 972 l 640 972 q 884 903 799 972 q 969 708 969 833 m 529 424 q 758 491 676 424 q 839 683 839 558 q 782 808 839 765 q 617 850 725 850 l 368 850 l 283 424 l 529 424 m 694 1253 l 828 1194 l 657 1058 l 546 1072 l 694 1253 z "},"Ř":{"ha":1004,"x_min":65,"x_max":969,"o":"m 969 708 q 895 467 969 567 q 688 328 821 368 l 846 0 l 693 0 l 563 304 q 507 303 544 303 l 260 303 l 199 0 l 65 0 l 260 972 l 640 972 q 884 903 799 972 q 969 708 969 833 m 529 424 q 758 491 676 424 q 839 683 839 558 q 782 808 839 765 q 617 850 725 850 l 368 850 l 283 424 l 529 424 m 736 1249 l 865 1249 l 683 1064 l 549 1064 l 438 1249 l 567 1249 l 633 1156 l 736 1249 z "},"Ŗ":{"ha":1004,"x_min":65,"x_max":969,"o":"m 969 708 q 895 467 969 567 q 688 328 821 368 l 846 0 l 693 0 l 563 304 q 507 303 544 303 l 260 303 l 199 0 l 65 0 l 260 972 l 640 972 q 884 903 799 972 q 969 708 969 833 m 529 424 q 758 491 676 424 q 839 683 839 558 q 782 808 839 765 q 617 850 725 850 l 368 850 l 283 424 l 529 424 m 351 -82 l 474 -82 l 360 -303 l 265 -303 l 351 -82 z "},"Ȑ":{"ha":1004,"x_min":65,"x_max":969,"o":"m 969 708 q 895 467 969 567 q 688 328 821 368 l 846 0 l 693 0 l 563 304 q 507 303 544 303 l 260 303 l 199 0 l 65 0 l 260 972 l 640 972 q 884 903 799 972 q 969 708 969 833 m 529 424 q 758 491 676 424 q 839 683 839 558 q 782 808 839 765 q 617 850 725 850 l 368 850 l 283 424 l 529 424 m 496 1260 l 575 1069 l 474 1057 l 375 1207 l 496 1260 m 711 1260 l 789 1069 l 689 1057 l 589 1207 l 711 1260 z "},"Ṛ":{"ha":1004,"x_min":65,"x_max":969,"o":"m 969 708 q 895 467 969 567 q 688 328 821 368 l 846 0 l 693 0 l 563 304 q 507 303 544 303 l 260 303 l 199 0 l 65 0 l 260 972 l 640 972 q 884 903 799 972 q 969 708 969 833 m 529 424 q 758 491 676 424 q 839 683 839 558 q 782 808 839 765 q 617 850 725 850 l 368 850 l 283 424 l 529 424 m 407 -103 q 456 -122 438 -103 q 474 -171 474 -140 q 444 -240 474 -211 q 375 -269 414 -269 q 328 -249 346 -269 q 310 -200 310 -229 q 339 -131 310 -160 q 407 -103 368 -103 z "},"Ȓ":{"ha":1004,"x_min":65,"x_max":969,"o":"m 969 708 q 895 467 969 567 q 688 328 821 368 l 846 0 l 693 0 l 563 304 q 507 303 544 303 l 260 303 l 199 0 l 65 0 l 260 972 l 640 972 q 884 903 799 972 q 969 708 969 833 m 529 424 q 758 491 676 424 q 839 683 839 558 q 782 808 839 765 q 617 850 725 850 l 368 850 l 283 424 l 529 424 m 711 1064 q 713 1082 713 1069 q 692 1139 713 1117 q 636 1161 671 1161 q 565 1133 597 1161 q 522 1064 533 1106 l 432 1064 q 512 1199 450 1147 q 653 1250 574 1250 q 763 1210 722 1250 q 804 1101 804 1169 q 801 1064 804 1089 l 711 1064 z "},"Ṟ":{"ha":1004,"x_min":65,"x_max":969,"o":"m 969 708 q 895 467 969 567 q 688 328 821 368 l 846 0 l 693 0 l 563 304 q 507 303 544 303 l 260 303 l 199 0 l 65 0 l 260 972 l 640 972 q 884 903 799 972 q 969 708 969 833 m 529 424 q 758 491 676 424 q 839 683 839 558 q 782 808 839 765 q 617 850 725 850 l 368 850 l 283 424 l 529 424 m 233 -115 l 576 -115 l 560 -200 l 217 -200 l 233 -115 z "},"S":{"ha":846,"x_min":-4,"x_max":806,"o":"m 492 985 q 660 959 578 985 q 806 889 743 933 l 738 771 q 604 835 675 814 q 471 856 533 856 q 331 824 385 856 q 272 735 278 792 q 293 651 267 683 q 363 599 319 618 q 479 556 406 579 q 621 500 567 526 q 713 425 675 474 q 751 300 751 376 q 750 265 751 278 q 692 120 743 182 q 556 24 640 58 q 365 -10 471 -10 q 161 32 258 -10 q -4 143 64 74 l 67 258 q 213 155 129 192 q 379 118 297 118 q 542 160 482 118 q 603 275 603 203 q 575 351 603 321 q 506 400 547 382 q 392 440 464 418 q 251 492 306 467 q 158 567 196 518 q 119 692 119 615 q 166 845 119 779 q 297 948 213 911 q 492 985 382 985 z "},"Ś":{"ha":846,"x_min":-4,"x_max":806,"o":"m 492 985 q 660 959 578 985 q 806 889 743 933 l 738 771 q 604 835 675 814 q 471 856 533 856 q 331 824 385 856 q 272 735 278 792 q 293 651 267 683 q 363 599 319 618 q 479 556 406 579 q 621 500 567 526 q 713 425 675 474 q 751 300 751 376 q 750 265 751 278 q 692 120 743 182 q 556 24 640 58 q 365 -10 471 -10 q 161 32 258 -10 q -4 143 64 74 l 67 258 q 213 155 129 192 q 379 118 297 118 q 542 160 482 118 q 603 275 603 203 q 575 351 603 321 q 506 400 547 382 q 392 440 464 418 q 251 492 306 467 q 158 567 196 518 q 119 692 119 615 q 166 845 119 779 q 297 948 213 911 q 492 985 382 985 m 582 1253 l 715 1194 l 544 1058 l 433 1072 l 582 1253 z "},"Ṥ":{"ha":846,"x_min":-4,"x_max":806,"o":"m 492 985 q 660 959 578 985 q 806 889 743 933 l 738 771 q 604 835 675 814 q 471 856 533 856 q 331 824 385 856 q 272 735 278 792 q 293 651 267 683 q 363 599 319 618 q 479 556 406 579 q 621 500 567 526 q 713 425 675 474 q 751 300 751 376 q 750 265 751 278 q 692 120 743 182 q 556 24 640 58 q 365 -10 471 -10 q 161 32 258 -10 q -4 143 64 74 l 67 258 q 213 155 129 192 q 379 118 297 118 q 542 160 482 118 q 603 275 603 203 q 575 351 603 321 q 506 400 547 382 q 392 440 464 418 q 251 492 306 467 q 158 567 196 518 q 119 692 119 615 q 166 845 119 779 q 297 948 213 911 q 492 985 382 985 z "},"Ꞌ":{"ha":351,"x_min":104,"x_max":349,"o":"m 214 972 l 349 972 l 224 418 l 104 418 l 214 972 z "},"Š":{"ha":846,"x_min":-4,"x_max":806,"o":"m 492 985 q 660 959 578 985 q 806 889 743 933 l 738 771 q 604 835 675 814 q 471 856 533 856 q 331 824 385 856 q 272 735 278 792 q 293 651 267 683 q 363 599 319 618 q 479 556 406 579 q 621 500 567 526 q 713 425 675 474 q 751 300 751 376 q 750 265 751 278 q 692 120 743 182 q 556 24 640 58 q 365 -10 471 -10 q 161 32 258 -10 q -4 143 64 74 l 67 258 q 213 155 129 192 q 379 118 297 118 q 542 160 482 118 q 603 275 603 203 q 575 351 603 321 q 506 400 547 382 q 392 440 464 418 q 251 492 306 467 q 158 567 196 518 q 119 692 119 615 q 166 845 119 779 q 297 948 213 911 q 492 985 382 985 m 624 1249 l 753 1249 l 571 1064 l 436 1064 l 325 1249 l 454 1249 l 521 1156 l 624 1249 z "},"Ṧ":{"ha":846,"x_min":-4,"x_max":806,"o":"m 492 985 q 660 959 578 985 q 806 889 743 933 l 738 771 q 604 835 675 814 q 471 856 533 856 q 331 824 385 856 q 272 735 278 792 q 293 651 267 683 q 363 599 319 618 q 479 556 406 579 q 621 500 567 526 q 713 425 675 474 q 751 300 751 376 q 750 265 751 278 q 692 120 743 182 q 556 24 640 58 q 365 -10 471 -10 q 161 32 258 -10 q -4 143 64 74 l 67 258 q 213 155 129 192 q 379 118 297 118 q 542 160 482 118 q 603 275 603 203 q 575 351 603 321 q 506 400 547 382 q 392 440 464 418 q 251 492 306 467 q 158 567 196 518 q 119 692 119 615 q 166 845 119 779 q 297 948 213 911 q 492 985 382 985 z "},"Ş":{"ha":846,"x_min":-4,"x_max":806,"o":"m 272 735 q 293 651 267 683 q 363 599 319 618 q 479 556 406 579 q 621 500 567 526 q 713 425 675 474 q 751 300 751 376 q 750 265 751 278 q 645 75 740 149 q 404 -8 550 1 l 368 -71 q 438 -103 415 -78 q 461 -162 461 -128 q 409 -264 461 -226 q 281 -301 357 -301 q 156 -272 211 -301 l 201 -186 q 279 -206 238 -206 q 332 -191 311 -206 q 353 -158 353 -176 q 336 -133 353 -143 q 289 -122 319 -122 l 247 -122 l 306 -7 q 133 44 214 4 q -4 143 53 83 l 67 258 q 213 155 129 192 q 379 118 297 118 q 542 160 482 118 q 603 275 603 203 q 575 351 603 321 q 506 400 547 382 q 392 440 464 418 q 251 492 306 467 q 158 567 196 518 q 119 692 119 615 q 166 845 119 779 q 297 948 213 911 q 492 985 382 985 q 660 959 578 985 q 806 889 743 933 l 738 771 q 604 835 675 814 q 471 856 533 856 q 331 824 385 856 q 272 735 278 792 z "},"Ŝ":{"ha":846,"x_min":-4,"x_max":806,"o":"m 492 985 q 660 959 578 985 q 806 889 743 933 l 738 771 q 604 835 675 814 q 471 856 533 856 q 331 824 385 856 q 272 735 278 792 q 293 651 267 683 q 363 599 319 618 q 479 556 406 579 q 621 500 567 526 q 713 425 675 474 q 751 300 751 376 q 750 265 751 278 q 692 120 743 182 q 556 24 640 58 q 365 -10 471 -10 q 161 32 258 -10 q -4 143 64 74 l 67 258 q 213 155 129 192 q 379 118 297 118 q 542 160 482 118 q 603 275 603 203 q 575 351 603 321 q 506 400 547 382 q 392 440 464 418 q 251 492 306 467 q 158 567 196 518 q 119 692 119 615 q 166 845 119 779 q 297 948 213 911 q 492 985 382 985 m 718 1065 l 589 1065 l 522 1158 l 419 1065 l 290 1065 l 472 1250 l 607 1250 l 718 1065 z "},"Ș":{"ha":846,"x_min":-4,"x_max":806,"o":"m 492 985 q 660 959 578 985 q 806 889 743 933 l 738 771 q 604 835 675 814 q 471 856 533 856 q 331 824 385 856 q 272 735 278 792 q 293 651 267 683 q 363 599 319 618 q 479 556 406 579 q 621 500 567 526 q 713 425 675 474 q 751 300 751 376 q 750 265 751 278 q 692 120 743 182 q 556 24 640 58 q 365 -10 471 -10 q 161 32 258 -10 q -4 143 64 74 l 67 258 q 213 155 129 192 q 379 118 297 118 q 542 160 482 118 q 603 275 603 203 q 575 351 603 321 q 506 400 547 382 q 392 440 464 418 q 251 492 306 467 q 158 567 196 518 q 119 692 119 615 q 166 845 119 779 q 297 948 213 911 q 492 985 382 985 m 282 -82 l 404 -82 l 290 -303 l 196 -303 l 282 -82 z "},"Ṡ":{"ha":846,"x_min":-4,"x_max":806,"o":"m 492 985 q 660 959 578 985 q 806 889 743 933 l 738 771 q 604 835 675 814 q 471 856 533 856 q 331 824 385 856 q 272 735 278 792 q 293 651 267 683 q 363 599 319 618 q 479 556 406 579 q 621 500 567 526 q 713 425 675 474 q 751 300 751 376 q 750 265 751 278 q 692 120 743 182 q 556 24 640 58 q 365 -10 471 -10 q 161 32 258 -10 q -4 143 64 74 l 67 258 q 213 155 129 192 q 379 118 297 118 q 542 160 482 118 q 603 275 603 203 q 575 351 603 321 q 506 400 547 382 q 392 440 464 418 q 251 492 306 467 q 158 567 196 518 q 119 692 119 615 q 166 845 119 779 q 297 948 213 911 q 492 985 382 985 m 535 1225 q 583 1206 565 1225 q 601 1157 601 1188 q 572 1088 601 1117 q 503 1058 542 1058 q 456 1078 474 1058 q 438 1128 438 1099 q 467 1197 438 1168 q 535 1225 496 1225 z "},"Ṣ":{"ha":846,"x_min":-4,"x_max":806,"o":"m 492 985 q 660 959 578 985 q 806 889 743 933 l 738 771 q 604 835 675 814 q 471 856 533 856 q 331 824 385 856 q 272 735 278 792 q 293 651 267 683 q 363 599 319 618 q 479 556 406 579 q 621 500 567 526 q 713 425 675 474 q 751 300 751 376 q 750 265 751 278 q 692 120 743 182 q 556 24 640 58 q 365 -10 471 -10 q 161 32 258 -10 q -4 143 64 74 l 67 258 q 213 155 129 192 q 379 118 297 118 q 542 160 482 118 q 603 275 603 203 q 575 351 603 321 q 506 400 547 382 q 392 440 464 418 q 251 492 306 467 q 158 567 196 518 q 119 692 119 615 q 166 845 119 779 q 297 948 213 911 q 492 985 382 985 m 338 -103 q 386 -122 368 -103 q 404 -171 404 -140 q 374 -240 404 -211 q 306 -269 344 -269 q 258 -249 276 -269 q 240 -200 240 -229 q 269 -131 240 -160 q 338 -103 299 -103 z "},"Ṩ":{"ha":846,"x_min":-4,"x_max":806,"o":"m 492 985 q 660 959 578 985 q 806 889 743 933 l 738 771 q 604 835 675 814 q 471 856 533 856 q 331 824 385 856 q 272 735 278 792 q 293 651 267 683 q 363 599 319 618 q 479 556 406 579 q 621 500 567 526 q 713 425 675 474 q 751 300 751 376 q 750 265 751 278 q 692 120 743 182 q 556 24 640 58 q 365 -10 471 -10 q 161 32 258 -10 q -4 143 64 74 l 67 258 q 213 155 129 192 q 379 118 297 118 q 542 160 482 118 q 603 275 603 203 q 575 351 603 321 q 506 400 547 382 q 392 440 464 418 q 251 492 306 467 q 158 567 196 518 q 119 692 119 615 q 166 845 119 779 q 297 948 213 911 q 492 985 382 985 m 338 -103 q 386 -122 368 -103 q 404 -171 404 -140 q 374 -240 404 -211 q 306 -269 344 -269 q 258 -249 276 -269 q 240 -200 240 -229 q 269 -131 240 -160 q 338 -103 299 -103 m 564 1225 q 613 1206 594 1225 q 631 1157 631 1188 q 601 1088 631 1117 q 532 1058 571 1058 q 485 1078 503 1058 q 467 1128 467 1099 q 496 1197 467 1168 q 564 1225 525 1225 z "},"ẞ":{"ha":965,"x_min":49,"x_max":925,"o":"m 904 763 l 686 556 q 830 482 781 538 q 879 342 879 426 q 827 163 879 240 q 685 42 775 85 q 485 0 594 0 l 371 0 l 392 121 l 506 121 q 675 176 608 121 q 742 318 742 232 q 697 410 742 378 q 568 443 651 443 l 518 443 l 540 564 l 800 811 q 613 861 726 861 q 407 793 490 861 q 300 603 324 725 l 182 0 l 49 0 l 167 603 q 324 881 201 782 q 631 981 447 981 q 925 876 813 981 l 904 763 z "},"Ə":{"ha":1099,"x_min":82,"x_max":1071,"o":"m 622 981 q 853 922 750 981 q 1013 761 956 864 q 1071 532 1071 658 q 997 260 1071 385 q 800 63 924 136 q 533 -10 676 -10 q 297 50 400 -10 q 138 217 194 110 q 82 461 82 324 q 83 521 82 501 l 940 521 l 940 529 q 897 697 940 621 q 779 817 854 774 q 614 861 704 861 q 444 823 525 861 q 303 717 363 785 l 214 807 q 622 981 385 981 m 546 111 q 706 146 629 111 q 840 247 783 181 q 922 400 897 313 l 218 400 q 270 250 226 315 q 385 148 314 185 q 546 111 457 111 z "},"T":{"ha":788,"x_min":113,"x_max":896,"o":"m 896 972 l 872 850 l 558 850 l 388 0 l 253 0 l 424 850 l 113 850 l 135 972 l 896 972 z "},"Ŧ":{"ha":788,"x_min":113,"x_max":896,"o":"m 872 850 l 558 850 l 489 503 l 697 503 l 682 422 l 472 422 l 388 0 l 253 0 l 338 422 l 124 422 l 139 503 l 354 503 l 424 850 l 113 850 l 135 972 l 896 972 l 872 850 z "},"Ť":{"ha":788,"x_min":113,"x_max":896,"o":"m 896 972 l 872 850 l 558 850 l 388 0 l 253 0 l 424 850 l 113 850 l 135 972 l 896 972 m 663 1249 l 792 1249 l 610 1064 l 475 1064 l 364 1249 l 493 1249 l 560 1156 l 663 1249 z "},"Ţ":{"ha":788,"x_min":113,"x_max":896,"o":"m 371 0 l 331 -71 q 401 -103 378 -78 q 424 -162 424 -128 q 372 -264 424 -226 q 243 -301 319 -301 q 118 -272 174 -301 l 164 -186 q 242 -206 200 -206 q 294 -191 274 -206 q 315 -158 315 -176 q 299 -133 315 -143 q 251 -122 282 -122 l 210 -122 l 271 0 l 253 0 l 424 850 l 113 850 l 135 972 l 896 972 l 872 850 l 558 850 l 388 0 l 371 0 z "},"Ț":{"ha":788,"x_min":113,"x_max":896,"o":"m 896 972 l 872 850 l 558 850 l 388 0 l 253 0 l 424 850 l 113 850 l 135 972 l 896 972 m 244 -82 l 367 -82 l 253 -303 l 158 -303 l 244 -82 z "},"Ṭ":{"ha":788,"x_min":113,"x_max":896,"o":"m 896 972 l 872 850 l 558 850 l 388 0 l 253 0 l 424 850 l 113 850 l 135 972 l 896 972 m 300 -103 q 349 -122 331 -103 q 367 -171 367 -140 q 337 -240 367 -211 q 268 -269 307 -269 q 221 -249 239 -269 q 203 -200 203 -229 q 232 -131 203 -160 q 300 -103 261 -103 z "},"Ṯ":{"ha":788,"x_min":110,"x_max":896,"o":"m 896 972 l 872 850 l 558 850 l 388 0 l 253 0 l 424 850 l 113 850 l 135 972 l 896 972 m 126 -115 l 469 -115 l 453 -200 l 110 -200 l 126 -115 z "},"U":{"ha":1064,"x_min":114,"x_max":1068,"o":"m 954 401 q 790 102 915 210 q 472 -6 664 -6 q 210 76 306 -6 q 114 303 114 157 q 125 401 114 346 l 239 972 l 372 972 l 258 401 q 250 325 250 360 q 313 170 250 225 q 486 115 375 115 q 705 191 617 115 q 821 401 793 267 l 935 972 l 1068 972 l 954 401 z "},"Ú":{"ha":1064,"x_min":114,"x_max":1068,"o":"m 954 401 q 790 102 915 210 q 472 -6 664 -6 q 210 76 306 -6 q 114 303 114 157 q 125 401 114 346 l 239 972 l 372 972 l 258 401 q 250 325 250 360 q 313 170 250 225 q 486 115 375 115 q 705 191 617 115 q 821 401 793 267 l 935 972 l 1068 972 l 954 401 m 749 1253 l 882 1194 l 711 1058 l 600 1072 l 749 1253 z "},"Ŭ":{"ha":1064,"x_min":114,"x_max":1068,"o":"m 954 401 q 790 102 915 210 q 472 -6 664 -6 q 210 76 306 -6 q 114 303 114 157 q 125 401 114 346 l 239 972 l 372 972 l 258 401 q 250 325 250 360 q 313 170 250 225 q 486 115 375 115 q 705 191 617 115 q 821 401 793 267 l 935 972 l 1068 972 l 954 401 m 611 1243 q 610 1225 610 1238 q 631 1168 610 1190 q 686 1146 651 1146 q 757 1174 725 1146 q 800 1243 789 1201 l 890 1243 q 810 1108 872 1160 q 669 1057 749 1057 q 559 1097 600 1057 q 518 1206 518 1138 q 521 1243 518 1218 l 611 1243 z "},"Û":{"ha":1064,"x_min":114,"x_max":1068,"o":"m 954 401 q 790 102 915 210 q 472 -6 664 -6 q 210 76 306 -6 q 114 303 114 157 q 125 401 114 346 l 239 972 l 372 972 l 258 401 q 250 325 250 360 q 313 170 250 225 q 486 115 375 115 q 705 191 617 115 q 821 401 793 267 l 935 972 l 1068 972 l 954 401 m 885 1065 l 756 1065 l 689 1158 l 586 1065 l 457 1065 l 639 1250 l 774 1250 l 885 1065 z "},"Ȕ":{"ha":1064,"x_min":114,"x_max":1068,"o":"m 954 401 q 790 102 915 210 q 472 -6 664 -6 q 210 76 306 -6 q 114 303 114 157 q 125 401 114 346 l 239 972 l 372 972 l 258 401 q 250 325 250 360 q 313 170 250 225 q 486 115 375 115 q 705 191 617 115 q 821 401 793 267 l 935 972 l 1068 972 l 954 401 m 550 1260 l 629 1069 l 528 1057 l 429 1207 l 550 1260 m 765 1260 l 843 1069 l 743 1057 l 643 1207 l 765 1260 z "},"Ü":{"ha":1064,"x_min":114,"x_max":1068,"o":"m 954 401 q 790 102 915 210 q 472 -6 664 -6 q 210 76 306 -6 q 114 303 114 157 q 125 401 114 346 l 239 972 l 372 972 l 258 401 q 250 325 250 360 q 313 170 250 225 q 486 115 375 115 q 705 191 617 115 q 821 401 793 267 l 935 972 l 1068 972 l 954 401 m 581 1211 q 624 1193 607 1211 q 640 1147 640 1175 q 613 1085 640 1113 q 551 1058 586 1058 q 508 1076 525 1058 q 490 1122 490 1094 q 517 1185 490 1160 q 581 1211 543 1211 m 819 1211 q 862 1194 846 1211 q 878 1147 878 1176 q 851 1085 878 1113 q 790 1058 825 1058 q 747 1076 764 1058 q 729 1122 729 1094 q 756 1185 729 1160 q 819 1211 782 1211 z "},"Ụ":{"ha":1064,"x_min":114,"x_max":1068,"o":"m 954 401 q 790 102 915 210 q 472 -6 664 -6 q 210 76 306 -6 q 114 303 114 157 q 125 401 114 346 l 239 972 l 372 972 l 258 401 q 250 325 250 360 q 313 170 250 225 q 486 115 375 115 q 705 191 617 115 q 821 401 793 267 l 935 972 l 1068 972 l 954 401 m 439 -103 q 488 -122 469 -103 q 506 -171 506 -140 q 476 -240 506 -211 q 407 -269 446 -269 q 360 -249 378 -269 q 342 -200 342 -229 q 371 -131 342 -160 q 439 -103 400 -103 z "},"Ù":{"ha":1064,"x_min":114,"x_max":1068,"o":"m 954 401 q 790 102 915 210 q 472 -6 664 -6 q 210 76 306 -6 q 114 303 114 157 q 125 401 114 346 l 239 972 l 372 972 l 258 401 q 250 325 250 360 q 313 170 250 225 q 486 115 375 115 q 705 191 617 115 q 821 401 793 267 l 935 972 l 1068 972 l 954 401 m 615 1253 l 764 1072 l 653 1058 l 482 1194 l 615 1253 z "},"Ủ":{"ha":1064,"x_min":114,"x_max":1068,"o":"m 954 401 q 790 102 915 210 q 472 -6 664 -6 q 210 76 306 -6 q 114 303 114 157 q 125 401 114 346 l 239 972 l 372 972 l 258 401 q 250 325 250 360 q 313 170 250 225 q 486 115 375 115 q 705 191 617 115 q 821 401 793 267 l 935 972 l 1068 972 l 954 401 m 714 1314 q 795 1290 764 1314 q 826 1222 826 1265 q 788 1129 826 1179 q 692 1035 750 1079 l 625 1068 q 687 1131 664 1097 q 710 1188 710 1165 q 699 1213 710 1203 q 669 1224 688 1224 q 613 1206 644 1224 l 583 1275 q 714 1314 649 1314 z "},"Ư":{"ha":1138,"x_min":114,"x_max":1232,"o":"m 1224 1157 q 1232 1090 1232 1122 q 1184 958 1232 1011 q 1051 892 1136 904 l 954 401 q 790 102 915 210 q 472 -6 664 -6 q 210 76 306 -6 q 114 303 114 157 q 125 401 114 346 l 239 972 l 372 972 l 258 401 q 250 325 250 360 q 313 170 250 225 q 486 115 375 115 q 705 191 617 115 q 821 401 793 267 l 935 972 l 1017 972 q 1097 998 1069 972 q 1125 1067 1125 1024 q 1117 1118 1125 1092 l 1224 1157 z "},"Ứ":{"ha":1138,"x_min":114,"x_max":1232,"o":"m 1224 1157 q 1232 1090 1232 1122 q 1184 958 1232 1011 q 1051 892 1136 904 l 954 401 q 790 102 915 210 q 472 -6 664 -6 q 210 76 306 -6 q 114 303 114 157 q 125 401 114 346 l 239 972 l 372 972 l 258 401 q 250 325 250 360 q 313 170 250 225 q 486 115 375 115 q 705 191 617 115 q 821 401 793 267 l 935 972 l 1017 972 q 1097 998 1069 972 q 1125 1067 1125 1024 q 1117 1118 1125 1092 l 1224 1157 m 749 1253 l 882 1194 l 711 1058 l 600 1072 l 749 1253 z "},"Ự":{"ha":1138,"x_min":114,"x_max":1232,"o":"m 1224 1157 q 1232 1090 1232 1122 q 1184 958 1232 1011 q 1051 892 1136 904 l 954 401 q 790 102 915 210 q 472 -6 664 -6 q 210 76 306 -6 q 114 303 114 157 q 125 401 114 346 l 239 972 l 372 972 l 258 401 q 250 325 250 360 q 313 170 250 225 q 486 115 375 115 q 705 191 617 115 q 821 401 793 267 l 935 972 l 1017 972 q 1097 998 1069 972 q 1125 1067 1125 1024 q 1117 1118 1125 1092 l 1224 1157 m 439 -103 q 488 -122 469 -103 q 506 -171 506 -140 q 476 -240 506 -211 q 407 -269 446 -269 q 360 -249 378 -269 q 342 -200 342 -229 q 371 -131 342 -160 q 439 -103 400 -103 z "},"Ừ":{"ha":1138,"x_min":114,"x_max":1232,"o":"m 1224 1157 q 1232 1090 1232 1122 q 1184 958 1232 1011 q 1051 892 1136 904 l 954 401 q 790 102 915 210 q 472 -6 664 -6 q 210 76 306 -6 q 114 303 114 157 q 125 401 114 346 l 239 972 l 372 972 l 258 401 q 250 325 250 360 q 313 170 250 225 q 486 115 375 115 q 705 191 617 115 q 821 401 793 267 l 935 972 l 1017 972 q 1097 998 1069 972 q 1125 1067 1125 1024 q 1117 1118 1125 1092 l 1224 1157 m 615 1253 l 764 1072 l 653 1058 l 482 1194 l 615 1253 z "},"Ử":{"ha":1138,"x_min":114,"x_max":1232,"o":"m 1224 1157 q 1232 1090 1232 1122 q 1184 958 1232 1011 q 1051 892 1136 904 l 954 401 q 790 102 915 210 q 472 -6 664 -6 q 210 76 306 -6 q 114 303 114 157 q 125 401 114 346 l 239 972 l 372 972 l 258 401 q 250 325 250 360 q 313 170 250 225 q 486 115 375 115 q 705 191 617 115 q 821 401 793 267 l 935 972 l 1017 972 q 1097 998 1069 972 q 1125 1067 1125 1024 q 1117 1118 1125 1092 l 1224 1157 m 715 1314 q 797 1290 765 1314 q 828 1222 828 1265 q 790 1129 828 1179 q 693 1035 751 1079 l 626 1068 q 688 1131 665 1097 q 711 1188 711 1165 q 700 1213 711 1203 q 671 1224 689 1224 q 614 1206 646 1224 l 585 1275 q 715 1314 650 1314 z "},"Ữ":{"ha":1138,"x_min":114,"x_max":1232,"o":"m 1224 1157 q 1232 1090 1232 1122 q 1184 958 1232 1011 q 1051 892 1136 904 l 954 401 q 790 102 915 210 q 472 -6 664 -6 q 210 76 306 -6 q 114 303 114 157 q 125 401 114 346 l 239 972 l 372 972 l 258 401 q 250 325 250 360 q 313 170 250 225 q 486 115 375 115 q 705 191 617 115 q 821 401 793 267 l 935 972 l 1017 972 q 1097 998 1069 972 q 1125 1067 1125 1024 q 1117 1118 1125 1092 l 1224 1157 m 917 1226 q 867 1104 903 1151 q 772 1057 832 1057 q 720 1068 743 1057 q 667 1101 697 1079 q 631 1124 644 1117 q 606 1131 618 1131 q 547 1063 560 1131 l 457 1063 q 506 1184 471 1136 q 600 1232 542 1232 q 652 1221 629 1232 q 707 1189 675 1210 q 742 1167 729 1174 q 768 1160 756 1160 q 808 1178 793 1160 q 826 1226 822 1196 l 917 1226 z "},"Ű":{"ha":1064,"x_min":114,"x_max":1068,"o":"m 954 401 q 790 102 915 210 q 472 -6 664 -6 q 210 76 306 -6 q 114 303 114 157 q 125 401 114 346 l 239 972 l 372 972 l 258 401 q 250 325 250 360 q 313 170 250 225 q 486 115 375 115 q 705 191 617 115 q 821 401 793 267 l 935 972 l 1068 972 l 954 401 m 614 1261 l 715 1208 l 583 1058 l 489 1071 l 614 1261 m 828 1261 l 929 1208 l 799 1058 l 704 1071 l 828 1261 z "},"Ȗ":{"ha":1064,"x_min":114,"x_max":1068,"o":"m 954 401 q 790 102 915 210 q 472 -6 664 -6 q 210 76 306 -6 q 114 303 114 157 q 125 401 114 346 l 239 972 l 372 972 l 258 401 q 250 325 250 360 q 313 170 250 225 q 486 115 375 115 q 705 191 617 115 q 821 401 793 267 l 935 972 l 1068 972 l 954 401 m 765 1064 q 767 1082 767 1069 q 746 1139 767 1117 q 690 1161 725 1161 q 619 1133 651 1161 q 576 1064 588 1106 l 486 1064 q 566 1199 504 1147 q 707 1250 628 1250 q 817 1210 776 1250 q 858 1101 858 1169 q 856 1064 858 1089 l 765 1064 z "},"Ū":{"ha":1064,"x_min":114,"x_max":1068,"o":"m 954 401 q 790 102 915 210 q 472 -6 664 -6 q 210 76 306 -6 q 114 303 114 157 q 125 401 114 346 l 239 972 l 372 972 l 258 401 q 250 325 250 360 q 313 170 250 225 q 486 115 375 115 q 705 191 617 115 q 821 401 793 267 l 935 972 l 1068 972 l 954 401 m 479 1157 l 896 1157 l 879 1071 l 463 1071 l 479 1157 z "},"Ṻ":{"ha":1064,"x_min":114,"x_max":1068,"o":"m 954 401 q 790 102 915 210 q 472 -6 664 -6 q 210 76 306 -6 q 114 303 114 157 q 125 401 114 346 l 239 972 l 372 972 l 258 401 q 250 325 250 360 q 313 170 250 225 q 486 115 375 115 q 705 191 617 115 q 821 401 793 267 l 935 972 l 1068 972 l 954 401 z "},"Ų":{"ha":1064,"x_min":114,"x_max":1068,"o":"m 1068 972 l 954 401 q 874 198 931 285 q 732 61 817 111 q 611 -56 660 7 q 563 -164 563 -119 q 572 -191 563 -181 q 599 -201 582 -201 q 654 -187 626 -201 l 671 -274 q 551 -300 611 -300 q 467 -272 497 -300 q 438 -192 438 -243 q 543 -1 438 -99 q 472 -6 510 -6 q 210 76 306 -6 q 114 303 114 157 q 125 401 114 346 l 239 972 l 372 972 l 258 401 q 250 325 250 360 q 313 170 250 225 q 486 115 375 115 q 705 191 617 115 q 821 401 793 267 l 935 972 l 1068 972 z "},"Ů":{"ha":1064,"x_min":114,"x_max":1068,"o":"m 954 401 q 790 102 915 210 q 472 -6 664 -6 q 210 76 306 -6 q 114 303 114 157 q 125 401 114 346 l 239 972 l 372 972 l 258 401 q 250 325 250 360 q 313 170 250 225 q 486 115 375 115 q 705 191 617 115 q 821 401 793 267 l 935 972 l 1068 972 l 954 401 m 708 1332 q 802 1294 765 1332 q 839 1201 839 1257 q 816 1121 839 1158 q 755 1061 793 1083 q 674 1039 717 1039 q 580 1076 617 1039 q 543 1167 543 1113 q 566 1248 543 1210 q 627 1309 589 1286 q 708 1332 665 1332 m 700 1258 q 641 1233 667 1258 q 615 1176 615 1208 q 634 1131 615 1149 q 682 1113 653 1113 q 742 1137 715 1113 q 768 1193 768 1161 q 749 1240 768 1221 q 700 1258 729 1258 z "},"Ũ":{"ha":1064,"x_min":114,"x_max":1068,"o":"m 954 401 q 790 102 915 210 q 472 -6 664 -6 q 210 76 306 -6 q 114 303 114 157 q 125 401 114 346 l 239 972 l 372 972 l 258 401 q 250 325 250 360 q 313 170 250 225 q 486 115 375 115 q 705 191 617 115 q 821 401 793 267 l 935 972 l 1068 972 l 954 401 m 915 1226 q 866 1104 901 1151 q 771 1057 831 1057 q 719 1068 742 1057 q 665 1101 696 1079 q 630 1124 643 1117 q 604 1131 617 1131 q 546 1063 558 1131 l 456 1063 q 505 1184 469 1136 q 599 1232 540 1232 q 651 1221 628 1232 q 706 1189 674 1210 q 741 1167 728 1174 q 767 1160 754 1160 q 806 1178 792 1160 q 825 1226 821 1196 l 915 1226 z "},"Ṹ":{"ha":1064,"x_min":114,"x_max":1068,"o":"m 954 401 q 790 102 915 210 q 472 -6 664 -6 q 210 76 306 -6 q 114 303 114 157 q 125 401 114 346 l 239 972 l 372 972 l 258 401 q 250 325 250 360 q 313 170 250 225 q 486 115 375 115 q 705 191 617 115 q 821 401 793 267 l 935 972 l 1068 972 l 954 401 m 946 1208 q 899 1101 933 1142 q 807 1061 864 1061 q 753 1071 778 1061 q 697 1100 729 1081 q 660 1121 675 1114 q 631 1128 646 1128 q 571 1065 582 1128 l 494 1065 q 542 1173 507 1132 q 633 1214 576 1214 q 687 1204 664 1214 q 743 1175 710 1194 q 780 1154 765 1161 q 808 1147 794 1147 q 869 1208 858 1147 l 946 1208 m 828 1439 l 939 1364 l 744 1260 l 647 1290 l 828 1439 z "},"V":{"ha":939,"x_min":128,"x_max":1053,"o":"m 913 972 l 1053 972 l 497 0 l 358 0 l 128 972 l 272 972 l 454 144 l 913 972 z "},"W":{"ha":1424,"x_min":128,"x_max":1553,"o":"m 1414 972 l 1553 972 l 1067 0 l 928 0 l 814 801 l 428 0 l 292 0 l 128 972 l 271 972 l 388 146 l 776 971 l 908 972 l 1025 146 l 1414 972 z "},"Ẃ":{"ha":1424,"x_min":128,"x_max":1553,"o":"m 1414 972 l 1553 972 l 1067 0 l 928 0 l 814 801 l 428 0 l 292 0 l 128 972 l 271 972 l 388 146 l 776 971 l 908 972 l 1025 146 l 1414 972 m 904 1253 l 1038 1194 l 867 1058 l 756 1072 l 904 1253 z "},"Ŵ":{"ha":1424,"x_min":128,"x_max":1553,"o":"m 1414 972 l 1553 972 l 1067 0 l 928 0 l 814 801 l 428 0 l 292 0 l 128 972 l 271 972 l 388 146 l 776 971 l 908 972 l 1025 146 l 1414 972 m 1040 1065 l 911 1065 l 844 1158 l 742 1065 l 613 1065 l 794 1250 l 929 1250 l 1040 1065 z "},"Ẅ":{"ha":1424,"x_min":128,"x_max":1553,"o":"m 1414 972 l 1553 972 l 1067 0 l 928 0 l 814 801 l 428 0 l 292 0 l 128 972 l 271 972 l 388 146 l 776 971 l 908 972 l 1025 146 l 1414 972 m 736 1211 q 779 1193 763 1211 q 796 1147 796 1175 q 769 1085 796 1113 q 707 1058 742 1058 q 663 1076 681 1058 q 646 1122 646 1094 q 672 1185 646 1160 q 736 1211 699 1211 m 975 1211 q 1017 1194 1001 1211 q 1033 1147 1033 1176 q 1007 1085 1033 1113 q 946 1058 981 1058 q 902 1076 919 1058 q 885 1122 885 1094 q 911 1185 885 1160 q 975 1211 938 1211 z "},"Ẁ":{"ha":1424,"x_min":128,"x_max":1553,"o":"m 1414 972 l 1553 972 l 1067 0 l 928 0 l 814 801 l 428 0 l 292 0 l 128 972 l 271 972 l 388 146 l 776 971 l 908 972 l 1025 146 l 1414 972 m 771 1253 l 919 1072 l 808 1058 l 638 1194 l 771 1253 z "},"X":{"ha":950,"x_min":-36,"x_max":974,"o":"m 974 972 l 567 506 l 840 0 l 681 0 l 465 393 l 119 0 l -36 0 l 400 500 l 147 972 l 304 972 l 499 610 l 815 972 l 974 972 z "},"Y":{"ha":875,"x_min":125,"x_max":992,"o":"m 992 972 l 524 336 l 469 0 l 335 0 l 390 336 l 125 972 l 263 972 l 478 474 l 856 972 l 992 972 z "},"Ý":{"ha":875,"x_min":125,"x_max":992,"o":"m 992 972 l 524 336 l 469 0 l 335 0 l 390 336 l 125 972 l 263 972 l 478 474 l 856 972 l 992 972 m 656 1253 l 789 1194 l 618 1058 l 507 1072 l 656 1253 z "},"Ŷ":{"ha":875,"x_min":125,"x_max":992,"o":"m 992 972 l 524 336 l 469 0 l 335 0 l 390 336 l 125 972 l 263 972 l 478 474 l 856 972 l 992 972 m 792 1065 l 663 1065 l 596 1158 l 493 1065 l 364 1065 l 546 1250 l 681 1250 l 792 1065 z "},"Ÿ":{"ha":875,"x_min":125,"x_max":992,"o":"m 992 972 l 524 336 l 469 0 l 335 0 l 390 336 l 125 972 l 263 972 l 478 474 l 856 972 l 992 972 m 488 1211 q 531 1193 514 1211 q 547 1147 547 1175 q 520 1085 547 1113 q 458 1058 493 1058 q 415 1076 432 1058 q 397 1122 397 1094 q 424 1185 397 1160 q 488 1211 450 1211 m 726 1211 q 769 1194 753 1211 q 785 1147 785 1176 q 758 1085 785 1113 q 697 1058 732 1058 q 653 1076 671 1058 q 636 1122 636 1094 q 663 1185 636 1160 q 726 1211 689 1211 z "},"Ẏ":{"ha":875,"x_min":125,"x_max":992,"o":"m 992 972 l 524 336 l 469 0 l 335 0 l 390 336 l 125 972 l 263 972 l 478 474 l 856 972 l 992 972 m 608 1225 q 657 1206 639 1225 q 675 1157 675 1188 q 645 1088 675 1117 q 576 1058 615 1058 q 529 1078 547 1058 q 511 1128 511 1099 q 540 1197 511 1168 q 608 1225 569 1225 z "},"Ỵ":{"ha":875,"x_min":125,"x_max":992,"o":"m 992 972 l 524 336 l 469 0 l 335 0 l 390 336 l 125 972 l 263 972 l 478 474 l 856 972 l 992 972 m 386 -103 q 435 -122 417 -103 q 453 -171 453 -140 q 423 -240 453 -211 q 354 -269 393 -269 q 307 -249 325 -269 q 289 -200 289 -229 q 318 -131 289 -160 q 386 -103 347 -103 z "},"Ỳ":{"ha":875,"x_min":125,"x_max":992,"o":"m 992 972 l 524 336 l 469 0 l 335 0 l 390 336 l 125 972 l 263 972 l 478 474 l 856 972 l 992 972 m 522 1253 l 671 1072 l 560 1058 l 389 1194 l 522 1253 z "},"Ỷ":{"ha":875,"x_min":125,"x_max":992,"o":"m 992 972 l 524 336 l 469 0 l 335 0 l 390 336 l 125 972 l 263 972 l 478 474 l 856 972 l 992 972 m 621 1314 q 702 1290 671 1314 q 733 1222 733 1265 q 695 1129 733 1179 q 599 1035 657 1079 l 532 1068 q 594 1131 571 1097 q 617 1188 617 1165 q 606 1213 617 1203 q 576 1224 594 1224 q 519 1206 551 1224 l 490 1275 q 621 1314 556 1314 z "},"Ȳ":{"ha":875,"x_min":125,"x_max":992,"o":"m 992 972 l 524 336 l 469 0 l 335 0 l 390 336 l 125 972 l 263 972 l 478 474 l 856 972 l 992 972 m 386 1157 l 803 1157 l 786 1071 l 369 1071 l 386 1157 z "},"Ỹ":{"ha":875,"x_min":125,"x_max":992,"o":"m 992 972 l 524 336 l 469 0 l 335 0 l 390 336 l 125 972 l 263 972 l 478 474 l 856 972 l 992 972 m 822 1226 q 773 1104 808 1151 q 678 1057 738 1057 q 626 1068 649 1057 q 572 1101 603 1079 q 537 1124 550 1117 q 511 1131 524 1131 q 453 1063 465 1131 l 363 1063 q 412 1184 376 1136 q 506 1232 447 1232 q 558 1221 535 1232 q 613 1189 581 1210 q 648 1167 635 1174 q 674 1160 661 1160 q 713 1178 699 1160 q 732 1226 728 1196 l 822 1226 z "},"Z":{"ha":936,"x_min":-1,"x_max":960,"o":"m 960 972 l 944 874 l 200 122 l 824 122 l 806 0 l -1 0 l 14 99 l 760 850 l 158 850 l 178 972 l 960 972 z "},"Ź":{"ha":936,"x_min":-1,"x_max":960,"o":"m 960 972 l 944 874 l 200 122 l 824 122 l 806 0 l -1 0 l 14 99 l 760 850 l 158 850 l 178 972 l 960 972 m 668 1253 l 801 1194 l 631 1058 l 519 1072 l 668 1253 z "},"Ž":{"ha":936,"x_min":-1,"x_max":960,"o":"m 960 972 l 944 874 l 200 122 l 824 122 l 806 0 l -1 0 l 14 99 l 760 850 l 158 850 l 178 972 l 960 972 m 710 1249 l 839 1249 l 657 1064 l 522 1064 l 411 1249 l 540 1249 l 607 1156 l 710 1249 z "},"Ż":{"ha":936,"x_min":-1,"x_max":960,"o":"m 960 972 l 944 874 l 200 122 l 824 122 l 806 0 l -1 0 l 14 99 l 760 850 l 158 850 l 178 972 l 960 972 m 621 1225 q 669 1206 651 1225 q 688 1157 688 1188 q 658 1088 688 1117 q 589 1058 628 1058 q 542 1078 560 1058 q 524 1128 524 1099 q 553 1197 524 1168 q 621 1225 582 1225 z "},"Ẓ":{"ha":936,"x_min":-1,"x_max":960,"o":"m 960 972 l 944 874 l 200 122 l 824 122 l 806 0 l -1 0 l 14 99 l 760 850 l 158 850 l 178 972 l 960 972 m 408 -103 q 457 -122 439 -103 q 475 -171 475 -140 q 445 -240 475 -211 q 376 -269 415 -269 q 329 -249 347 -269 q 311 -200 311 -229 q 340 -131 311 -160 q 408 -103 369 -103 z "},"a":{"ha":942,"x_min":54,"x_max":889,"o":"m 364 -7 q 202 35 272 -7 q 93 151 132 76 q 54 322 54 225 q 106 535 54 439 q 250 685 158 631 q 453 740 342 740 q 626 693 556 740 q 724 560 696 646 l 760 735 l 889 735 l 743 0 l 614 0 l 639 119 q 517 26 588 60 q 364 -7 446 -7 m 407 101 q 547 141 483 101 q 649 249 611 181 q 686 399 686 317 q 626 564 686 501 q 468 626 565 626 q 326 586 390 626 q 223 478 261 546 q 185 329 185 410 q 247 165 185 228 q 407 101 308 101 z "},"á":{"ha":942,"x_min":54,"x_max":889,"o":"m 364 -7 q 202 35 272 -7 q 93 151 132 76 q 54 322 54 225 q 106 535 54 439 q 250 685 158 631 q 453 740 342 740 q 626 693 556 740 q 724 560 696 646 l 760 735 l 889 735 l 743 0 l 614 0 l 639 119 q 517 26 588 60 q 364 -7 446 -7 m 407 101 q 547 141 483 101 q 649 249 611 181 q 686 399 686 317 q 626 564 686 501 q 468 626 565 626 q 326 586 390 626 q 223 478 261 546 q 185 329 185 410 q 247 165 185 228 q 407 101 308 101 m 617 1044 l 750 986 l 579 850 l 468 864 l 617 1044 z "},"ă":{"ha":942,"x_min":54,"x_max":889,"o":"m 364 -7 q 202 35 272 -7 q 93 151 132 76 q 54 322 54 225 q 106 535 54 439 q 250 685 158 631 q 453 740 342 740 q 626 693 556 740 q 724 560 696 646 l 760 735 l 889 735 l 743 0 l 614 0 l 639 119 q 517 26 588 60 q 364 -7 446 -7 m 407 101 q 547 141 483 101 q 649 249 611 181 q 686 399 686 317 q 626 564 686 501 q 468 626 565 626 q 326 586 390 626 q 223 478 261 546 q 185 329 185 410 q 247 165 185 228 q 407 101 308 101 m 479 1033 q 478 1015 478 1028 q 499 958 478 981 q 554 936 519 936 q 625 964 593 936 q 668 1033 657 992 l 758 1033 q 678 899 740 950 q 538 847 617 847 q 427 888 468 847 q 386 996 386 928 q 389 1033 386 1008 l 479 1033 z "},"ắ":{"ha":942,"x_min":54,"x_max":889,"o":"m 364 -7 q 202 35 272 -7 q 93 151 132 76 q 54 322 54 225 q 106 535 54 439 q 250 685 158 631 q 453 740 342 740 q 626 693 556 740 q 724 560 696 646 l 760 735 l 889 735 l 743 0 l 614 0 l 639 119 q 517 26 588 60 q 364 -7 446 -7 m 407 101 q 547 141 483 101 q 649 249 611 181 q 686 399 686 317 q 626 564 686 501 q 468 626 565 626 q 326 586 390 626 q 223 478 261 546 q 185 329 185 410 q 247 165 185 228 q 407 101 308 101 m 475 1001 q 492 949 471 969 q 553 929 514 929 q 623 949 593 929 q 661 1001 653 969 l 754 1001 q 678 886 739 931 q 536 842 617 842 q 422 878 465 842 q 379 976 379 915 q 381 1001 379 993 l 475 1001 m 654 1199 l 765 1124 l 571 1019 l 474 1050 l 654 1199 z "},"ặ":{"ha":942,"x_min":54,"x_max":889,"o":"m 364 -7 q 202 35 272 -7 q 93 151 132 76 q 54 322 54 225 q 106 535 54 439 q 250 685 158 631 q 453 740 342 740 q 626 693 556 740 q 724 560 696 646 l 760 735 l 889 735 l 743 0 l 614 0 l 639 119 q 517 26 588 60 q 364 -7 446 -7 m 407 101 q 547 141 483 101 q 649 249 611 181 q 686 399 686 317 q 626 564 686 501 q 468 626 565 626 q 326 586 390 626 q 223 478 261 546 q 185 329 185 410 q 247 165 185 228 q 407 101 308 101 m 378 -103 q 426 -122 408 -103 q 444 -171 444 -140 q 415 -240 444 -211 q 346 -269 385 -269 q 299 -249 317 -269 q 281 -200 281 -229 q 310 -131 281 -160 q 378 -103 339 -103 m 461 1033 q 460 1015 460 1028 q 481 958 460 981 q 536 936 501 936 q 607 964 575 936 q 650 1033 639 992 l 740 1033 q 660 899 722 950 q 519 847 599 847 q 409 888 450 847 q 368 996 368 928 q 371 1033 368 1008 l 461 1033 z "},"ằ":{"ha":942,"x_min":54,"x_max":889,"o":"m 364 -7 q 202 35 272 -7 q 93 151 132 76 q 54 322 54 225 q 106 535 54 439 q 250 685 158 631 q 453 740 342 740 q 626 693 556 740 q 724 560 696 646 l 760 735 l 889 735 l 743 0 l 614 0 l 639 119 q 517 26 588 60 q 364 -7 446 -7 m 407 101 q 547 141 483 101 q 649 249 611 181 q 686 399 686 317 q 626 564 686 501 q 468 626 565 626 q 326 586 390 626 q 223 478 261 546 q 185 329 185 410 q 247 165 185 228 q 407 101 308 101 m 474 1001 q 491 949 469 969 q 551 929 513 929 q 622 949 592 929 q 660 1001 651 969 l 753 1001 q 676 886 738 931 q 535 842 615 842 q 421 878 464 842 q 378 976 378 915 q 379 1001 378 993 l 474 1001 m 482 1199 l 664 1050 l 565 1019 l 371 1124 l 482 1199 z "},"ẳ":{"ha":942,"x_min":54,"x_max":889,"o":"m 364 -7 q 202 35 272 -7 q 93 151 132 76 q 54 322 54 225 q 106 535 54 439 q 250 685 158 631 q 453 740 342 740 q 626 693 556 740 q 724 560 696 646 l 760 735 l 889 735 l 743 0 l 614 0 l 639 119 q 517 26 588 60 q 364 -7 446 -7 m 407 101 q 547 141 483 101 q 649 249 611 181 q 686 399 686 317 q 626 564 686 501 q 468 626 565 626 q 326 586 390 626 q 223 478 261 546 q 185 329 185 410 q 247 165 185 228 q 407 101 308 101 m 474 1001 q 491 949 469 969 q 551 929 513 929 q 622 949 592 929 q 660 1001 651 969 l 753 1001 q 676 886 738 931 q 535 842 615 842 q 421 878 464 842 q 378 976 378 915 q 379 1001 378 993 l 474 1001 m 603 1238 q 675 1217 649 1238 q 701 1161 701 1196 q 669 1088 701 1125 q 583 1017 638 1050 l 522 1044 q 574 1089 556 1067 q 593 1129 593 1111 q 584 1148 593 1140 q 560 1156 575 1156 q 510 1142 536 1156 l 482 1201 q 603 1238 542 1238 z "},"ẵ":{"ha":942,"x_min":54,"x_max":889,"o":"m 364 -7 q 202 35 272 -7 q 93 151 132 76 q 54 322 54 225 q 106 535 54 439 q 250 685 158 631 q 453 740 342 740 q 626 693 556 740 q 724 560 696 646 l 760 735 l 889 735 l 743 0 l 614 0 l 639 119 q 517 26 588 60 q 364 -7 446 -7 m 407 101 q 547 141 483 101 q 649 249 611 181 q 686 399 686 317 q 626 564 686 501 q 468 626 565 626 q 326 586 390 626 q 223 478 261 546 q 185 329 185 410 q 247 165 185 228 q 407 101 308 101 m 474 1001 q 491 949 469 969 q 551 929 513 929 q 622 949 592 929 q 660 1001 651 969 l 753 1001 q 676 886 738 931 q 535 842 615 842 q 421 878 464 842 q 378 976 378 915 q 379 1001 378 993 l 474 1001 m 819 1211 q 772 1104 807 1144 q 681 1064 738 1064 q 627 1074 651 1064 q 571 1103 603 1083 q 534 1124 549 1117 q 504 1131 519 1131 q 444 1068 456 1131 l 368 1068 q 415 1176 381 1135 q 507 1217 450 1217 q 560 1207 538 1217 q 617 1178 583 1197 q 653 1157 639 1164 q 682 1150 668 1150 q 743 1211 732 1150 l 819 1211 z "},"â":{"ha":942,"x_min":54,"x_max":889,"o":"m 364 -7 q 202 35 272 -7 q 93 151 132 76 q 54 322 54 225 q 106 535 54 439 q 250 685 158 631 q 453 740 342 740 q 626 693 556 740 q 724 560 696 646 l 760 735 l 889 735 l 743 0 l 614 0 l 639 119 q 517 26 588 60 q 364 -7 446 -7 m 407 101 q 547 141 483 101 q 649 249 611 181 q 686 399 686 317 q 626 564 686 501 q 468 626 565 626 q 326 586 390 626 q 223 478 261 546 q 185 329 185 410 q 247 165 185 228 q 407 101 308 101 m 753 857 l 624 857 l 557 950 l 454 857 l 325 857 l 507 1042 l 642 1042 l 753 857 z "},"ấ":{"ha":942,"x_min":54,"x_max":889,"o":"m 364 -7 q 202 35 272 -7 q 93 151 132 76 q 54 322 54 225 q 106 535 54 439 q 250 685 158 631 q 453 740 342 740 q 626 693 556 740 q 724 560 696 646 l 760 735 l 889 735 l 743 0 l 614 0 l 639 119 q 517 26 588 60 q 364 -7 446 -7 m 407 101 q 547 141 483 101 q 649 249 611 181 q 686 399 686 317 q 626 564 686 501 q 468 626 565 626 q 326 586 390 626 q 223 478 261 546 q 185 329 185 410 q 247 165 185 228 q 407 101 308 101 m 775 842 l 636 842 l 554 918 l 443 842 l 300 842 l 474 975 l 649 975 l 775 842 m 653 1196 l 764 1121 l 569 1017 l 472 1047 l 653 1196 z "},"ậ":{"ha":942,"x_min":54,"x_max":889,"o":"m 364 -7 q 202 35 272 -7 q 93 151 132 76 q 54 322 54 225 q 106 535 54 439 q 250 685 158 631 q 453 740 342 740 q 626 693 556 740 q 724 560 696 646 l 760 735 l 889 735 l 743 0 l 614 0 l 639 119 q 517 26 588 60 q 364 -7 446 -7 m 407 101 q 547 141 483 101 q 649 249 611 181 q 686 399 686 317 q 626 564 686 501 q 468 626 565 626 q 326 586 390 626 q 223 478 261 546 q 185 329 185 410 q 247 165 185 228 q 407 101 308 101 m 378 -103 q 426 -122 408 -103 q 444 -171 444 -140 q 415 -240 444 -211 q 346 -269 385 -269 q 299 -249 317 -269 q 281 -200 281 -229 q 310 -131 281 -160 q 378 -103 339 -103 m 735 857 l 606 857 l 539 950 l 436 857 l 307 857 l 489 1042 l 624 1042 l 735 857 z "},"ầ":{"ha":942,"x_min":54,"x_max":889,"o":"m 364 -7 q 202 35 272 -7 q 93 151 132 76 q 54 322 54 225 q 106 535 54 439 q 250 685 158 631 q 453 740 342 740 q 626 693 556 740 q 724 560 696 646 l 760 735 l 889 735 l 743 0 l 614 0 l 639 119 q 517 26 588 60 q 364 -7 446 -7 m 407 101 q 547 141 483 101 q 649 249 611 181 q 686 399 686 317 q 626 564 686 501 q 468 626 565 626 q 326 586 390 626 q 223 478 261 546 q 185 329 185 410 q 247 165 185 228 q 407 101 308 101 m 776 842 l 638 842 l 556 918 l 444 842 l 301 842 l 475 975 l 650 975 l 776 842 m 483 1196 l 665 1047 l 567 1017 l 372 1121 l 483 1196 z "},"ẩ":{"ha":942,"x_min":54,"x_max":889,"o":"m 364 -7 q 202 35 272 -7 q 93 151 132 76 q 54 322 54 225 q 106 535 54 439 q 250 685 158 631 q 453 740 342 740 q 626 693 556 740 q 724 560 696 646 l 760 735 l 889 735 l 743 0 l 614 0 l 639 119 q 517 26 588 60 q 364 -7 446 -7 m 407 101 q 547 141 483 101 q 649 249 611 181 q 686 399 686 317 q 626 564 686 501 q 468 626 565 626 q 326 586 390 626 q 223 478 261 546 q 185 329 185 410 q 247 165 185 228 q 407 101 308 101 m 776 842 l 638 842 l 556 918 l 444 842 l 301 842 l 475 975 l 650 975 l 776 842 m 604 1235 q 676 1214 650 1235 q 703 1158 703 1193 q 671 1085 703 1122 q 585 1014 639 1047 l 524 1042 q 576 1086 557 1064 q 594 1126 594 1108 q 585 1145 594 1138 q 561 1153 576 1153 q 511 1139 538 1153 l 483 1199 q 604 1235 543 1235 z "},"ẫ":{"ha":942,"x_min":54,"x_max":889,"o":"m 364 -7 q 202 35 272 -7 q 93 151 132 76 q 54 322 54 225 q 106 535 54 439 q 250 685 158 631 q 453 740 342 740 q 626 693 556 740 q 724 560 696 646 l 760 735 l 889 735 l 743 0 l 614 0 l 639 119 q 517 26 588 60 q 364 -7 446 -7 m 407 101 q 547 141 483 101 q 649 249 611 181 q 686 399 686 317 q 626 564 686 501 q 468 626 565 626 q 326 586 390 626 q 223 478 261 546 q 185 329 185 410 q 247 165 185 228 q 407 101 308 101 m 775 842 l 636 842 l 554 918 l 443 842 l 300 842 l 474 975 l 649 975 l 775 842 m 807 1176 q 760 1069 794 1110 q 668 1029 725 1029 q 615 1039 639 1029 q 558 1068 590 1049 q 522 1089 536 1082 q 492 1096 507 1096 q 432 1033 443 1096 l 356 1033 q 403 1141 368 1100 q 494 1182 438 1182 q 548 1172 525 1182 q 604 1143 571 1163 q 641 1122 626 1129 q 669 1115 656 1115 q 731 1176 719 1115 l 807 1176 z "},"ȁ":{"ha":942,"x_min":54,"x_max":889,"o":"m 364 -7 q 202 35 272 -7 q 93 151 132 76 q 54 322 54 225 q 106 535 54 439 q 250 685 158 631 q 453 740 342 740 q 626 693 556 740 q 724 560 696 646 l 760 735 l 889 735 l 743 0 l 614 0 l 639 119 q 517 26 588 60 q 364 -7 446 -7 m 407 101 q 547 141 483 101 q 649 249 611 181 q 686 399 686 317 q 626 564 686 501 q 468 626 565 626 q 326 586 390 626 q 223 478 261 546 q 185 329 185 410 q 247 165 185 228 q 407 101 308 101 m 417 1053 l 496 863 l 394 850 l 296 1000 l 417 1053 m 632 1053 l 710 863 l 610 850 l 510 1000 l 632 1053 z "},"ä":{"ha":942,"x_min":54,"x_max":889,"o":"m 364 -7 q 202 35 272 -7 q 93 151 132 76 q 54 322 54 225 q 106 535 54 439 q 250 685 158 631 q 453 740 342 740 q 626 693 556 740 q 724 560 696 646 l 760 735 l 889 735 l 743 0 l 614 0 l 639 119 q 517 26 588 60 q 364 -7 446 -7 m 407 101 q 547 141 483 101 q 649 249 611 181 q 686 399 686 317 q 626 564 686 501 q 468 626 565 626 q 326 586 390 626 q 223 478 261 546 q 185 329 185 410 q 247 165 185 228 q 407 101 308 101 m 453 1019 q 496 1001 479 1019 q 513 956 513 983 q 485 894 513 921 q 424 867 458 867 q 380 885 397 867 q 363 931 363 903 q 389 994 363 968 q 453 1019 415 1019 m 692 1019 q 734 1002 718 1019 q 750 956 750 985 q 724 894 750 921 q 663 867 697 867 q 619 885 636 867 q 601 931 601 903 q 628 994 601 968 q 692 1019 654 1019 z "},"ạ":{"ha":942,"x_min":54,"x_max":889,"o":"m 364 -7 q 202 35 272 -7 q 93 151 132 76 q 54 322 54 225 q 106 535 54 439 q 250 685 158 631 q 453 740 342 740 q 626 693 556 740 q 724 560 696 646 l 760 735 l 889 735 l 743 0 l 614 0 l 639 119 q 517 26 588 60 q 364 -7 446 -7 m 407 101 q 547 141 483 101 q 649 249 611 181 q 686 399 686 317 q 626 564 686 501 q 468 626 565 626 q 326 586 390 626 q 223 478 261 546 q 185 329 185 410 q 247 165 185 228 q 407 101 308 101 m 378 -103 q 426 -122 408 -103 q 444 -171 444 -140 q 415 -240 444 -211 q 346 -269 385 -269 q 299 -249 317 -269 q 281 -200 281 -229 q 310 -131 281 -160 q 378 -103 339 -103 z "},"à":{"ha":942,"x_min":54,"x_max":889,"o":"m 364 -7 q 202 35 272 -7 q 93 151 132 76 q 54 322 54 225 q 106 535 54 439 q 250 685 158 631 q 453 740 342 740 q 626 693 556 740 q 724 560 696 646 l 760 735 l 889 735 l 743 0 l 614 0 l 639 119 q 517 26 588 60 q 364 -7 446 -7 m 407 101 q 547 141 483 101 q 649 249 611 181 q 686 399 686 317 q 626 564 686 501 q 468 626 565 626 q 326 586 390 626 q 223 478 261 546 q 185 329 185 410 q 247 165 185 228 q 407 101 308 101 m 485 1044 l 633 864 l 522 850 l 351 986 l 485 1044 z "},"ả":{"ha":942,"x_min":54,"x_max":889,"o":"m 364 -7 q 202 35 272 -7 q 93 151 132 76 q 54 322 54 225 q 106 535 54 439 q 250 685 158 631 q 453 740 342 740 q 626 693 556 740 q 724 560 696 646 l 760 735 l 889 735 l 743 0 l 614 0 l 639 119 q 517 26 588 60 q 364 -7 446 -7 m 407 101 q 547 141 483 101 q 649 249 611 181 q 686 399 686 317 q 626 564 686 501 q 468 626 565 626 q 326 586 390 626 q 223 478 261 546 q 185 329 185 410 q 247 165 185 228 q 407 101 308 101 m 579 1082 q 660 1058 629 1082 q 690 990 690 1033 q 653 897 690 947 q 557 803 615 846 l 490 836 q 552 899 529 865 q 575 956 575 933 q 564 981 575 971 q 535 992 553 992 q 478 974 508 992 l 447 1043 q 579 1082 513 1082 z "},"ȃ":{"ha":942,"x_min":54,"x_max":889,"o":"m 364 -7 q 202 35 272 -7 q 93 151 132 76 q 54 322 54 225 q 106 535 54 439 q 250 685 158 631 q 453 740 342 740 q 626 693 556 740 q 724 560 696 646 l 760 735 l 889 735 l 743 0 l 614 0 l 639 119 q 517 26 588 60 q 364 -7 446 -7 m 407 101 q 547 141 483 101 q 649 249 611 181 q 686 399 686 317 q 626 564 686 501 q 468 626 565 626 q 326 586 390 626 q 223 478 261 546 q 185 329 185 410 q 247 165 185 228 q 407 101 308 101 m 632 849 q 633 867 633 854 q 613 924 633 901 q 557 946 592 946 q 486 918 518 946 q 443 849 454 890 l 353 849 q 433 983 371 932 q 574 1035 494 1035 q 684 994 643 1035 q 725 886 725 954 q 722 849 725 874 l 632 849 z "},"ā":{"ha":942,"x_min":54,"x_max":889,"o":"m 364 -7 q 202 35 272 -7 q 93 151 132 76 q 54 322 54 225 q 106 535 54 439 q 250 685 158 631 q 453 740 342 740 q 626 693 556 740 q 724 560 696 646 l 760 735 l 889 735 l 743 0 l 614 0 l 639 119 q 517 26 588 60 q 364 -7 446 -7 m 407 101 q 547 141 483 101 q 649 249 611 181 q 686 399 686 317 q 626 564 686 501 q 468 626 565 626 q 326 586 390 626 q 223 478 261 546 q 185 329 185 410 q 247 165 185 228 q 407 101 308 101 m 364 986 l 761 986 l 746 900 l 347 900 l 364 986 z "},"ą":{"ha":942,"x_min":54,"x_max":889,"o":"m 743 0 q 616 -95 653 -58 q 579 -167 579 -132 q 589 -192 579 -183 q 615 -201 599 -201 q 672 -187 644 -201 l 688 -274 q 569 -300 629 -300 q 484 -275 515 -300 q 453 -203 453 -250 q 617 15 453 -89 l 639 119 q 517 26 588 60 q 364 -7 446 -7 q 202 35 272 -7 q 93 151 132 76 q 54 322 54 225 q 106 535 54 439 q 250 685 158 631 q 453 740 342 740 q 626 693 556 740 q 724 560 696 646 l 760 735 l 889 735 l 743 0 m 407 101 q 547 141 483 101 q 649 249 611 181 q 686 399 686 317 q 626 564 686 501 q 468 626 565 626 q 326 586 390 626 q 223 478 261 546 q 185 329 185 410 q 247 165 185 228 q 407 101 308 101 z "},"å":{"ha":942,"x_min":54,"x_max":889,"o":"m 364 -7 q 202 35 272 -7 q 93 151 132 76 q 54 322 54 225 q 106 535 54 439 q 250 685 158 631 q 453 740 342 740 q 626 693 556 740 q 724 560 696 646 l 760 735 l 889 735 l 743 0 l 614 0 l 639 119 q 517 26 588 60 q 364 -7 446 -7 m 407 101 q 547 141 483 101 q 649 249 611 181 q 686 399 686 317 q 626 564 686 501 q 468 626 565 626 q 326 586 390 626 q 223 478 261 546 q 185 329 185 410 q 247 165 185 228 q 407 101 308 101 m 571 1094 q 665 1057 628 1094 q 701 964 701 1019 q 678 883 701 921 q 617 824 656 846 q 536 801 579 801 q 442 838 479 801 q 406 929 406 875 q 428 1010 406 972 q 490 1072 451 1049 q 571 1094 528 1094 m 563 1021 q 503 996 529 1021 q 478 939 478 971 q 497 893 478 911 q 544 875 515 875 q 604 899 578 875 q 631 956 631 924 q 611 1002 631 983 q 563 1021 592 1021 z "},"ǻ":{"ha":942,"x_min":54,"x_max":889,"o":"m 364 -7 q 202 35 272 -7 q 93 151 132 76 q 54 322 54 225 q 106 535 54 439 q 250 685 158 631 q 453 740 342 740 q 626 693 556 740 q 724 560 696 646 l 760 735 l 889 735 l 743 0 l 614 0 l 639 119 q 517 26 588 60 q 364 -7 446 -7 m 407 101 q 547 141 483 101 q 649 249 611 181 q 686 399 686 317 q 626 564 686 501 q 468 626 565 626 q 326 586 390 626 q 223 478 261 546 q 185 329 185 410 q 247 165 185 228 q 407 101 308 101 m 560 1096 q 653 1058 617 1096 q 690 965 690 1021 q 667 885 690 922 q 606 825 644 847 q 525 803 568 803 q 431 840 468 803 q 394 931 394 876 q 417 1012 394 974 q 478 1073 440 1050 q 560 1096 517 1096 m 551 1022 q 492 997 518 1022 q 467 940 467 972 q 485 894 467 913 q 533 876 504 876 q 593 901 567 876 q 619 957 619 925 q 600 1003 619 985 q 551 1022 581 1022 m 663 1313 l 774 1238 l 579 1133 l 482 1164 l 663 1313 z "},"ã":{"ha":942,"x_min":54,"x_max":889,"o":"m 364 -7 q 202 35 272 -7 q 93 151 132 76 q 54 322 54 225 q 106 535 54 439 q 250 685 158 631 q 453 740 342 740 q 626 693 556 740 q 724 560 696 646 l 760 735 l 889 735 l 743 0 l 614 0 l 639 119 q 517 26 588 60 q 364 -7 446 -7 m 407 101 q 547 141 483 101 q 649 249 611 181 q 686 399 686 317 q 626 564 686 501 q 468 626 565 626 q 326 586 390 626 q 223 478 261 546 q 185 329 185 410 q 247 165 185 228 q 407 101 308 101 m 783 1014 q 734 892 769 939 q 639 844 699 844 q 587 856 610 844 q 533 889 564 867 q 498 911 511 904 q 472 918 485 918 q 414 850 426 918 l 324 850 q 373 972 338 924 q 467 1019 408 1019 q 519 1008 496 1019 q 574 976 542 997 q 609 954 596 961 q 635 947 622 947 q 674 965 660 947 q 693 1014 689 983 l 783 1014 z "},"æ":{"ha":1340,"x_min":31,"x_max":1289,"o":"m 269 -6 q 96 50 161 -6 q 31 197 31 106 q 108 359 31 301 q 325 417 185 417 l 561 417 l 567 472 q 528 592 572 551 q 394 632 485 632 q 139 551 276 632 l 110 647 q 422 739 272 739 q 581 705 517 739 q 671 610 646 671 q 797 706 724 672 q 957 739 871 739 q 1132 697 1057 739 q 1248 578 1207 656 q 1289 401 1289 501 q 1285 342 1289 374 l 686 342 l 685 314 q 709 209 679 258 q 794 131 739 160 q 914 101 849 101 q 1038 125 978 101 q 1142 193 1097 149 l 1210 117 q 1072 26 1150 57 q 903 -4 993 -4 q 715 45 794 -4 q 599 181 635 94 q 269 -6 496 -6 m 1161 415 q 1110 581 1167 519 q 957 642 1054 642 q 785 579 858 642 q 693 415 713 517 l 1161 415 m 297 88 q 546 240 463 88 l 556 342 l 346 342 q 206 308 257 343 q 154 207 154 272 q 192 120 154 153 q 297 88 231 88 z "},"ǽ":{"ha":1340,"x_min":31,"x_max":1289,"o":"m 269 -6 q 96 50 161 -6 q 31 197 31 106 q 108 359 31 301 q 325 417 185 417 l 561 417 l 567 472 q 528 592 572 551 q 394 632 485 632 q 139 551 276 632 l 110 647 q 422 739 272 739 q 581 705 517 739 q 671 610 646 671 q 797 706 724 672 q 957 739 871 739 q 1132 697 1057 739 q 1248 578 1207 656 q 1289 401 1289 501 q 1285 342 1289 374 l 686 342 l 685 314 q 709 209 679 258 q 794 131 739 160 q 914 101 849 101 q 1038 125 978 101 q 1142 193 1097 149 l 1210 117 q 1072 26 1150 57 q 903 -4 993 -4 q 715 45 794 -4 q 599 181 635 94 q 269 -6 496 -6 m 1161 415 q 1110 581 1167 519 q 957 642 1054 642 q 785 579 858 642 q 693 415 713 517 l 1161 415 m 297 88 q 546 240 463 88 l 556 342 l 346 342 q 206 308 257 343 q 154 207 154 272 q 192 120 154 153 q 297 88 231 88 m 790 1044 l 924 986 l 753 850 l 642 864 l 790 1044 z "},"b":{"ha":950,"x_min":60,"x_max":894,"o":"m 585 739 q 747 697 676 739 q 856 581 817 656 q 894 410 894 507 q 842 197 894 293 q 699 47 790 101 q 496 -8 607 -8 q 323 39 393 -8 q 225 172 253 86 l 189 0 l 60 0 l 265 1031 l 394 1031 l 310 613 q 432 706 361 672 q 585 739 503 739 m 542 631 q 401 591 465 631 q 300 483 338 551 q 263 333 263 415 q 323 168 263 231 q 481 106 383 106 q 623 146 558 106 q 726 254 688 186 q 764 403 764 322 q 702 567 764 504 q 542 631 640 631 z "},"c":{"ha":808,"x_min":56,"x_max":742,"o":"m 386 -4 q 213 38 288 -4 q 97 156 138 81 q 56 329 56 232 q 108 541 56 447 q 254 687 161 635 q 463 739 347 739 q 625 710 554 739 q 742 628 696 682 l 663 539 q 456 625 583 625 q 317 588 379 625 q 220 486 256 551 q 185 339 185 421 q 246 172 185 236 q 404 108 307 108 q 535 131 475 108 q 636 200 594 154 l 701 124 q 565 29 644 63 q 386 -4 485 -4 z "},"ć":{"ha":808,"x_min":56,"x_max":742,"o":"m 386 -4 q 213 38 288 -4 q 97 156 138 81 q 56 329 56 232 q 108 541 56 447 q 254 687 161 635 q 463 739 347 739 q 625 710 554 739 q 742 628 696 682 l 663 539 q 456 625 583 625 q 317 588 379 625 q 220 486 256 551 q 185 339 185 421 q 246 172 185 236 q 404 108 307 108 q 535 131 475 108 q 636 200 594 154 l 701 124 q 565 29 644 63 q 386 -4 485 -4 m 575 1044 l 708 986 l 538 850 l 426 864 l 575 1044 z "},"č":{"ha":808,"x_min":56,"x_max":747,"o":"m 386 -4 q 213 38 288 -4 q 97 156 138 81 q 56 329 56 232 q 108 541 56 447 q 254 687 161 635 q 463 739 347 739 q 625 710 554 739 q 742 628 696 682 l 663 539 q 456 625 583 625 q 317 588 379 625 q 220 486 256 551 q 185 339 185 421 q 246 172 185 236 q 404 108 307 108 q 535 131 475 108 q 636 200 594 154 l 701 124 q 565 29 644 63 q 386 -4 485 -4 m 618 1040 l 747 1040 l 565 856 l 431 856 l 319 1040 l 449 1040 l 515 947 l 618 1040 z "},"ç":{"ha":808,"x_min":56,"x_max":742,"o":"m 404 108 q 535 131 475 108 q 636 200 594 154 l 701 124 q 401 -4 590 1 l 364 -71 q 434 -103 411 -78 q 457 -162 457 -128 q 405 -264 457 -226 q 276 -301 353 -301 q 151 -272 207 -301 l 197 -186 q 275 -206 233 -206 q 328 -191 307 -206 q 349 -158 349 -176 q 332 -133 349 -143 q 285 -122 315 -122 l 243 -122 l 306 4 q 123 115 190 28 q 56 329 56 203 q 108 541 56 447 q 254 687 161 635 q 463 739 347 739 q 625 710 554 739 q 742 628 696 682 l 663 539 q 456 625 583 625 q 317 588 379 625 q 220 486 256 551 q 185 339 185 421 q 246 172 185 236 q 404 108 307 108 z "},"ḉ":{"ha":808,"x_min":56,"x_max":742,"o":"m 710 986 l 539 850 l 428 864 l 576 1044 l 710 986 m 404 108 q 535 131 475 108 q 636 200 594 154 l 701 124 q 401 -4 590 1 l 364 -71 q 434 -103 411 -78 q 457 -162 457 -128 q 405 -264 457 -226 q 276 -301 353 -301 q 151 -272 207 -301 l 197 -186 q 275 -206 233 -206 q 328 -191 307 -206 q 349 -158 349 -176 q 332 -133 349 -143 q 285 -122 315 -122 l 243 -122 l 306 4 q 123 115 190 28 q 56 329 56 203 q 108 541 56 447 q 254 687 161 635 q 463 739 347 739 q 625 710 554 739 q 742 628 696 682 l 663 539 q 456 625 583 625 q 317 588 379 625 q 220 486 256 551 q 185 339 185 421 q 246 172 185 236 q 404 108 307 108 z "},"ĉ":{"ha":808,"x_min":56,"x_max":742,"o":"m 386 -4 q 213 38 288 -4 q 97 156 138 81 q 56 329 56 232 q 108 541 56 447 q 254 687 161 635 q 463 739 347 739 q 625 710 554 739 q 742 628 696 682 l 663 539 q 456 625 583 625 q 317 588 379 625 q 220 486 256 551 q 185 339 185 421 q 246 172 185 236 q 404 108 307 108 q 535 131 475 108 q 636 200 594 154 l 701 124 q 565 29 644 63 q 386 -4 485 -4 m 711 857 l 582 857 l 515 950 l 413 857 l 283 857 l 465 1042 l 600 1042 l 711 857 z "},"ċ":{"ha":808,"x_min":56,"x_max":742,"o":"m 386 -4 q 213 38 288 -4 q 97 156 138 81 q 56 329 56 232 q 108 541 56 447 q 254 687 161 635 q 463 739 347 739 q 625 710 554 739 q 742 628 696 682 l 663 539 q 456 625 583 625 q 317 588 379 625 q 220 486 256 551 q 185 339 185 421 q 246 172 185 236 q 404 108 307 108 q 535 131 475 108 q 636 200 594 154 l 701 124 q 565 29 644 63 q 386 -4 485 -4 m 531 1028 q 579 1009 561 1028 q 597 960 597 990 q 567 890 597 919 q 499 861 538 861 q 451 881 469 861 q 433 931 433 901 q 463 999 433 971 q 531 1028 492 1028 z "},"d":{"ha":949,"x_min":54,"x_max":949,"o":"m 364 -7 q 202 35 272 -7 q 93 151 132 76 q 54 322 54 225 q 106 535 54 439 q 250 685 158 631 q 453 740 342 740 q 626 693 556 740 q 724 560 696 646 l 819 1031 l 949 1031 l 743 0 l 614 0 l 639 119 q 517 26 588 60 q 364 -7 446 -7 m 407 101 q 547 141 483 101 q 649 249 611 181 q 686 399 686 317 q 626 564 686 501 q 468 626 565 626 q 326 586 390 626 q 223 478 261 546 q 185 329 185 410 q 247 165 185 228 q 407 101 308 101 z "},"ð":{"ha":817,"x_min":47,"x_max":778,"o":"m 596 843 q 719 639 676 749 q 763 417 763 529 q 713 195 763 290 q 574 48 664 100 q 365 -4 485 -4 q 133 72 219 -4 q 47 276 47 147 q 90 453 47 376 q 211 573 133 531 q 389 615 289 615 q 547 578 476 615 q 644 481 618 540 q 592 642 632 561 q 488 796 551 724 l 226 686 l 200 756 l 432 854 q 264 979 354 928 l 356 1038 q 542 901 460 979 l 749 989 l 778 919 l 596 843 m 372 111 q 500 140 444 111 q 587 222 556 169 q 618 342 618 275 q 563 471 618 424 q 415 518 508 518 q 290 488 346 518 q 204 406 235 458 q 174 286 174 353 q 227 158 174 206 q 372 111 281 111 z "},"ď":{"ha":999,"x_min":54,"x_max":1169,"o":"m 364 -7 q 202 35 272 -7 q 93 151 132 76 q 54 322 54 225 q 106 535 54 439 q 250 685 158 631 q 453 740 342 740 q 626 693 556 740 q 724 560 696 646 l 819 1031 l 949 1031 l 743 0 l 614 0 l 639 119 q 517 26 588 60 q 364 -7 446 -7 m 407 101 q 547 141 483 101 q 649 249 611 181 q 686 399 686 317 q 626 564 686 501 q 468 626 565 626 q 326 586 390 626 q 223 478 261 546 q 185 329 185 410 q 247 165 185 228 q 407 101 308 101 m 1046 1031 l 1169 1031 l 1083 757 l 993 757 l 1046 1031 z "},"đ":{"ha":940,"x_min":54,"x_max":1025,"o":"m 1010 826 l 908 826 l 744 0 l 615 0 l 640 115 q 517 25 588 57 q 365 -7 447 -7 q 203 33 274 -7 q 93 147 132 74 q 54 315 54 221 q 106 520 54 428 q 249 665 158 613 q 451 718 340 718 q 624 674 554 718 q 722 546 694 629 l 779 826 l 482 826 l 497 907 l 794 907 l 819 1031 l 949 1031 l 924 907 l 1025 907 l 1010 826 m 407 101 q 549 140 485 101 q 649 242 613 178 q 686 385 686 307 q 626 543 686 483 q 467 603 565 603 q 324 565 389 603 q 222 462 260 526 q 185 319 185 397 q 247 162 185 222 q 407 101 308 101 z "},"ḍ":{"ha":949,"x_min":54,"x_max":949,"o":"m 364 -7 q 202 35 272 -7 q 93 151 132 76 q 54 322 54 225 q 106 535 54 439 q 250 685 158 631 q 453 740 342 740 q 626 693 556 740 q 724 560 696 646 l 819 1031 l 949 1031 l 743 0 l 614 0 l 639 119 q 517 26 588 60 q 364 -7 446 -7 m 407 101 q 547 141 483 101 q 649 249 611 181 q 686 399 686 317 q 626 564 686 501 q 468 626 565 626 q 326 586 390 626 q 223 478 261 546 q 185 329 185 410 q 247 165 185 228 q 407 101 308 101 m 385 -103 q 433 -122 415 -103 q 451 -171 451 -140 q 422 -240 451 -211 q 353 -269 392 -269 q 306 -249 324 -269 q 288 -200 288 -229 q 317 -131 288 -160 q 385 -103 346 -103 z "},"ḏ":{"ha":949,"x_min":54,"x_max":949,"o":"m 364 -7 q 202 35 272 -7 q 93 151 132 76 q 54 322 54 225 q 106 535 54 439 q 250 685 158 631 q 453 740 342 740 q 626 693 556 740 q 724 560 696 646 l 819 1031 l 949 1031 l 743 0 l 614 0 l 639 119 q 517 26 588 60 q 364 -7 446 -7 m 407 101 q 547 141 483 101 q 649 249 611 181 q 686 399 686 317 q 626 564 686 501 q 468 626 565 626 q 326 586 390 626 q 223 478 261 546 q 185 329 185 410 q 247 165 185 228 q 407 101 308 101 m 211 -115 l 554 -115 l 538 -200 l 194 -200 l 211 -115 z "},"ǆ":{"ha":1686,"x_min":54,"x_max":1693,"o":"m 364 -7 q 202 35 272 -7 q 93 151 132 76 q 54 322 54 225 q 106 535 54 439 q 250 685 158 631 q 453 740 342 740 q 626 693 556 740 q 724 560 696 646 l 819 1031 l 949 1031 l 743 0 l 614 0 l 639 119 q 517 26 588 60 q 364 -7 446 -7 m 407 101 q 547 141 483 101 q 649 249 611 181 q 686 399 686 317 q 626 564 686 501 q 468 626 565 626 q 326 586 390 626 q 223 478 261 546 q 185 329 185 410 q 247 165 185 228 q 407 101 308 101 m 1693 733 l 1676 642 l 1125 107 l 1578 107 l 1557 -1 l 944 0 l 961 92 l 1511 626 l 1083 628 l 1103 735 l 1693 733 m 1536 1040 l 1665 1040 l 1483 856 l 1349 856 l 1238 1040 l 1367 1040 l 1433 947 l 1536 1040 z "},"e":{"ha":836,"x_min":56,"x_max":788,"o":"m 468 739 q 702 653 617 739 q 788 422 788 567 q 776 317 788 375 l 183 317 q 249 158 188 217 q 415 100 311 100 q 532 119 476 100 q 631 175 588 139 l 690 90 q 411 -7 578 -7 q 224 35 304 -7 q 99 153 143 76 q 56 329 56 229 q 110 538 56 444 q 258 685 164 632 q 468 739 353 739 m 671 417 q 619 576 672 519 q 468 632 567 632 q 296 572 371 632 q 194 417 221 513 l 671 417 z "},"é":{"ha":836,"x_min":56,"x_max":788,"o":"m 468 739 q 702 653 617 739 q 788 422 788 567 q 776 317 788 375 l 183 317 q 249 158 188 217 q 415 100 311 100 q 532 119 476 100 q 631 175 588 139 l 690 90 q 411 -7 578 -7 q 224 35 304 -7 q 99 153 143 76 q 56 329 56 229 q 110 538 56 444 q 258 685 164 632 q 468 739 353 739 m 671 417 q 619 576 672 519 q 468 632 567 632 q 296 572 371 632 q 194 417 221 513 l 671 417 m 557 1049 l 690 990 l 519 854 l 408 868 l 557 1049 z "},"ĕ":{"ha":836,"x_min":56,"x_max":788,"o":"m 468 739 q 702 653 617 739 q 788 422 788 567 q 776 317 788 375 l 183 317 q 249 158 188 217 q 415 100 311 100 q 532 119 476 100 q 631 175 588 139 l 690 90 q 411 -7 578 -7 q 224 35 304 -7 q 99 153 143 76 q 56 329 56 229 q 110 538 56 444 q 258 685 164 632 q 468 739 353 739 m 671 417 q 619 576 672 519 q 468 632 567 632 q 296 572 371 632 q 194 417 221 513 l 671 417 m 419 1038 q 418 1019 418 1032 q 439 963 418 985 q 494 940 460 940 q 565 968 533 940 q 608 1038 597 996 l 699 1038 q 619 903 681 954 q 478 851 557 851 q 367 892 408 851 q 326 1000 326 932 q 329 1038 326 1013 l 419 1038 z "},"ě":{"ha":836,"x_min":56,"x_max":788,"o":"m 468 739 q 702 653 617 739 q 788 422 788 567 q 776 317 788 375 l 183 317 q 249 158 188 217 q 415 100 311 100 q 532 119 476 100 q 631 175 588 139 l 690 90 q 411 -7 578 -7 q 224 35 304 -7 q 99 153 143 76 q 56 329 56 229 q 110 538 56 444 q 258 685 164 632 q 468 739 353 739 m 671 417 q 619 576 672 519 q 468 632 567 632 q 296 572 371 632 q 194 417 221 513 l 671 417 m 600 1044 l 729 1044 l 547 860 l 413 860 l 301 1044 l 431 1044 l 497 951 l 600 1044 z "},"ḝ":{"ha":836,"x_min":56,"x_max":788,"o":"m 535 847 q 424 888 465 847 q 383 996 383 928 q 386 1033 383 1008 l 476 1033 q 475 1015 475 1028 q 496 958 475 981 q 551 936 517 936 q 622 964 590 936 q 665 1033 654 992 l 756 1033 q 676 899 738 950 q 535 847 614 847 m 468 739 q 702 653 617 739 q 788 422 788 567 q 776 317 788 375 l 183 317 q 249 158 188 217 q 415 100 311 100 q 532 119 476 100 q 631 175 588 139 l 690 90 q 438 -7 586 1 l 401 -71 q 472 -103 449 -78 q 494 -162 494 -128 q 442 -264 494 -226 q 314 -301 390 -301 q 189 -272 244 -301 l 235 -186 q 313 -206 271 -206 q 365 -191 344 -206 q 386 -158 386 -176 q 369 -133 386 -143 q 322 -122 353 -122 l 281 -122 l 340 -1 q 132 106 208 18 q 56 329 56 194 q 110 538 56 444 q 258 685 164 632 q 468 739 353 739 m 671 417 q 619 576 672 519 q 468 632 567 632 q 296 572 371 632 q 194 417 221 513 l 671 417 z "},"ê":{"ha":836,"x_min":56,"x_max":788,"o":"m 468 739 q 702 653 617 739 q 788 422 788 567 q 776 317 788 375 l 183 317 q 249 158 188 217 q 415 100 311 100 q 532 119 476 100 q 631 175 588 139 l 690 90 q 411 -7 578 -7 q 224 35 304 -7 q 99 153 143 76 q 56 329 56 229 q 110 538 56 444 q 258 685 164 632 q 468 739 353 739 m 671 417 q 619 576 672 519 q 468 632 567 632 q 296 572 371 632 q 194 417 221 513 l 671 417 m 693 861 l 564 861 l 497 954 l 394 861 l 265 861 l 447 1046 l 582 1046 l 693 861 z "},"ế":{"ha":836,"x_min":56,"x_max":788,"o":"m 468 739 q 702 653 617 739 q 788 422 788 567 q 776 317 788 375 l 183 317 q 249 158 188 217 q 415 100 311 100 q 532 119 476 100 q 631 175 588 139 l 690 90 q 411 -7 578 -7 q 224 35 304 -7 q 99 153 143 76 q 56 329 56 229 q 110 538 56 444 q 258 685 164 632 q 468 739 353 739 m 671 417 q 619 576 672 519 q 468 632 567 632 q 296 572 371 632 q 194 417 221 513 l 671 417 m 715 846 l 576 846 l 494 922 l 383 846 l 240 846 l 414 979 l 589 979 l 715 846 m 593 1200 l 704 1125 l 510 1021 l 413 1051 l 593 1200 z "},"ệ":{"ha":836,"x_min":56,"x_max":788,"o":"m 468 739 q 702 653 617 739 q 788 422 788 567 q 776 317 788 375 l 183 317 q 249 158 188 217 q 415 100 311 100 q 532 119 476 100 q 631 175 588 139 l 690 90 q 411 -7 578 -7 q 224 35 304 -7 q 99 153 143 76 q 56 329 56 229 q 110 538 56 444 q 258 685 164 632 q 468 739 353 739 m 671 417 q 619 576 672 519 q 468 632 567 632 q 296 572 371 632 q 194 417 221 513 l 671 417 m 369 -103 q 418 -122 400 -103 q 436 -171 436 -140 q 406 -240 436 -211 q 338 -269 376 -269 q 290 -249 308 -269 q 272 -200 272 -229 q 301 -131 272 -160 q 369 -103 331 -103 m 726 857 l 597 857 l 531 950 l 428 857 l 299 857 l 481 1042 l 615 1042 l 726 857 z "},"ề":{"ha":836,"x_min":56,"x_max":788,"o":"m 468 739 q 702 653 617 739 q 788 422 788 567 q 776 317 788 375 l 183 317 q 249 158 188 217 q 415 100 311 100 q 532 119 476 100 q 631 175 588 139 l 690 90 q 411 -7 578 -7 q 224 35 304 -7 q 99 153 143 76 q 56 329 56 229 q 110 538 56 444 q 258 685 164 632 q 468 739 353 739 m 671 417 q 619 576 672 519 q 468 632 567 632 q 296 572 371 632 q 194 417 221 513 l 671 417 m 717 846 l 578 846 l 496 922 l 385 846 l 242 846 l 415 979 l 590 979 l 717 846 m 424 1200 l 606 1051 l 507 1021 l 313 1125 l 424 1200 z "},"ể":{"ha":836,"x_min":56,"x_max":788,"o":"m 468 739 q 702 653 617 739 q 788 422 788 567 q 776 317 788 375 l 183 317 q 249 158 188 217 q 415 100 311 100 q 532 119 476 100 q 631 175 588 139 l 690 90 q 411 -7 578 -7 q 224 35 304 -7 q 99 153 143 76 q 56 329 56 229 q 110 538 56 444 q 258 685 164 632 q 468 739 353 739 m 671 417 q 619 576 672 519 q 468 632 567 632 q 296 572 371 632 q 194 417 221 513 l 671 417 m 717 846 l 578 846 l 496 922 l 385 846 l 242 846 l 415 979 l 590 979 l 717 846 m 544 1239 q 617 1218 590 1239 q 643 1163 643 1197 q 611 1089 643 1126 q 525 1018 579 1051 l 464 1046 q 516 1090 497 1068 q 535 1131 535 1113 q 526 1149 535 1142 q 501 1157 517 1157 q 451 1143 478 1157 l 424 1203 q 544 1239 483 1239 z "},"ễ":{"ha":836,"x_min":56,"x_max":788,"o":"m 468 739 q 702 653 617 739 q 788 422 788 567 q 776 317 788 375 l 183 317 q 249 158 188 217 q 415 100 311 100 q 532 119 476 100 q 631 175 588 139 l 690 90 q 411 -7 578 -7 q 224 35 304 -7 q 99 153 143 76 q 56 329 56 229 q 110 538 56 444 q 258 685 164 632 q 468 739 353 739 m 671 417 q 619 576 672 519 q 468 632 567 632 q 296 572 371 632 q 194 417 221 513 l 671 417 m 715 846 l 576 846 l 494 922 l 383 846 l 240 846 l 414 979 l 589 979 l 715 846 m 747 1181 q 700 1074 735 1114 q 608 1033 665 1033 q 555 1043 579 1033 q 499 1072 531 1053 q 462 1093 476 1086 q 432 1100 447 1100 q 372 1038 383 1100 l 296 1038 q 343 1145 308 1104 q 435 1186 378 1186 q 488 1176 465 1186 q 544 1147 511 1167 q 581 1126 567 1133 q 610 1119 596 1119 q 671 1181 660 1119 l 747 1181 z "},"ȅ":{"ha":836,"x_min":56,"x_max":788,"o":"m 468 739 q 702 653 617 739 q 788 422 788 567 q 776 317 788 375 l 183 317 q 249 158 188 217 q 415 100 311 100 q 532 119 476 100 q 631 175 588 139 l 690 90 q 411 -7 578 -7 q 224 35 304 -7 q 99 153 143 76 q 56 329 56 229 q 110 538 56 444 q 258 685 164 632 q 468 739 353 739 m 671 417 q 619 576 672 519 q 468 632 567 632 q 296 572 371 632 q 194 417 221 513 l 671 417 m 357 1057 l 436 867 l 335 854 l 236 1004 l 357 1057 m 572 1057 l 650 867 l 550 854 l 450 1004 l 572 1057 z "},"ë":{"ha":836,"x_min":56,"x_max":788,"o":"m 468 739 q 702 653 617 739 q 788 422 788 567 q 776 317 788 375 l 183 317 q 249 158 188 217 q 415 100 311 100 q 532 119 476 100 q 631 175 588 139 l 690 90 q 411 -7 578 -7 q 224 35 304 -7 q 99 153 143 76 q 56 329 56 229 q 110 538 56 444 q 258 685 164 632 q 468 739 353 739 m 671 417 q 619 576 672 519 q 468 632 567 632 q 296 572 371 632 q 194 417 221 513 l 671 417 m 393 1024 q 436 1006 419 1024 q 453 960 453 988 q 426 898 453 925 q 364 871 399 871 q 320 889 338 871 q 303 935 303 907 q 329 998 303 972 q 393 1024 356 1024 m 632 1024 q 674 1006 658 1024 q 690 960 690 989 q 664 898 690 925 q 603 871 638 871 q 559 889 576 871 q 542 935 542 907 q 568 998 542 972 q 632 1024 594 1024 z "},"ė":{"ha":836,"x_min":56,"x_max":788,"o":"m 468 739 q 702 653 617 739 q 788 422 788 567 q 776 317 788 375 l 183 317 q 249 158 188 217 q 415 100 311 100 q 532 119 476 100 q 631 175 588 139 l 690 90 q 411 -7 578 -7 q 224 35 304 -7 q 99 153 143 76 q 56 329 56 229 q 110 538 56 444 q 258 685 164 632 q 468 739 353 739 m 671 417 q 619 576 672 519 q 468 632 567 632 q 296 572 371 632 q 194 417 221 513 l 671 417 m 513 1032 q 561 1013 543 1032 q 579 964 579 994 q 549 894 579 924 q 481 865 519 865 q 433 885 451 865 q 415 935 415 906 q 444 1003 415 975 q 513 1032 474 1032 z "},"ẹ":{"ha":836,"x_min":56,"x_max":788,"o":"m 468 739 q 702 653 617 739 q 788 422 788 567 q 776 317 788 375 l 183 317 q 249 158 188 217 q 415 100 311 100 q 532 119 476 100 q 631 175 588 139 l 690 90 q 411 -7 578 -7 q 224 35 304 -7 q 99 153 143 76 q 56 329 56 229 q 110 538 56 444 q 258 685 164 632 q 468 739 353 739 m 671 417 q 619 576 672 519 q 468 632 567 632 q 296 572 371 632 q 194 417 221 513 l 671 417 m 369 -103 q 418 -122 400 -103 q 436 -171 436 -140 q 406 -240 436 -211 q 338 -269 376 -269 q 290 -249 308 -269 q 272 -200 272 -229 q 301 -131 272 -160 q 369 -103 331 -103 z "},"è":{"ha":836,"x_min":56,"x_max":788,"o":"m 468 739 q 702 653 617 739 q 788 422 788 567 q 776 317 788 375 l 183 317 q 249 158 188 217 q 415 100 311 100 q 532 119 476 100 q 631 175 588 139 l 690 90 q 411 -7 578 -7 q 224 35 304 -7 q 99 153 143 76 q 56 329 56 229 q 110 538 56 444 q 258 685 164 632 q 468 739 353 739 m 671 417 q 619 576 672 519 q 468 632 567 632 q 296 572 371 632 q 194 417 221 513 l 671 417 m 425 1049 l 574 868 l 463 854 l 292 990 l 425 1049 z "},"ẻ":{"ha":836,"x_min":56,"x_max":788,"o":"m 468 739 q 702 653 617 739 q 788 422 788 567 q 776 317 788 375 l 183 317 q 249 158 188 217 q 415 100 311 100 q 532 119 476 100 q 631 175 588 139 l 690 90 q 411 -7 578 -7 q 224 35 304 -7 q 99 153 143 76 q 56 329 56 229 q 110 538 56 444 q 258 685 164 632 q 468 739 353 739 m 671 417 q 619 576 672 519 q 468 632 567 632 q 296 572 371 632 q 194 417 221 513 l 671 417 m 519 1086 q 600 1062 569 1086 q 631 994 631 1038 q 593 901 631 951 q 497 807 556 850 l 431 840 q 492 903 469 869 q 515 960 515 938 q 504 985 515 975 q 475 996 493 996 q 418 978 449 996 l 388 1047 q 519 1086 453 1086 z "},"ȇ":{"ha":836,"x_min":56,"x_max":788,"o":"m 468 739 q 702 653 617 739 q 788 422 788 567 q 776 317 788 375 l 183 317 q 249 158 188 217 q 415 100 311 100 q 532 119 476 100 q 631 175 588 139 l 690 90 q 411 -7 578 -7 q 224 35 304 -7 q 99 153 143 76 q 56 329 56 229 q 110 538 56 444 q 258 685 164 632 q 468 739 353 739 m 671 417 q 619 576 672 519 q 468 632 567 632 q 296 572 371 632 q 194 417 221 513 l 671 417 m 572 853 q 574 871 574 858 q 553 928 574 906 q 497 950 532 950 q 426 922 458 950 q 383 853 394 894 l 293 853 q 373 988 311 936 q 514 1039 435 1039 q 624 999 583 1039 q 665 890 665 958 q 663 853 665 878 l 572 853 z "},"ē":{"ha":836,"x_min":56,"x_max":788,"o":"m 468 739 q 702 653 617 739 q 788 422 788 567 q 776 317 788 375 l 183 317 q 249 158 188 217 q 415 100 311 100 q 532 119 476 100 q 631 175 588 139 l 690 90 q 411 -7 578 -7 q 224 35 304 -7 q 99 153 143 76 q 56 329 56 229 q 110 538 56 444 q 258 685 164 632 q 468 739 353 739 m 671 417 q 619 576 672 519 q 468 632 567 632 q 296 572 371 632 q 194 417 221 513 l 671 417 m 304 990 l 701 990 l 686 904 l 288 904 l 304 990 z "},"ḗ":{"ha":836,"x_min":56,"x_max":788,"o":"m 468 739 q 702 653 617 739 q 788 422 788 567 q 776 317 788 375 l 183 317 q 249 158 188 217 q 415 100 311 100 q 532 119 476 100 q 631 175 588 139 l 690 90 q 411 -7 578 -7 q 224 35 304 -7 q 99 153 143 76 q 56 329 56 229 q 110 538 56 444 q 258 685 164 632 q 468 739 353 739 m 671 417 q 619 576 672 519 q 468 632 567 632 q 296 572 371 632 q 194 417 221 513 l 671 417 m 319 929 l 663 929 l 646 844 l 304 844 l 319 929 m 588 1172 l 699 1097 l 504 993 l 407 1024 l 588 1172 z "},"ḕ":{"ha":836,"x_min":56,"x_max":788,"o":"m 468 739 q 702 653 617 739 q 788 422 788 567 q 776 317 788 375 l 183 317 q 249 158 188 217 q 415 100 311 100 q 532 119 476 100 q 631 175 588 139 l 690 90 q 411 -7 578 -7 q 224 35 304 -7 q 99 153 143 76 q 56 329 56 229 q 110 538 56 444 q 258 685 164 632 q 468 739 353 739 m 671 417 q 619 576 672 519 q 468 632 567 632 q 296 572 371 632 q 194 417 221 513 l 671 417 m 328 929 l 671 929 l 654 844 l 313 844 l 328 929 m 424 1172 l 606 1024 l 507 993 l 313 1097 l 424 1172 z "},"ę":{"ha":836,"x_min":56,"x_max":788,"o":"m 468 739 q 702 653 617 739 q 788 422 788 567 q 776 317 788 375 l 183 317 q 249 158 188 217 q 415 100 311 100 q 532 119 476 100 q 631 175 588 139 l 690 90 q 632 49 664 67 q 522 -62 565 -3 q 478 -164 478 -122 q 488 -191 478 -181 q 514 -201 497 -201 q 569 -187 542 -201 l 586 -274 q 467 -300 526 -300 q 383 -272 413 -300 q 353 -192 353 -243 q 454 -6 353 -101 q 411 -7 440 -7 q 224 35 304 -7 q 99 153 143 76 q 56 329 56 229 q 110 538 56 444 q 258 685 164 632 q 468 739 353 739 m 671 417 q 619 576 672 519 q 468 632 567 632 q 296 572 371 632 q 194 417 221 513 l 671 417 z "},"ẽ":{"ha":836,"x_min":56,"x_max":788,"o":"m 468 739 q 702 653 617 739 q 788 422 788 567 q 776 317 788 375 l 183 317 q 249 158 188 217 q 415 100 311 100 q 532 119 476 100 q 631 175 588 139 l 690 90 q 411 -7 578 -7 q 224 35 304 -7 q 99 153 143 76 q 56 329 56 229 q 110 538 56 444 q 258 685 164 632 q 468 739 353 739 m 671 417 q 619 576 672 519 q 468 632 567 632 q 296 572 371 632 q 194 417 221 513 l 671 417 m 724 1018 q 674 896 710 943 q 579 849 639 849 q 527 860 550 849 q 474 893 504 871 q 438 915 451 908 q 413 922 425 922 q 354 854 367 922 l 264 854 q 313 976 278 928 q 407 1024 349 1024 q 459 1013 436 1024 q 514 981 482 1001 q 549 958 536 965 q 575 951 563 951 q 615 969 600 951 q 633 1018 629 988 l 724 1018 z "},"ə":{"ha":839,"x_min":51,"x_max":783,"o":"m 428 739 q 615 697 535 739 q 740 579 696 656 q 783 403 783 503 q 729 194 783 288 q 581 47 675 100 q 371 -7 486 -7 q 137 79 222 -7 q 51 310 51 165 q 63 415 51 357 l 656 415 q 589 574 651 517 q 422 632 526 632 q 308 613 363 632 q 208 557 253 593 l 149 642 q 428 739 261 739 m 371 101 q 544 160 469 101 q 644 315 618 219 l 168 315 q 219 157 167 213 q 371 101 272 101 z "},"f":{"ha":460,"x_min":79,"x_max":649,"o":"m 518 924 q 423 890 465 924 q 368 800 381 857 l 350 710 l 551 710 l 533 611 l 331 611 l 208 0 l 79 0 l 201 611 l 106 611 l 125 710 l 222 710 l 239 796 q 298 930 254 875 q 400 1012 342 985 q 521 1039 458 1039 q 649 1004 594 1039 l 608 900 q 564 917 589 911 q 518 924 539 924 z "},"g":{"ha":889,"x_min":-3,"x_max":851,"o":"m 300 -272 q 140 -247 214 -272 q -3 -167 67 -221 l 60 -79 q 296 -164 160 -164 q 484 -114 411 -164 q 579 32 557 -64 l 607 154 q 492 67 558 97 q 350 38 425 38 q 198 76 264 38 q 95 185 132 115 q 58 347 58 256 q 108 546 58 456 q 244 688 158 636 q 435 740 331 740 q 597 698 532 740 q 689 575 663 656 l 722 735 l 851 735 l 707 24 q 572 -197 676 -121 q 300 -272 468 -272 m 394 144 q 525 181 465 144 q 619 281 585 218 q 654 418 654 343 q 598 569 654 511 q 450 626 542 626 q 319 590 379 626 q 224 490 260 553 q 189 353 189 428 q 246 202 189 260 q 394 144 303 144 z "},"ğ":{"ha":889,"x_min":-3,"x_max":851,"o":"m 300 -272 q 140 -247 214 -272 q -3 -167 67 -221 l 60 -79 q 296 -164 160 -164 q 484 -114 411 -164 q 579 32 557 -64 l 607 154 q 492 67 558 97 q 350 38 425 38 q 198 76 264 38 q 95 185 132 115 q 58 347 58 256 q 108 546 58 456 q 244 688 158 636 q 435 740 331 740 q 597 698 532 740 q 689 575 663 656 l 722 735 l 851 735 l 707 24 q 572 -197 676 -121 q 300 -272 468 -272 m 394 144 q 525 181 465 144 q 619 281 585 218 q 654 418 654 343 q 598 569 654 511 q 450 626 542 626 q 319 590 379 626 q 224 490 260 553 q 189 353 189 428 q 246 202 189 260 q 394 144 303 144 m 461 1033 q 460 1015 460 1028 q 481 958 460 981 q 536 936 501 936 q 607 964 575 936 q 650 1033 639 992 l 740 1033 q 660 899 722 950 q 519 847 599 847 q 409 888 450 847 q 368 996 368 928 q 371 1033 368 1008 l 461 1033 z "},"ǧ":{"ha":889,"x_min":-3,"x_max":851,"o":"m 300 -272 q 140 -247 214 -272 q -3 -167 67 -221 l 60 -79 q 296 -164 160 -164 q 484 -114 411 -164 q 579 32 557 -64 l 607 154 q 492 67 558 97 q 350 38 425 38 q 198 76 264 38 q 95 185 132 115 q 58 347 58 256 q 108 546 58 456 q 244 688 158 636 q 435 740 331 740 q 597 698 532 740 q 689 575 663 656 l 722 735 l 851 735 l 707 24 q 572 -197 676 -121 q 300 -272 468 -272 m 394 144 q 525 181 465 144 q 619 281 585 218 q 654 418 654 343 q 598 569 654 511 q 450 626 542 626 q 319 590 379 626 q 224 490 260 553 q 189 353 189 428 q 246 202 189 260 q 394 144 303 144 m 642 1040 l 771 1040 l 589 856 l 454 856 l 343 1040 l 472 1040 l 539 947 l 642 1040 z "},"ĝ":{"ha":889,"x_min":-3,"x_max":851,"o":"m 300 -272 q 140 -247 214 -272 q -3 -167 67 -221 l 60 -79 q 296 -164 160 -164 q 484 -114 411 -164 q 579 32 557 -64 l 607 154 q 492 67 558 97 q 350 38 425 38 q 198 76 264 38 q 95 185 132 115 q 58 347 58 256 q 108 546 58 456 q 244 688 158 636 q 435 740 331 740 q 597 698 532 740 q 689 575 663 656 l 722 735 l 851 735 l 707 24 q 572 -197 676 -121 q 300 -272 468 -272 m 394 144 q 525 181 465 144 q 619 281 585 218 q 654 418 654 343 q 598 569 654 511 q 450 626 542 626 q 319 590 379 626 q 224 490 260 553 q 189 353 189 428 q 246 202 189 260 q 394 144 303 144 m 735 857 l 606 857 l 539 950 l 436 857 l 307 857 l 489 1042 l 624 1042 l 735 857 z "},"ģ":{"ha":889,"x_min":-3,"x_max":851,"o":"m 300 -272 q 140 -247 214 -272 q -3 -167 67 -221 l 60 -79 q 296 -164 160 -164 q 484 -114 411 -164 q 579 32 557 -64 l 607 154 q 492 67 558 97 q 350 38 425 38 q 198 76 264 38 q 95 185 132 115 q 58 347 58 256 q 108 546 58 456 q 244 688 158 636 q 435 740 331 740 q 597 698 532 740 q 689 575 663 656 l 722 735 l 851 735 l 707 24 q 572 -197 676 -121 q 300 -272 468 -272 m 394 144 q 525 181 465 144 q 619 281 585 218 q 654 418 654 343 q 598 569 654 511 q 450 626 542 626 q 319 590 379 626 q 224 490 260 553 q 189 353 189 428 q 246 202 189 260 q 394 144 303 144 m 576 851 l 454 851 l 568 1072 l 663 1072 l 576 851 z "},"ġ":{"ha":889,"x_min":-3,"x_max":851,"o":"m 300 -272 q 140 -247 214 -272 q -3 -167 67 -221 l 60 -79 q 296 -164 160 -164 q 484 -114 411 -164 q 579 32 557 -64 l 607 154 q 492 67 558 97 q 350 38 425 38 q 198 76 264 38 q 95 185 132 115 q 58 347 58 256 q 108 546 58 456 q 244 688 158 636 q 435 740 331 740 q 597 698 532 740 q 689 575 663 656 l 722 735 l 851 735 l 707 24 q 572 -197 676 -121 q 300 -272 468 -272 m 394 144 q 525 181 465 144 q 619 281 585 218 q 654 418 654 343 q 598 569 654 511 q 450 626 542 626 q 319 590 379 626 q 224 490 260 553 q 189 353 189 428 q 246 202 189 260 q 394 144 303 144 m 554 1028 q 603 1009 585 1028 q 621 960 621 990 q 591 890 621 919 q 522 861 561 861 q 475 881 493 861 q 457 931 457 901 q 486 999 457 971 q 554 1028 515 1028 z "},"ḡ":{"ha":889,"x_min":-3,"x_max":851,"o":"m 300 -272 q 140 -247 214 -272 q -3 -167 67 -221 l 60 -79 q 296 -164 160 -164 q 484 -114 411 -164 q 579 32 557 -64 l 607 154 q 492 67 558 97 q 350 38 425 38 q 198 76 264 38 q 95 185 132 115 q 58 347 58 256 q 108 546 58 456 q 244 688 158 636 q 435 740 331 740 q 597 698 532 740 q 689 575 663 656 l 722 735 l 851 735 l 707 24 q 572 -197 676 -121 q 300 -272 468 -272 m 394 144 q 525 181 465 144 q 619 281 585 218 q 654 418 654 343 q 598 569 654 511 q 450 626 542 626 q 319 590 379 626 q 224 490 260 553 q 189 353 189 428 q 246 202 189 260 q 394 144 303 144 m 346 986 l 743 986 l 728 900 l 329 900 l 346 986 z "},"h":{"ha":926,"x_min":63,"x_max":844,"o":"m 579 743 q 774 681 704 743 q 844 510 844 618 q 836 433 844 474 l 749 0 l 618 0 l 701 418 q 707 469 707 442 q 662 583 707 542 q 535 625 617 625 q 366 563 438 625 q 272 394 294 500 l 193 0 l 63 0 l 265 1031 l 397 1031 l 314 611 q 579 743 406 740 z "},"ħ":{"ha":924,"x_min":63,"x_max":842,"o":"m 575 718 q 772 658 701 718 q 842 492 842 599 q 833 419 842 457 l 749 0 l 618 0 l 699 404 q 704 453 704 426 q 658 562 704 522 q 531 601 611 601 q 362 540 433 600 q 269 381 290 481 l 193 0 l 63 0 l 225 826 l 125 826 l 140 907 l 240 907 l 265 1031 l 397 1031 l 372 907 l 661 907 l 646 826 l 357 826 l 310 592 q 575 718 404 718 z "},"ḫ":{"ha":926,"x_min":63,"x_max":844,"o":"m 579 743 q 774 681 704 743 q 844 510 844 618 q 836 433 844 474 l 749 0 l 618 0 l 701 418 q 707 469 707 442 q 662 583 707 542 q 535 625 617 625 q 366 563 438 625 q 272 394 294 500 l 193 0 l 63 0 l 265 1031 l 397 1031 l 314 611 q 579 743 406 740 m 282 -69 q 281 -87 281 -75 q 301 -144 281 -122 q 357 -167 322 -167 q 428 -139 396 -167 q 471 -69 460 -111 l 561 -69 q 481 -204 543 -153 q 340 -256 419 -256 q 230 -215 271 -256 q 189 -107 189 -175 q 192 -69 189 -94 l 282 -69 z "},"ĥ":{"ha":926,"x_min":63,"x_max":844,"o":"m 579 743 q 774 681 704 743 q 844 510 844 618 q 836 433 844 474 l 749 0 l 618 0 l 701 418 q 707 469 707 442 q 662 583 707 542 q 535 625 617 625 q 366 563 438 625 q 272 394 294 500 l 193 0 l 63 0 l 265 1031 l 397 1031 l 314 611 q 579 743 406 740 m 563 1124 l 433 1124 l 367 1217 l 264 1124 l 135 1124 l 317 1308 l 451 1308 l 563 1124 z "},"ḥ":{"ha":926,"x_min":63,"x_max":844,"o":"m 579 743 q 774 681 704 743 q 844 510 844 618 q 836 433 844 474 l 749 0 l 618 0 l 701 418 q 707 469 707 442 q 662 583 707 542 q 535 625 617 625 q 366 563 438 625 q 272 394 294 500 l 193 0 l 63 0 l 265 1031 l 397 1031 l 314 611 q 579 743 406 740 m 371 -103 q 419 -122 401 -103 q 438 -171 438 -140 q 408 -240 438 -211 q 339 -269 378 -269 q 292 -249 310 -269 q 274 -200 274 -229 q 303 -131 274 -160 q 371 -103 332 -103 z "},"i":{"ha":381,"x_min":53,"x_max":388,"o":"m 328 735 l 182 0 l 53 0 l 199 735 l 328 735 m 321 1028 q 369 1009 351 1028 q 388 960 388 990 q 358 890 388 919 q 289 861 328 861 q 242 881 260 861 q 224 931 224 901 q 253 999 224 971 q 321 1028 282 1028 z "},"ı":{"ha":381,"x_min":53,"x_max":328,"o":"m 328 735 l 182 0 l 53 0 l 199 735 l 328 735 z "},"í":{"ha":381,"x_min":53,"x_max":499,"o":"m 328 735 l 182 0 l 53 0 l 199 735 l 328 735 m 365 1044 l 499 986 l 328 850 l 217 864 l 365 1044 z "},"ĭ":{"ha":381,"x_min":53,"x_max":507,"o":"m 328 735 l 182 0 l 53 0 l 199 735 l 328 735 m 228 1033 q 226 1015 226 1028 q 247 958 226 981 q 303 936 268 936 q 374 964 342 936 q 417 1033 406 992 l 507 1033 q 427 899 489 950 q 286 847 365 847 q 176 888 217 847 q 135 996 135 928 q 138 1033 135 1008 l 228 1033 z "},"î":{"ha":381,"x_min":53,"x_max":501,"o":"m 328 735 l 182 0 l 53 0 l 199 735 l 328 735 m 501 857 l 372 857 l 306 950 l 203 857 l 74 857 l 256 1042 l 390 1042 l 501 857 z "},"ȉ":{"ha":381,"x_min":44,"x_max":458,"o":"m 328 735 l 182 0 l 53 0 l 199 735 l 328 735 m 165 1053 l 244 863 l 143 850 l 44 1000 l 165 1053 m 381 1053 l 458 863 l 358 850 l 258 1000 l 381 1053 z "},"ï":{"ha":381,"x_min":53,"x_max":482,"o":"m 328 735 l 182 0 l 53 0 l 199 735 l 328 735 m 218 1019 q 261 1001 244 1019 q 278 956 278 983 q 251 894 278 921 q 189 867 224 867 q 145 885 163 867 q 128 931 128 903 q 154 994 128 968 q 218 1019 181 1019 m 422 1019 q 465 1001 449 1019 q 482 956 482 983 q 455 894 482 921 q 393 867 428 867 q 350 885 367 867 q 333 931 333 903 q 360 994 333 968 q 422 1019 386 1019 z "},"ḯ":{"ha":381,"x_min":53,"x_max":508,"o":"m 328 735 l 182 0 l 53 0 l 199 735 l 328 735 m 200 986 q 242 969 226 986 q 258 926 258 953 q 233 865 258 890 q 172 839 207 839 q 130 856 146 839 q 114 901 114 874 q 140 962 114 938 q 200 986 165 986 m 425 986 q 467 969 451 986 q 483 926 483 953 q 457 865 483 890 q 397 839 431 839 q 353 857 371 839 q 336 901 336 875 q 363 962 336 938 q 425 986 389 986 m 397 1186 l 508 1111 l 314 1007 l 217 1038 l 397 1186 z "},"ị":{"ha":381,"x_min":1,"x_max":388,"o":"m 328 735 l 182 0 l 53 0 l 199 735 l 328 735 m 321 1028 q 369 1009 351 1028 q 388 960 388 990 q 358 890 388 919 q 289 861 328 861 q 242 881 260 861 q 224 931 224 901 q 253 999 224 971 q 321 1028 282 1028 m 99 -103 q 147 -122 129 -103 q 165 -171 165 -140 q 135 -240 165 -211 q 67 -269 106 -269 q 19 -249 38 -269 q 1 -200 1 -229 q 31 -131 1 -160 q 99 -103 60 -103 z "},"ì":{"ha":381,"x_min":53,"x_max":382,"o":"m 328 735 l 182 0 l 53 0 l 199 735 l 328 735 m 233 1044 l 382 864 l 271 850 l 100 986 l 233 1044 z "},"ỉ":{"ha":381,"x_min":53,"x_max":439,"o":"m 328 735 l 182 0 l 53 0 l 199 735 l 328 735 m 328 1082 q 408 1058 378 1082 q 439 990 439 1033 q 401 897 439 947 q 306 803 364 846 l 239 836 q 301 899 278 865 q 324 956 324 933 q 313 981 324 971 q 283 992 301 992 q 226 974 257 992 l 196 1043 q 328 1082 261 1082 z "},"ȋ":{"ha":381,"x_min":53,"x_max":458,"o":"m 328 735 l 182 0 l 53 0 l 199 735 l 328 735 m 360 847 q 361 867 361 854 q 346 923 361 901 q 306 944 331 944 q 248 917 274 944 q 211 847 222 890 l 115 847 q 192 982 135 931 q 322 1033 249 1033 q 422 994 386 1033 q 458 888 458 954 q 456 847 458 861 l 360 847 z "},"ĳ":{"ha":757,"x_min":53,"x_max":758,"o":"m 328 735 l 182 0 l 53 0 l 199 735 l 328 735 m 321 1028 q 369 1009 351 1028 q 388 960 388 990 q 358 890 388 919 q 289 861 328 861 q 242 881 260 861 q 224 931 224 901 q 253 999 224 971 q 321 1028 282 1028 m 222 -153 q 279 -164 240 -161 q 372 -125 335 -165 q 425 -11 410 -85 l 575 735 l 706 735 l 550 -42 q 464 -215 528 -156 q 303 -274 400 -274 q 183 -249 240 -274 l 222 -153 m 692 1028 q 740 1009 722 1028 q 758 960 758 990 q 728 890 758 919 q 660 861 699 861 q 613 881 631 861 q 594 931 594 901 q 624 999 594 971 q 692 1028 653 1028 z "},"ī":{"ha":381,"x_min":53,"x_max":482,"o":"m 328 735 l 182 0 l 53 0 l 199 735 l 328 735 m 140 986 l 482 986 l 467 900 l 124 900 l 140 986 z "},"į":{"ha":381,"x_min":-108,"x_max":388,"o":"m 321 1028 q 369 1009 351 1028 q 388 960 388 990 q 358 890 388 919 q 289 861 328 861 q 242 881 260 861 q 224 931 224 901 q 253 999 224 971 q 321 1028 282 1028 m 199 735 l 328 735 l 182 0 q 55 -95 92 -58 q 18 -167 18 -132 q 28 -192 18 -183 q 54 -201 38 -201 q 111 -187 83 -201 l 126 -274 q 8 -300 68 -300 q -77 -275 -46 -300 q -108 -203 -108 -250 q 56 14 -108 -89 l 199 735 z "},"ĩ":{"ha":381,"x_min":53,"x_max":511,"o":"m 328 735 l 182 0 l 53 0 l 199 735 l 328 735 m 511 1013 q 460 890 494 936 q 375 844 426 844 q 328 856 349 844 q 285 886 308 867 q 272 897 282 889 q 253 908 261 904 q 236 913 244 913 q 185 849 199 913 l 96 849 q 146 972 111 925 q 233 1018 181 1018 q 280 1007 258 1018 q 324 978 301 996 q 338 967 326 975 q 357 956 349 960 q 374 953 365 953 q 422 1013 410 953 l 511 1013 z "},"j":{"ha":375,"x_min":-197,"x_max":378,"o":"m -158 -153 q -101 -164 -140 -161 q -8 -125 -46 -165 q 44 -11 29 -85 l 194 735 l 325 735 l 169 -42 q 83 -215 147 -156 q -78 -274 19 -274 q -197 -249 -140 -274 l -158 -153 m 311 1028 q 360 1009 342 1028 q 378 960 378 990 q 348 890 378 919 q 279 861 318 861 q 232 881 250 861 q 214 931 214 901 q 243 999 214 971 q 311 1028 272 1028 z "},"ȷ":{"ha":375,"x_min":-197,"x_max":325,"o":"m -158 -153 q -101 -164 -140 -161 q -8 -125 -46 -165 q 44 -11 29 -85 l 194 735 l 325 735 l 169 -42 q 83 -215 147 -156 q -78 -274 19 -274 q -197 -249 -140 -274 l -158 -153 z "},"ĵ":{"ha":375,"x_min":-197,"x_max":492,"o":"m -158 -153 q -101 -164 -140 -161 q -8 -125 -46 -165 q 44 -11 29 -85 l 194 735 l 325 735 l 169 -42 q 83 -215 147 -156 q -78 -274 19 -274 q -197 -249 -140 -274 l -158 -153 m 492 857 l 363 857 l 296 950 l 193 857 l 64 857 l 246 1042 l 381 1042 l 492 857 z "},"k":{"ha":829,"x_min":60,"x_max":861,"o":"m 861 735 l 515 439 l 731 0 l 574 0 l 414 350 l 229 192 l 190 0 l 60 0 l 265 1031 l 396 1031 l 265 376 l 690 735 l 861 735 z "},"ķ":{"ha":829,"x_min":60,"x_max":861,"o":"m 861 735 l 515 439 l 731 0 l 574 0 l 414 350 l 229 192 l 190 0 l 60 0 l 265 1031 l 396 1031 l 265 376 l 690 735 l 861 735 m 283 -82 l 406 -82 l 292 -303 l 197 -303 l 283 -82 z "},"ĸ":{"ha":822,"x_min":53,"x_max":854,"o":"m 854 735 l 508 439 l 724 0 l 567 0 l 407 350 l 221 192 l 183 0 l 53 0 l 199 735 l 329 735 l 258 376 l 683 735 l 854 735 z "},"l":{"ha":396,"x_min":60,"x_max":396,"o":"m 396 1031 l 190 0 l 60 0 l 265 1031 l 396 1031 z "},"ĺ":{"ha":396,"x_min":60,"x_max":560,"o":"m 396 1031 l 190 0 l 60 0 l 265 1031 l 396 1031 m 426 1311 l 560 1253 l 389 1117 l 278 1131 l 426 1311 z "},"ľ":{"ha":446,"x_min":60,"x_max":617,"o":"m 396 1031 l 190 0 l 60 0 l 265 1031 l 396 1031 m 493 1031 l 617 1031 l 531 757 l 440 757 l 493 1031 z "},"ļ":{"ha":396,"x_min":-36,"x_max":396,"o":"m 396 1031 l 190 0 l 60 0 l 265 1031 l 396 1031 m 50 -82 l 172 -82 l 58 -303 l -36 -303 l 50 -82 z "},"ŀ":{"ha":544,"x_min":60,"x_max":539,"o":"m 396 1031 l 190 0 l 60 0 l 265 1031 l 396 1031 m 472 625 q 521 606 503 625 q 539 557 539 588 q 509 488 539 517 q 440 458 479 458 q 393 478 411 458 q 375 528 375 499 q 404 597 375 568 q 472 625 433 625 z "},"ḷ":{"ha":396,"x_min":8,"x_max":396,"o":"m 396 1031 l 190 0 l 60 0 l 265 1031 l 396 1031 m 106 -103 q 154 -122 136 -103 q 172 -171 172 -140 q 142 -240 172 -211 q 74 -269 113 -269 q 26 -249 44 -269 q 8 -200 8 -229 q 38 -131 8 -160 q 106 -103 67 -103 z "},"ǉ":{"ha":772,"x_min":60,"x_max":774,"o":"m 396 1031 l 190 0 l 60 0 l 265 1031 l 396 1031 m 238 -153 q 294 -164 256 -161 q 388 -125 350 -165 q 440 -11 425 -85 l 590 735 l 721 735 l 565 -42 q 479 -215 543 -156 q 318 -274 415 -274 q 199 -249 256 -274 l 238 -153 m 707 1028 q 756 1009 738 1028 q 774 960 774 990 q 744 890 774 919 q 675 861 714 861 q 628 881 646 861 q 610 931 610 901 q 639 999 610 971 q 707 1028 668 1028 z "},"ḻ":{"ha":396,"x_min":-85,"x_max":396,"o":"m 396 1031 l 190 0 l 60 0 l 265 1031 l 396 1031 m -68 -115 l 275 -115 l 258 -200 l -85 -200 l -68 -115 z "},"ł":{"ha":503,"x_min":47,"x_max":538,"o":"m 538 692 l 519 597 l 356 515 l 253 0 l 122 0 l 210 442 l 47 360 l 65 453 l 229 536 l 328 1031 l 458 1031 l 374 610 l 538 692 z "},"m":{"ha":1474,"x_min":54,"x_max":1392,"o":"m 1126 743 q 1322 681 1251 743 q 1392 510 1392 618 q 1383 433 1392 474 l 1296 0 l 1165 0 l 1249 418 q 1254 469 1254 442 q 1209 583 1254 542 q 1082 625 1164 625 q 919 567 989 625 q 824 413 849 510 l 740 0 l 610 0 l 693 418 q 699 469 699 442 q 653 583 699 542 q 526 625 608 625 q 357 562 429 625 q 264 394 285 499 l 185 0 l 54 0 l 199 735 l 331 735 l 306 611 q 571 743 397 740 q 747 697 679 743 q 831 565 814 650 q 1126 743 933 740 z "},"ṃ":{"ha":1474,"x_min":54,"x_max":1392,"o":"m 1126 743 q 1322 681 1251 743 q 1392 510 1392 618 q 1383 433 1392 474 l 1296 0 l 1165 0 l 1249 418 q 1254 469 1254 442 q 1209 583 1254 542 q 1082 625 1164 625 q 919 567 989 625 q 824 413 849 510 l 740 0 l 610 0 l 693 418 q 699 469 699 442 q 653 583 699 542 q 526 625 608 625 q 357 562 429 625 q 264 394 285 499 l 185 0 l 54 0 l 199 735 l 331 735 l 306 611 q 571 743 397 740 q 747 697 679 743 q 831 565 814 650 q 1126 743 933 740 m 654 -103 q 703 -122 685 -103 q 721 -171 721 -140 q 691 -240 721 -211 q 622 -269 661 -269 q 575 -249 593 -269 q 557 -200 557 -229 q 586 -131 557 -160 q 654 -103 615 -103 z "},"n":{"ha":918,"x_min":54,"x_max":836,"o":"m 571 743 q 766 681 696 743 q 836 510 836 618 q 828 433 836 474 l 740 0 l 610 0 l 693 418 q 699 469 699 442 q 653 583 699 542 q 526 625 608 625 q 358 563 429 625 q 264 394 286 500 l 185 0 l 54 0 l 199 735 l 331 735 l 306 611 q 571 743 397 740 z "},"ń":{"ha":918,"x_min":54,"x_max":836,"o":"m 571 743 q 766 681 696 743 q 836 510 836 618 q 828 433 836 474 l 740 0 l 610 0 l 693 418 q 699 469 699 442 q 653 583 699 542 q 526 625 608 625 q 358 563 429 625 q 264 394 286 500 l 185 0 l 54 0 l 199 735 l 331 735 l 306 611 q 571 743 397 740 m 644 1044 l 778 986 l 607 850 l 496 864 l 644 1044 z "},"ŉ":{"ha":1097,"x_min":89,"x_max":1015,"o":"m 161 972 l 263 972 l 174 611 l 89 611 l 161 972 m 750 743 q 945 681 875 743 q 1015 510 1015 618 q 1007 433 1015 474 l 919 0 l 789 0 l 872 418 q 878 469 878 442 q 833 583 878 542 q 706 625 788 625 q 537 563 608 625 q 443 394 465 500 l 364 0 l 233 0 l 378 735 l 510 735 l 485 611 q 750 743 576 740 z "},"ň":{"ha":918,"x_min":54,"x_max":836,"o":"m 571 743 q 766 681 696 743 q 836 510 836 618 q 828 433 836 474 l 740 0 l 610 0 l 693 418 q 699 469 699 442 q 653 583 699 542 q 526 625 608 625 q 358 563 429 625 q 264 394 286 500 l 185 0 l 54 0 l 199 735 l 331 735 l 306 611 q 571 743 397 740 m 688 1040 l 817 1040 l 635 856 l 500 856 l 389 1040 l 518 1040 l 585 947 l 688 1040 z "},"ņ":{"ha":918,"x_min":54,"x_max":836,"o":"m 571 743 q 766 681 696 743 q 836 510 836 618 q 828 433 836 474 l 740 0 l 610 0 l 693 418 q 699 469 699 442 q 653 583 699 542 q 526 625 608 625 q 358 563 429 625 q 264 394 286 500 l 185 0 l 54 0 l 199 735 l 331 735 l 306 611 q 571 743 397 740 m 336 -82 l 458 -82 l 344 -303 l 250 -303 l 336 -82 z "},"ṅ":{"ha":918,"x_min":54,"x_max":836,"o":"m 571 743 q 766 681 696 743 q 836 510 836 618 q 828 433 836 474 l 740 0 l 610 0 l 693 418 q 699 469 699 442 q 653 583 699 542 q 526 625 608 625 q 358 563 429 625 q 264 394 286 500 l 185 0 l 54 0 l 199 735 l 331 735 l 306 611 q 571 743 397 740 m 600 1028 q 649 1009 631 1028 q 667 960 667 990 q 637 890 667 919 q 568 861 607 861 q 521 881 539 861 q 503 931 503 901 q 532 999 503 971 q 600 1028 561 1028 z "},"ṇ":{"ha":918,"x_min":54,"x_max":836,"o":"m 571 743 q 766 681 696 743 q 836 510 836 618 q 828 433 836 474 l 740 0 l 610 0 l 693 418 q 699 469 699 442 q 653 583 699 542 q 526 625 608 625 q 358 563 429 625 q 264 394 286 500 l 185 0 l 54 0 l 199 735 l 331 735 l 306 611 q 571 743 397 740 m 392 -103 q 440 -122 422 -103 q 458 -171 458 -140 q 428 -240 458 -211 q 360 -269 399 -269 q 313 -249 331 -269 q 294 -200 294 -229 q 324 -131 294 -160 q 392 -103 353 -103 z "},"ŋ":{"ha":915,"x_min":53,"x_max":838,"o":"m 610 739 q 778 684 719 739 q 838 531 838 629 q 829 454 838 494 l 733 -25 q 633 -211 710 -147 q 461 -275 556 -275 q 319 -225 378 -275 l 383 -122 q 478 -160 425 -160 q 555 -131 522 -160 q 600 -42 588 -101 l 693 419 q 699 472 699 446 q 657 579 699 542 q 538 617 615 617 q 360 554 436 617 q 263 393 285 492 l 183 0 l 53 0 l 199 735 l 329 735 l 299 583 q 610 739 407 739 z "},"ǌ":{"ha":1293,"x_min":54,"x_max":1296,"o":"m 571 743 q 766 681 696 743 q 836 510 836 618 q 828 433 836 474 l 740 0 l 610 0 l 693 418 q 699 469 699 442 q 653 583 699 542 q 526 625 608 625 q 358 563 429 625 q 264 394 286 500 l 185 0 l 54 0 l 199 735 l 331 735 l 306 611 q 571 743 397 740 m 760 -153 q 817 -164 778 -161 q 910 -125 872 -165 q 963 -11 947 -85 l 1113 735 l 1243 735 l 1088 -42 q 1001 -215 1065 -156 q 840 -274 938 -274 q 721 -249 778 -274 l 760 -153 m 1229 1028 q 1278 1009 1260 1028 q 1296 960 1296 990 q 1266 890 1296 919 q 1197 861 1236 861 q 1150 881 1168 861 q 1132 931 1132 901 q 1161 999 1132 971 q 1229 1028 1190 1028 z "},"ṉ":{"ha":918,"x_min":54,"x_max":836,"o":"m 571 743 q 766 681 696 743 q 836 510 836 618 q 828 433 836 474 l 740 0 l 610 0 l 693 418 q 699 469 699 442 q 653 583 699 542 q 526 625 608 625 q 358 563 429 625 q 264 394 286 500 l 185 0 l 54 0 l 199 735 l 331 735 l 306 611 q 571 743 397 740 m 218 -115 l 561 -115 l 544 -200 l 201 -200 l 218 -115 z "},"ñ":{"ha":918,"x_min":54,"x_max":836,"o":"m 571 743 q 766 681 696 743 q 836 510 836 618 q 828 433 836 474 l 740 0 l 610 0 l 693 418 q 699 469 699 442 q 653 583 699 542 q 526 625 608 625 q 358 563 429 625 q 264 394 286 500 l 185 0 l 54 0 l 199 735 l 331 735 l 306 611 q 571 743 397 740 m 811 1014 q 762 892 797 939 q 667 844 726 844 q 615 856 638 844 q 561 889 592 867 q 526 911 539 904 q 500 918 513 918 q 442 850 454 918 l 351 850 q 401 972 365 924 q 494 1019 436 1019 q 547 1008 524 1019 q 601 976 569 997 q 637 954 624 961 q 663 947 650 947 q 702 965 688 947 q 721 1014 717 983 l 811 1014 z "},"o":{"ha":871,"x_min":56,"x_max":815,"o":"m 472 739 q 651 697 574 739 q 772 578 729 654 q 815 404 815 501 q 760 193 815 286 q 610 48 706 100 q 397 -4 515 -4 q 217 38 294 -4 q 98 157 140 81 q 56 332 56 233 q 110 542 56 449 q 259 687 164 635 q 472 739 354 739 m 461 626 q 321 590 383 626 q 222 487 258 553 q 186 338 186 421 q 247 169 186 233 q 408 106 308 106 q 548 142 486 106 q 646 245 610 179 q 682 394 682 311 q 622 562 682 497 q 461 626 561 626 z "},"ó":{"ha":871,"x_min":56,"x_max":815,"o":"m 472 739 q 651 697 574 739 q 772 578 729 654 q 815 404 815 501 q 760 193 815 286 q 610 48 706 100 q 397 -4 515 -4 q 217 38 294 -4 q 98 157 140 81 q 56 332 56 233 q 110 542 56 449 q 259 687 164 635 q 472 739 354 739 m 461 626 q 321 590 383 626 q 222 487 258 553 q 186 338 186 421 q 247 169 186 233 q 408 106 308 106 q 548 142 486 106 q 646 245 610 179 q 682 394 682 311 q 622 562 682 497 q 461 626 561 626 m 574 1044 l 707 986 l 536 850 l 425 864 l 574 1044 z "},"ŏ":{"ha":871,"x_min":56,"x_max":815,"o":"m 472 739 q 651 697 574 739 q 772 578 729 654 q 815 404 815 501 q 760 193 815 286 q 610 48 706 100 q 397 -4 515 -4 q 217 38 294 -4 q 98 157 140 81 q 56 332 56 233 q 110 542 56 449 q 259 687 164 635 q 472 739 354 739 m 461 626 q 321 590 383 626 q 222 487 258 553 q 186 338 186 421 q 247 169 186 233 q 408 106 308 106 q 548 142 486 106 q 646 245 610 179 q 682 394 682 311 q 622 562 682 497 q 461 626 561 626 m 436 1033 q 435 1015 435 1028 q 456 958 435 981 q 511 936 476 936 q 582 964 550 936 q 625 1033 614 992 l 715 1033 q 635 899 697 950 q 494 847 574 847 q 384 888 425 847 q 343 996 343 928 q 346 1033 343 1008 l 436 1033 z "},"ô":{"ha":871,"x_min":56,"x_max":815,"o":"m 472 739 q 651 697 574 739 q 772 578 729 654 q 815 404 815 501 q 760 193 815 286 q 610 48 706 100 q 397 -4 515 -4 q 217 38 294 -4 q 98 157 140 81 q 56 332 56 233 q 110 542 56 449 q 259 687 164 635 q 472 739 354 739 m 461 626 q 321 590 383 626 q 222 487 258 553 q 186 338 186 421 q 247 169 186 233 q 408 106 308 106 q 548 142 486 106 q 646 245 610 179 q 682 394 682 311 q 622 562 682 497 q 461 626 561 626 m 710 857 l 581 857 l 514 950 l 411 857 l 282 857 l 464 1042 l 599 1042 l 710 857 z "},"ố":{"ha":871,"x_min":56,"x_max":815,"o":"m 472 739 q 651 697 574 739 q 772 578 729 654 q 815 404 815 501 q 760 193 815 286 q 610 48 706 100 q 397 -4 515 -4 q 217 38 294 -4 q 98 157 140 81 q 56 332 56 233 q 110 542 56 449 q 259 687 164 635 q 472 739 354 739 m 461 626 q 321 590 383 626 q 222 487 258 553 q 186 338 186 421 q 247 169 186 233 q 408 106 308 106 q 548 142 486 106 q 646 245 610 179 q 682 394 682 311 q 622 562 682 497 q 461 626 561 626 m 732 842 l 593 842 l 511 918 l 400 842 l 257 842 l 431 975 l 606 975 l 732 842 m 610 1196 l 721 1121 l 526 1017 l 429 1047 l 610 1196 z "},"ộ":{"ha":871,"x_min":56,"x_max":815,"o":"m 472 739 q 651 697 574 739 q 772 578 729 654 q 815 404 815 501 q 760 193 815 286 q 610 48 706 100 q 397 -4 515 -4 q 217 38 294 -4 q 98 157 140 81 q 56 332 56 233 q 110 542 56 449 q 259 687 164 635 q 472 739 354 739 m 461 626 q 321 590 383 626 q 222 487 258 553 q 186 338 186 421 q 247 169 186 233 q 408 106 308 106 q 548 142 486 106 q 646 245 610 179 q 682 394 682 311 q 622 562 682 497 q 461 626 561 626 m 385 -103 q 433 -122 415 -103 q 451 -171 451 -140 q 422 -240 451 -211 q 353 -269 392 -269 q 306 -249 324 -269 q 288 -200 288 -229 q 317 -131 288 -160 q 385 -103 346 -103 m 742 857 l 613 857 l 546 950 l 443 857 l 314 857 l 496 1042 l 631 1042 l 742 857 z "},"ồ":{"ha":871,"x_min":56,"x_max":815,"o":"m 472 739 q 651 697 574 739 q 772 578 729 654 q 815 404 815 501 q 760 193 815 286 q 610 48 706 100 q 397 -4 515 -4 q 217 38 294 -4 q 98 157 140 81 q 56 332 56 233 q 110 542 56 449 q 259 687 164 635 q 472 739 354 739 m 461 626 q 321 590 383 626 q 222 487 258 553 q 186 338 186 421 q 247 169 186 233 q 408 106 308 106 q 548 142 486 106 q 646 245 610 179 q 682 394 682 311 q 622 562 682 497 q 461 626 561 626 m 733 842 l 594 842 l 513 918 l 401 842 l 258 842 l 432 975 l 607 975 l 733 842 m 440 1196 l 622 1047 l 524 1017 l 329 1121 l 440 1196 z "},"ổ":{"ha":871,"x_min":56,"x_max":815,"o":"m 472 739 q 651 697 574 739 q 772 578 729 654 q 815 404 815 501 q 760 193 815 286 q 610 48 706 100 q 397 -4 515 -4 q 217 38 294 -4 q 98 157 140 81 q 56 332 56 233 q 110 542 56 449 q 259 687 164 635 q 472 739 354 739 m 461 626 q 321 590 383 626 q 222 487 258 553 q 186 338 186 421 q 247 169 186 233 q 408 106 308 106 q 548 142 486 106 q 646 245 610 179 q 682 394 682 311 q 622 562 682 497 q 461 626 561 626 m 733 842 l 594 842 l 513 918 l 401 842 l 258 842 l 432 975 l 607 975 l 733 842 m 561 1235 q 633 1214 607 1235 q 660 1158 660 1193 q 628 1085 660 1122 q 542 1014 596 1047 l 481 1042 q 533 1086 514 1064 q 551 1126 551 1108 q 542 1145 551 1138 q 518 1153 533 1153 q 468 1139 494 1153 l 440 1199 q 561 1235 500 1235 z "},"ỗ":{"ha":871,"x_min":56,"x_max":815,"o":"m 472 739 q 651 697 574 739 q 772 578 729 654 q 815 404 815 501 q 760 193 815 286 q 610 48 706 100 q 397 -4 515 -4 q 217 38 294 -4 q 98 157 140 81 q 56 332 56 233 q 110 542 56 449 q 259 687 164 635 q 472 739 354 739 m 461 626 q 321 590 383 626 q 222 487 258 553 q 186 338 186 421 q 247 169 186 233 q 408 106 308 106 q 548 142 486 106 q 646 245 610 179 q 682 394 682 311 q 622 562 682 497 q 461 626 561 626 m 732 842 l 593 842 l 511 918 l 400 842 l 257 842 l 431 975 l 606 975 l 732 842 m 764 1176 q 717 1069 751 1110 q 625 1029 682 1029 q 572 1039 596 1029 q 515 1068 547 1049 q 478 1089 493 1082 q 449 1096 464 1096 q 389 1033 400 1096 l 313 1033 q 360 1141 325 1100 q 451 1182 394 1182 q 505 1172 482 1182 q 561 1143 528 1163 q 598 1122 583 1129 q 626 1115 613 1115 q 688 1176 676 1115 l 764 1176 z "},"ȍ":{"ha":871,"x_min":56,"x_max":815,"o":"m 472 739 q 651 697 574 739 q 772 578 729 654 q 815 404 815 501 q 760 193 815 286 q 610 48 706 100 q 397 -4 515 -4 q 217 38 294 -4 q 98 157 140 81 q 56 332 56 233 q 110 542 56 449 q 259 687 164 635 q 472 739 354 739 m 461 626 q 321 590 383 626 q 222 487 258 553 q 186 338 186 421 q 247 169 186 233 q 408 106 308 106 q 548 142 486 106 q 646 245 610 179 q 682 394 682 311 q 622 562 682 497 q 461 626 561 626 m 374 1053 l 453 863 l 351 850 l 253 1000 l 374 1053 m 589 1053 l 667 863 l 567 850 l 467 1000 l 589 1053 z "},"ö":{"ha":871,"x_min":56,"x_max":815,"o":"m 472 739 q 651 697 574 739 q 772 578 729 654 q 815 404 815 501 q 760 193 815 286 q 610 48 706 100 q 397 -4 515 -4 q 217 38 294 -4 q 98 157 140 81 q 56 332 56 233 q 110 542 56 449 q 259 687 164 635 q 472 739 354 739 m 461 626 q 321 590 383 626 q 222 487 258 553 q 186 338 186 421 q 247 169 186 233 q 408 106 308 106 q 548 142 486 106 q 646 245 610 179 q 682 394 682 311 q 622 562 682 497 q 461 626 561 626 m 410 1019 q 453 1001 436 1019 q 469 956 469 983 q 442 894 469 921 q 381 867 415 867 q 337 885 354 867 q 319 931 319 903 q 346 994 319 968 q 410 1019 372 1019 m 649 1019 q 691 1002 675 1019 q 707 956 707 985 q 681 894 707 921 q 619 867 654 867 q 576 885 593 867 q 558 931 558 903 q 585 994 558 968 q 649 1019 611 1019 z "},"ȫ":{"ha":871,"x_min":56,"x_max":815,"o":"m 472 739 q 651 697 574 739 q 772 578 729 654 q 815 404 815 501 q 760 193 815 286 q 610 48 706 100 q 397 -4 515 -4 q 217 38 294 -4 q 98 157 140 81 q 56 332 56 233 q 110 542 56 449 q 259 687 164 635 q 472 739 354 739 m 461 626 q 321 590 383 626 q 222 487 258 553 q 186 338 186 421 q 247 169 186 233 q 408 106 308 106 q 548 142 486 106 q 646 245 610 179 q 682 394 682 311 q 622 562 682 497 q 461 626 561 626 m 410 986 q 452 969 436 986 q 468 926 468 953 q 442 865 468 890 q 382 839 417 839 q 340 856 356 839 q 324 901 324 874 q 349 962 324 938 q 410 986 375 986 m 635 986 q 677 969 661 986 q 693 926 693 953 q 667 865 693 890 q 607 839 640 839 q 563 857 581 839 q 546 901 546 875 q 572 962 546 938 q 635 986 599 986 m 375 1122 l 718 1122 l 701 1038 l 360 1038 l 375 1122 z "},"ȱ":{"ha":871,"x_min":56,"x_max":815,"o":"m 472 739 q 651 697 574 739 q 772 578 729 654 q 815 404 815 501 q 760 193 815 286 q 610 48 706 100 q 397 -4 515 -4 q 217 38 294 -4 q 98 157 140 81 q 56 332 56 233 q 110 542 56 449 q 259 687 164 635 q 472 739 354 739 m 461 626 q 321 590 383 626 q 222 487 258 553 q 186 338 186 421 q 247 169 186 233 q 408 106 308 106 q 548 142 486 106 q 646 245 610 179 q 682 394 682 311 q 622 562 682 497 q 461 626 561 626 m 531 999 q 577 981 560 999 q 594 933 594 963 q 567 869 594 896 q 501 842 539 842 q 458 860 475 842 q 440 907 440 879 q 467 972 440 944 q 531 999 494 999 m 386 1122 l 729 1122 l 713 1038 l 371 1038 l 386 1122 z "},"ọ":{"ha":871,"x_min":56,"x_max":815,"o":"m 472 739 q 651 697 574 739 q 772 578 729 654 q 815 404 815 501 q 760 193 815 286 q 610 48 706 100 q 397 -4 515 -4 q 217 38 294 -4 q 98 157 140 81 q 56 332 56 233 q 110 542 56 449 q 259 687 164 635 q 472 739 354 739 m 461 626 q 321 590 383 626 q 222 487 258 553 q 186 338 186 421 q 247 169 186 233 q 408 106 308 106 q 548 142 486 106 q 646 245 610 179 q 682 394 682 311 q 622 562 682 497 q 461 626 561 626 m 385 -103 q 433 -122 415 -103 q 451 -171 451 -140 q 422 -240 451 -211 q 353 -269 392 -269 q 306 -249 324 -269 q 288 -200 288 -229 q 317 -131 288 -160 q 385 -103 346 -103 z "},"ò":{"ha":871,"x_min":56,"x_max":815,"o":"m 472 739 q 651 697 574 739 q 772 578 729 654 q 815 404 815 501 q 760 193 815 286 q 610 48 706 100 q 397 -4 515 -4 q 217 38 294 -4 q 98 157 140 81 q 56 332 56 233 q 110 542 56 449 q 259 687 164 635 q 472 739 354 739 m 461 626 q 321 590 383 626 q 222 487 258 553 q 186 338 186 421 q 247 169 186 233 q 408 106 308 106 q 548 142 486 106 q 646 245 610 179 q 682 394 682 311 q 622 562 682 497 q 461 626 561 626 m 442 1044 l 590 864 l 479 850 l 308 986 l 442 1044 z "},"ỏ":{"ha":871,"x_min":56,"x_max":815,"o":"m 472 739 q 651 697 574 739 q 772 578 729 654 q 815 404 815 501 q 760 193 815 286 q 610 48 706 100 q 397 -4 515 -4 q 217 38 294 -4 q 98 157 140 81 q 56 332 56 233 q 110 542 56 449 q 259 687 164 635 q 472 739 354 739 m 461 626 q 321 590 383 626 q 222 487 258 553 q 186 338 186 421 q 247 169 186 233 q 408 106 308 106 q 548 142 486 106 q 646 245 610 179 q 682 394 682 311 q 622 562 682 497 q 461 626 561 626 m 536 1082 q 617 1058 586 1082 q 647 990 647 1033 q 610 897 647 947 q 514 803 572 846 l 447 836 q 509 899 486 865 q 532 956 532 933 q 521 981 532 971 q 492 992 510 992 q 435 974 465 992 l 404 1043 q 536 1082 469 1082 z "},"ơ":{"ha":871,"x_min":56,"x_max":935,"o":"m 917 919 q 935 822 935 869 q 885 682 935 740 q 754 607 836 624 q 815 404 815 519 q 760 193 815 286 q 610 48 706 100 q 397 -4 515 -4 q 217 38 294 -4 q 98 157 140 81 q 56 332 56 233 q 110 542 56 449 q 259 687 164 635 q 472 739 354 739 q 658 693 578 739 q 703 686 682 686 q 786 725 754 686 q 818 817 818 764 q 803 879 818 849 l 917 919 m 408 106 q 548 142 486 106 q 646 245 610 179 q 682 394 682 311 q 622 562 682 497 q 461 626 561 626 q 321 590 383 626 q 222 487 258 553 q 186 338 186 421 q 247 169 186 233 q 408 106 308 106 z "},"ớ":{"ha":871,"x_min":56,"x_max":935,"o":"m 917 919 q 935 822 935 869 q 885 682 935 740 q 754 607 836 624 q 815 404 815 519 q 760 193 815 286 q 610 48 706 100 q 397 -4 515 -4 q 217 38 294 -4 q 98 157 140 81 q 56 332 56 233 q 110 542 56 449 q 259 687 164 635 q 472 739 354 739 q 658 693 578 739 q 703 686 682 686 q 786 725 754 686 q 818 817 818 764 q 803 879 818 849 l 917 919 m 408 106 q 548 142 486 106 q 646 245 610 179 q 682 394 682 311 q 622 562 682 497 q 461 626 561 626 q 321 590 383 626 q 222 487 258 553 q 186 338 186 421 q 247 169 186 233 q 408 106 308 106 m 574 1044 l 707 986 l 536 850 l 425 864 l 574 1044 z "},"ợ":{"ha":871,"x_min":56,"x_max":935,"o":"m 917 919 q 935 822 935 869 q 885 682 935 740 q 754 607 836 624 q 815 404 815 519 q 760 193 815 286 q 610 48 706 100 q 397 -4 515 -4 q 217 38 294 -4 q 98 157 140 81 q 56 332 56 233 q 110 542 56 449 q 259 687 164 635 q 472 739 354 739 q 658 693 578 739 q 703 686 682 686 q 786 725 754 686 q 818 817 818 764 q 803 879 818 849 l 917 919 m 408 106 q 548 142 486 106 q 646 245 610 179 q 682 394 682 311 q 622 562 682 497 q 461 626 561 626 q 321 590 383 626 q 222 487 258 553 q 186 338 186 421 q 247 169 186 233 q 408 106 308 106 m 385 -103 q 433 -122 415 -103 q 451 -171 451 -140 q 422 -240 451 -211 q 353 -269 392 -269 q 306 -249 324 -269 q 288 -200 288 -229 q 317 -131 288 -160 q 385 -103 346 -103 z "},"ờ":{"ha":871,"x_min":56,"x_max":935,"o":"m 917 919 q 935 822 935 869 q 885 682 935 740 q 754 607 836 624 q 815 404 815 519 q 760 193 815 286 q 610 48 706 100 q 397 -4 515 -4 q 217 38 294 -4 q 98 157 140 81 q 56 332 56 233 q 110 542 56 449 q 259 687 164 635 q 472 739 354 739 q 658 693 578 739 q 703 686 682 686 q 786 725 754 686 q 818 817 818 764 q 803 879 818 849 l 917 919 m 408 106 q 548 142 486 106 q 646 245 610 179 q 682 394 682 311 q 622 562 682 497 q 461 626 561 626 q 321 590 383 626 q 222 487 258 553 q 186 338 186 421 q 247 169 186 233 q 408 106 308 106 m 440 1044 l 589 864 l 478 850 l 307 986 l 440 1044 z "},"ở":{"ha":871,"x_min":56,"x_max":935,"o":"m 917 919 q 935 822 935 869 q 885 682 935 740 q 754 607 836 624 q 815 404 815 519 q 760 193 815 286 q 610 48 706 100 q 397 -4 515 -4 q 217 38 294 -4 q 98 157 140 81 q 56 332 56 233 q 110 542 56 449 q 259 687 164 635 q 472 739 354 739 q 658 693 578 739 q 703 686 682 686 q 786 725 754 686 q 818 817 818 764 q 803 879 818 849 l 917 919 m 408 106 q 548 142 486 106 q 646 245 610 179 q 682 394 682 311 q 622 562 682 497 q 461 626 561 626 q 321 590 383 626 q 222 487 258 553 q 186 338 186 421 q 247 169 186 233 q 408 106 308 106 m 535 1082 q 615 1058 585 1082 q 646 990 646 1033 q 608 897 646 947 q 513 803 571 846 l 446 836 q 508 899 485 865 q 531 956 531 933 q 519 981 531 971 q 490 992 508 992 q 433 974 464 992 l 403 1043 q 535 1082 468 1082 z "},"ỡ":{"ha":871,"x_min":56,"x_max":935,"o":"m 917 919 q 935 822 935 869 q 885 682 935 740 q 754 607 836 624 q 815 404 815 519 q 760 193 815 286 q 610 48 706 100 q 397 -4 515 -4 q 217 38 294 -4 q 98 157 140 81 q 56 332 56 233 q 110 542 56 449 q 259 687 164 635 q 472 739 354 739 q 658 693 578 739 q 703 686 682 686 q 786 725 754 686 q 818 817 818 764 q 803 879 818 849 l 917 919 m 408 106 q 548 142 486 106 q 646 245 610 179 q 682 394 682 311 q 622 562 682 497 q 461 626 561 626 q 321 590 383 626 q 222 487 258 553 q 186 338 186 421 q 247 169 186 233 q 408 106 308 106 m 740 1014 q 691 892 726 939 q 596 844 656 844 q 544 856 567 844 q 490 889 521 867 q 455 911 468 904 q 429 918 442 918 q 371 850 383 918 l 281 850 q 330 972 294 924 q 424 1019 365 1019 q 476 1008 453 1019 q 531 976 499 997 q 566 954 553 961 q 592 947 579 947 q 631 965 617 947 q 650 1014 646 983 l 740 1014 z "},"ő":{"ha":871,"x_min":56,"x_max":815,"o":"m 472 739 q 651 697 574 739 q 772 578 729 654 q 815 404 815 501 q 760 193 815 286 q 610 48 706 100 q 397 -4 515 -4 q 217 38 294 -4 q 98 157 140 81 q 56 332 56 233 q 110 542 56 449 q 259 687 164 635 q 472 739 354 739 m 461 626 q 321 590 383 626 q 222 487 258 553 q 186 338 186 421 q 247 169 186 233 q 408 106 308 106 q 548 142 486 106 q 646 245 610 179 q 682 394 682 311 q 622 562 682 497 q 461 626 561 626 m 439 1053 l 540 1000 l 408 850 l 314 863 l 439 1053 m 653 1053 l 754 1000 l 624 850 l 529 863 l 653 1053 z "},"ȏ":{"ha":871,"x_min":56,"x_max":815,"o":"m 472 739 q 651 697 574 739 q 772 578 729 654 q 815 404 815 501 q 760 193 815 286 q 610 48 706 100 q 397 -4 515 -4 q 217 38 294 -4 q 98 157 140 81 q 56 332 56 233 q 110 542 56 449 q 259 687 164 635 q 472 739 354 739 m 461 626 q 321 590 383 626 q 222 487 258 553 q 186 338 186 421 q 247 169 186 233 q 408 106 308 106 q 548 142 486 106 q 646 245 610 179 q 682 394 682 311 q 622 562 682 497 q 461 626 561 626 m 589 849 q 590 867 590 854 q 569 924 590 901 q 514 946 549 946 q 443 918 475 946 q 400 849 411 890 l 310 849 q 390 983 328 932 q 531 1035 451 1035 q 641 994 600 1035 q 682 886 682 954 q 679 849 682 874 l 589 849 z "},"ō":{"ha":871,"x_min":56,"x_max":815,"o":"m 472 739 q 651 697 574 739 q 772 578 729 654 q 815 404 815 501 q 760 193 815 286 q 610 48 706 100 q 397 -4 515 -4 q 217 38 294 -4 q 98 157 140 81 q 56 332 56 233 q 110 542 56 449 q 259 687 164 635 q 472 739 354 739 m 461 626 q 321 590 383 626 q 222 487 258 553 q 186 338 186 421 q 247 169 186 233 q 408 106 308 106 q 548 142 486 106 q 646 245 610 179 q 682 394 682 311 q 622 562 682 497 q 461 626 561 626 m 321 986 l 718 986 l 703 900 l 304 900 l 321 986 z "},"ṓ":{"ha":871,"x_min":56,"x_max":815,"o":"m 472 739 q 651 697 574 739 q 772 578 729 654 q 815 404 815 501 q 760 193 815 286 q 610 48 706 100 q 397 -4 515 -4 q 217 38 294 -4 q 98 157 140 81 q 56 332 56 233 q 110 542 56 449 q 259 687 164 635 q 472 739 354 739 m 461 626 q 321 590 383 626 q 222 487 258 553 q 186 338 186 421 q 247 169 186 233 q 408 106 308 106 q 548 142 486 106 q 646 245 610 179 q 682 394 682 311 q 622 562 682 497 q 461 626 561 626 m 336 925 l 679 925 l 663 840 l 321 840 l 336 925 m 604 1168 l 715 1093 l 521 989 l 424 1019 l 604 1168 z "},"ṑ":{"ha":871,"x_min":56,"x_max":815,"o":"m 472 739 q 651 697 574 739 q 772 578 729 654 q 815 404 815 501 q 760 193 815 286 q 610 48 706 100 q 397 -4 515 -4 q 217 38 294 -4 q 98 157 140 81 q 56 332 56 233 q 110 542 56 449 q 259 687 164 635 q 472 739 354 739 m 461 626 q 321 590 383 626 q 222 487 258 553 q 186 338 186 421 q 247 169 186 233 q 408 106 308 106 q 548 142 486 106 q 646 245 610 179 q 682 394 682 311 q 622 562 682 497 q 461 626 561 626 m 344 925 l 688 925 l 671 840 l 329 840 l 344 925 m 440 1168 l 622 1019 l 524 989 l 329 1093 l 440 1168 z "},"ǫ":{"ha":871,"x_min":56,"x_max":815,"o":"m 633 61 q 511 -56 560 7 q 463 -164 463 -119 q 472 -191 463 -181 q 499 -201 482 -201 q 554 -187 526 -201 l 571 -274 q 451 -300 511 -300 q 367 -272 397 -300 q 338 -192 338 -243 q 443 -3 338 -99 l 397 -4 q 217 38 294 -4 q 98 157 140 81 q 56 332 56 233 q 110 542 56 449 q 259 687 164 635 q 472 739 354 739 q 651 697 574 739 q 772 578 729 654 q 815 404 815 501 q 767 203 815 293 q 633 61 718 114 m 186 338 q 247 169 186 233 q 408 106 308 106 q 548 142 486 106 q 646 245 610 179 q 682 394 682 311 q 622 562 682 497 q 461 626 561 626 q 321 590 383 626 q 222 487 258 553 q 186 338 186 421 z "},"ø":{"ha":871,"x_min":31,"x_max":832,"o":"m 692 671 q 783 557 751 625 q 815 404 815 489 q 760 193 815 286 q 610 48 706 100 q 397 -4 515 -4 q 240 26 313 -4 l 126 -136 l 31 -136 l 174 67 q 86 181 117 113 q 56 332 56 249 q 110 542 56 449 q 259 687 164 635 q 472 739 354 739 q 624 710 557 739 l 738 871 l 832 871 l 692 671 m 179 338 q 195 240 179 285 q 242 164 211 196 l 558 615 q 463 635 515 635 q 319 597 383 635 q 217 490 254 558 q 179 338 179 422 m 407 97 q 551 135 486 97 q 653 242 615 174 q 690 396 690 310 q 672 495 690 450 q 622 572 654 540 l 304 118 q 407 97 350 97 z "},"ǿ":{"ha":871,"x_min":31,"x_max":832,"o":"m 692 671 q 783 557 751 625 q 815 404 815 489 q 760 193 815 286 q 610 48 706 100 q 397 -4 515 -4 q 240 26 313 -4 l 126 -136 l 31 -136 l 174 67 q 86 181 117 113 q 56 332 56 249 q 110 542 56 449 q 259 687 164 635 q 472 739 354 739 q 624 710 557 739 l 738 871 l 832 871 l 692 671 m 179 338 q 195 240 179 285 q 242 164 211 196 l 558 615 q 463 635 515 635 q 319 597 383 635 q 217 490 254 558 q 179 338 179 422 m 407 97 q 551 135 486 97 q 653 242 615 174 q 690 396 690 310 q 672 495 690 450 q 622 572 654 540 l 304 118 q 407 97 350 97 m 589 1044 l 722 986 l 551 850 l 440 864 l 589 1044 z "},"õ":{"ha":871,"x_min":56,"x_max":815,"o":"m 472 739 q 651 697 574 739 q 772 578 729 654 q 815 404 815 501 q 760 193 815 286 q 610 48 706 100 q 397 -4 515 -4 q 217 38 294 -4 q 98 157 140 81 q 56 332 56 233 q 110 542 56 449 q 259 687 164 635 q 472 739 354 739 m 461 626 q 321 590 383 626 q 222 487 258 553 q 186 338 186 421 q 247 169 186 233 q 408 106 308 106 q 548 142 486 106 q 646 245 610 179 q 682 394 682 311 q 622 562 682 497 q 461 626 561 626 m 740 1014 q 691 892 726 939 q 596 844 656 844 q 544 856 567 844 q 490 889 521 867 q 455 911 468 904 q 429 918 442 918 q 371 850 383 918 l 281 850 q 330 972 294 924 q 424 1019 365 1019 q 476 1008 453 1019 q 531 976 499 997 q 566 954 553 961 q 592 947 579 947 q 631 965 617 947 q 650 1014 646 983 l 740 1014 z "},"ṍ":{"ha":871,"x_min":56,"x_max":815,"o":"m 472 739 q 651 697 574 739 q 772 578 729 654 q 815 404 815 501 q 760 193 815 286 q 610 48 706 100 q 397 -4 515 -4 q 217 38 294 -4 q 98 157 140 81 q 56 332 56 233 q 110 542 56 449 q 259 687 164 635 q 472 739 354 739 m 461 626 q 321 590 383 626 q 222 487 258 553 q 186 338 186 421 q 247 169 186 233 q 408 106 308 106 q 548 142 486 106 q 646 245 610 179 q 682 394 682 311 q 622 562 682 497 q 461 626 561 626 m 733 985 q 686 878 721 918 q 594 838 651 838 q 541 847 565 838 q 485 876 517 857 q 448 897 463 890 q 418 904 433 904 q 358 842 369 904 l 282 842 q 329 949 294 908 q 421 990 364 990 q 474 981 451 990 q 531 951 497 971 q 567 931 553 938 q 596 924 582 924 q 657 985 646 924 l 733 985 m 615 1215 l 726 1140 l 532 1036 l 435 1067 l 615 1215 z "},"ṏ":{"ha":871,"x_min":56,"x_max":815,"o":"m 472 739 q 651 697 574 739 q 772 578 729 654 q 815 404 815 501 q 760 193 815 286 q 610 48 706 100 q 397 -4 515 -4 q 217 38 294 -4 q 98 157 140 81 q 56 332 56 233 q 110 542 56 449 q 259 687 164 635 q 472 739 354 739 m 461 626 q 321 590 383 626 q 222 487 258 553 q 186 338 186 421 q 247 169 186 233 q 408 106 308 106 q 548 142 486 106 q 646 245 610 179 q 682 394 682 311 q 622 562 682 497 q 461 626 561 626 m 732 985 q 685 878 719 918 q 593 838 650 838 q 540 847 564 838 q 483 876 515 857 q 447 897 461 890 q 417 904 432 904 q 357 842 368 904 l 281 842 q 328 949 293 908 q 419 990 363 990 q 473 981 450 990 q 529 951 496 971 q 566 931 551 938 q 594 924 581 924 q 656 985 644 924 l 732 985 m 447 1182 q 490 1165 474 1182 q 506 1122 506 1149 q 480 1060 506 1086 q 419 1035 454 1035 q 377 1052 393 1035 q 361 1097 361 1069 q 387 1158 361 1133 q 447 1182 413 1182 m 672 1182 q 715 1165 699 1182 q 731 1122 731 1149 q 704 1060 731 1086 q 644 1035 678 1035 q 601 1053 618 1035 q 583 1097 583 1071 q 610 1158 583 1133 q 672 1182 636 1182 z "},"ȭ":{"ha":871,"x_min":56,"x_max":815,"o":"m 472 739 q 651 697 574 739 q 772 578 729 654 q 815 404 815 501 q 760 193 815 286 q 610 48 706 100 q 397 -4 515 -4 q 217 38 294 -4 q 98 157 140 81 q 56 332 56 233 q 110 542 56 449 q 259 687 164 635 q 472 739 354 739 m 461 626 q 321 590 383 626 q 222 487 258 553 q 186 338 186 421 q 247 169 186 233 q 408 106 308 106 q 548 142 486 106 q 646 245 610 179 q 682 394 682 311 q 622 562 682 497 q 461 626 561 626 m 733 985 q 686 878 721 918 q 594 838 651 838 q 541 847 565 838 q 485 876 517 857 q 448 897 463 890 q 418 904 433 904 q 358 842 369 904 l 282 842 q 329 949 294 908 q 421 990 364 990 q 474 981 451 990 q 531 951 497 971 q 567 931 553 938 q 596 924 582 924 q 657 985 646 924 l 733 985 m 379 1124 l 722 1124 l 706 1039 l 364 1039 l 379 1124 z "},"œ":{"ha":1461,"x_min":56,"x_max":1410,"o":"m 803 340 q 866 167 803 232 q 1033 101 929 101 q 1156 124 1097 101 q 1263 192 1215 147 l 1326 118 q 1186 28 1267 60 q 1014 -4 1106 -4 q 835 43 910 -4 q 726 174 761 90 q 590 43 675 90 q 399 -4 506 -4 q 218 38 296 -4 q 98 155 140 79 q 56 329 56 231 q 110 540 56 447 q 258 686 164 633 q 471 739 353 739 q 651 692 576 739 q 761 560 726 644 q 895 692 811 644 q 1083 739 979 739 q 1257 697 1183 739 q 1370 581 1331 656 q 1410 406 1410 506 q 1406 340 1410 374 l 803 340 m 1076 642 q 904 578 978 642 q 810 413 831 514 l 1282 413 q 1231 578 1288 515 q 1076 642 1175 642 m 683 399 q 622 563 683 500 q 461 626 561 626 q 322 589 383 626 q 224 485 260 551 q 188 333 188 418 q 248 169 188 232 q 408 106 308 106 q 548 143 485 106 q 647 247 611 181 q 683 399 683 314 z "},"p":{"ha":949,"x_min":6,"x_max":894,"o":"m 585 740 q 747 699 676 740 q 856 583 817 658 q 894 411 894 508 q 842 200 894 296 q 699 49 790 104 q 496 -7 607 -7 q 323 40 393 -7 q 225 174 253 88 l 135 -269 l 6 -269 l 206 735 l 335 735 l 310 614 q 432 707 361 674 q 585 740 503 740 m 542 633 q 401 594 465 633 q 300 486 338 554 q 263 336 263 418 q 323 171 263 233 q 481 108 383 108 q 623 149 558 108 q 726 257 688 189 q 764 406 764 325 q 702 570 764 507 q 542 633 640 633 z "},"þ":{"ha":949,"x_min":6,"x_max":894,"o":"m 585 740 q 747 699 676 740 q 856 583 817 658 q 894 411 894 508 q 842 200 894 296 q 699 49 790 104 q 496 -7 607 -7 q 323 40 393 -7 q 225 174 253 88 l 135 -269 l 6 -269 l 265 1031 l 394 1031 l 310 614 q 432 707 361 674 q 585 740 503 740 m 542 633 q 401 594 465 633 q 300 486 338 554 q 263 336 263 418 q 323 171 263 233 q 481 108 383 108 q 623 149 558 108 q 726 257 688 189 q 764 406 764 325 q 702 570 764 507 q 542 633 640 633 z "},"q":{"ha":949,"x_min":54,"x_max":889,"o":"m 364 -7 q 202 35 272 -7 q 93 151 132 76 q 54 322 54 225 q 106 535 54 439 q 250 685 158 631 q 453 740 342 740 q 626 693 556 740 q 724 560 696 646 l 760 735 l 889 735 l 689 -269 l 560 -269 l 639 119 q 517 26 588 60 q 364 -7 446 -7 m 407 101 q 547 141 483 101 q 649 249 611 181 q 686 399 686 317 q 626 564 686 501 q 468 626 565 626 q 326 586 390 626 q 223 478 261 546 q 185 329 185 410 q 247 165 185 228 q 407 101 308 101 z "},"r":{"ha":533,"x_min":53,"x_max":586,"o":"m 299 583 q 586 739 400 736 l 569 614 q 374 553 458 618 q 258 379 290 488 l 183 0 l 53 0 l 199 735 l 329 735 l 299 583 z "},"ŕ":{"ha":533,"x_min":53,"x_max":586,"o":"m 299 583 q 586 739 400 736 l 569 614 q 374 553 458 618 q 258 379 290 488 l 183 0 l 53 0 l 199 735 l 329 735 l 299 583 m 446 1044 l 579 986 l 408 850 l 297 864 l 446 1044 z "},"ř":{"ha":533,"x_min":53,"x_max":618,"o":"m 299 583 q 586 739 400 736 l 569 614 q 374 553 458 618 q 258 379 290 488 l 183 0 l 53 0 l 199 735 l 329 735 l 299 583 m 489 1040 l 618 1040 l 436 856 l 301 856 l 190 1040 l 319 1040 l 386 947 l 489 1040 z "},"ŗ":{"ha":533,"x_min":-46,"x_max":586,"o":"m 299 583 q 586 739 400 736 l 569 614 q 374 553 458 618 q 258 379 290 488 l 183 0 l 53 0 l 199 735 l 329 735 l 299 583 m 40 -82 l 163 -82 l 49 -303 l -46 -303 l 40 -82 z "},"ȑ":{"ha":533,"x_min":53,"x_max":586,"o":"m 299 583 q 586 739 400 736 l 569 614 q 374 553 458 618 q 258 379 290 488 l 183 0 l 53 0 l 199 735 l 329 735 l 299 583 m 246 1053 l 325 863 l 224 850 l 125 1000 l 246 1053 m 461 1053 l 539 863 l 439 850 l 339 1000 l 461 1053 z "},"ṛ":{"ha":533,"x_min":-1,"x_max":586,"o":"m 299 583 q 586 739 400 736 l 569 614 q 374 553 458 618 q 258 379 290 488 l 183 0 l 53 0 l 199 735 l 329 735 l 299 583 m 96 -103 q 144 -122 126 -103 q 163 -171 163 -140 q 133 -240 163 -211 q 64 -269 103 -269 q 17 -249 35 -269 q -1 -200 -1 -229 q 28 -131 -1 -160 q 96 -103 57 -103 z "},"ȓ":{"ha":533,"x_min":53,"x_max":586,"o":"m 299 583 q 586 739 400 736 l 569 614 q 374 553 458 618 q 258 379 290 488 l 183 0 l 53 0 l 199 735 l 329 735 l 299 583 m 461 849 q 463 867 463 854 q 442 924 463 901 q 386 946 421 946 q 315 918 347 946 q 272 849 283 890 l 182 849 q 262 983 200 932 q 403 1035 324 1035 q 513 994 472 1035 q 554 886 554 954 q 551 849 554 874 l 461 849 z "},"ṟ":{"ha":533,"x_min":-94,"x_max":586,"o":"m 299 583 q 586 739 400 736 l 569 614 q 374 553 458 618 q 258 379 290 488 l 183 0 l 53 0 l 199 735 l 329 735 l 299 583 m -78 -115 l 265 -115 l 249 -200 l -94 -200 l -78 -115 z "},"s":{"ha":657,"x_min":-15,"x_max":644,"o":"m 304 -8 q 121 30 210 -8 q -15 129 32 68 l 44 217 q 160 132 88 165 q 301 99 232 99 q 404 127 364 99 q 444 203 444 156 q 410 271 444 246 q 303 324 375 296 q 199 372 238 350 q 132 433 160 394 q 104 528 104 471 q 176 683 104 624 q 365 742 249 742 q 519 715 444 742 q 644 643 594 688 l 581 553 q 474 612 533 589 q 363 635 414 635 q 269 608 306 635 q 232 539 232 582 q 267 476 232 500 q 371 425 301 453 q 476 376 435 399 q 547 313 518 353 q 576 215 576 274 q 542 99 576 150 q 445 20 507 49 q 304 -8 383 -8 z "},"ś":{"ha":657,"x_min":-15,"x_max":644,"o":"m 304 -8 q 121 30 210 -8 q -15 129 32 68 l 44 217 q 160 132 88 165 q 301 99 232 99 q 404 127 364 99 q 444 203 444 156 q 410 271 444 246 q 303 324 375 296 q 199 372 238 350 q 132 433 160 394 q 104 528 104 471 q 176 683 104 624 q 365 742 249 742 q 519 715 444 742 q 644 643 594 688 l 581 553 q 474 612 533 589 q 363 635 414 635 q 269 608 306 635 q 232 539 232 582 q 267 476 232 500 q 371 425 301 453 q 476 376 435 399 q 547 313 518 353 q 576 215 576 274 q 542 99 576 150 q 445 20 507 49 q 304 -8 383 -8 m 501 1044 l 635 986 l 464 850 l 353 864 l 501 1044 z "},"ṥ":{"ha":657,"x_min":-15,"x_max":644,"o":"m 304 -8 q 121 30 210 -8 q -15 129 32 68 l 44 217 q 160 132 88 165 q 301 99 232 99 q 404 127 364 99 q 444 203 444 156 q 410 271 444 246 q 303 324 375 296 q 199 372 238 350 q 132 433 160 394 q 104 528 104 471 q 176 683 104 624 q 365 742 249 742 q 519 715 444 742 q 644 643 594 688 l 581 553 q 474 612 533 589 q 363 635 414 635 q 269 608 306 635 q 232 539 232 582 q 267 476 232 500 q 371 425 301 453 q 476 376 435 399 q 547 313 518 353 q 576 215 576 274 q 542 99 576 150 q 445 20 507 49 q 304 -8 383 -8 m 461 1018 l 572 943 l 378 839 l 281 869 l 461 1018 m 478 1201 q 524 1183 507 1201 q 542 1136 542 1165 q 514 1072 542 1099 q 449 1044 486 1044 q 405 1063 422 1044 q 388 1110 388 1082 q 415 1174 388 1147 q 478 1201 442 1201 z "},"ꞌ":{"ha":347,"x_min":106,"x_max":332,"o":"m 203 915 l 332 915 l 219 418 l 106 418 l 203 915 z "},"š":{"ha":657,"x_min":-15,"x_max":674,"o":"m 304 -8 q 121 30 210 -8 q -15 129 32 68 l 44 217 q 160 132 88 165 q 301 99 232 99 q 404 127 364 99 q 444 203 444 156 q 410 271 444 246 q 303 324 375 296 q 199 372 238 350 q 132 433 160 394 q 104 528 104 471 q 176 683 104 624 q 365 742 249 742 q 519 715 444 742 q 644 643 594 688 l 581 553 q 474 612 533 589 q 363 635 414 635 q 269 608 306 635 q 232 539 232 582 q 267 476 232 500 q 371 425 301 453 q 476 376 435 399 q 547 313 518 353 q 576 215 576 274 q 542 99 576 150 q 445 20 507 49 q 304 -8 383 -8 m 544 1040 l 674 1040 l 492 856 l 357 856 l 246 1040 l 375 1040 l 442 947 l 544 1040 z "},"ṧ":{"ha":657,"x_min":-15,"x_max":683,"o":"m 304 -8 q 121 30 210 -8 q -15 129 32 68 l 44 217 q 160 132 88 165 q 301 99 232 99 q 404 127 364 99 q 444 203 444 156 q 410 271 444 246 q 303 324 375 296 q 199 372 238 350 q 132 433 160 394 q 104 528 104 471 q 176 683 104 624 q 365 742 249 742 q 519 715 444 742 q 644 643 594 688 l 581 553 q 474 612 533 589 q 363 635 414 635 q 269 608 306 635 q 232 539 232 582 q 267 476 232 500 q 371 425 301 453 q 476 376 435 399 q 547 313 518 353 q 576 215 576 274 q 542 99 576 150 q 445 20 507 49 q 304 -8 383 -8 m 540 975 l 683 975 l 510 842 l 335 842 l 208 975 l 347 975 l 429 899 l 540 975 m 479 1160 q 526 1142 508 1160 q 543 1094 543 1124 q 515 1030 543 1057 q 450 1003 488 1003 q 406 1022 424 1003 q 389 1068 389 1040 q 416 1133 389 1106 q 479 1160 443 1160 z "},"ş":{"ha":657,"x_min":-15,"x_max":644,"o":"m 363 635 q 269 608 306 635 q 232 539 232 582 q 267 476 232 500 q 371 425 301 453 q 476 376 435 399 q 547 313 518 353 q 576 215 576 274 q 502 56 576 117 q 311 -8 428 -6 l 275 -71 q 345 -103 322 -78 q 368 -162 368 -128 q 316 -264 368 -226 q 188 -301 264 -301 q 63 -272 118 -301 l 108 -186 q 186 -206 144 -206 q 239 -191 218 -206 q 260 -158 260 -176 q 243 -133 260 -143 q 196 -122 226 -122 l 154 -122 l 215 0 q 82 49 144 15 q -15 129 19 83 l 44 217 q 160 132 88 165 q 301 99 232 99 q 404 127 364 99 q 444 203 444 156 q 410 271 444 246 q 303 324 375 296 q 199 372 238 350 q 132 433 160 394 q 104 528 104 471 q 176 683 104 624 q 365 742 249 742 q 519 715 444 742 q 644 643 594 688 l 581 553 q 474 612 533 589 q 363 635 414 635 z "},"ŝ":{"ha":657,"x_min":-15,"x_max":644,"o":"m 304 -8 q 121 30 210 -8 q -15 129 32 68 l 44 217 q 160 132 88 165 q 301 99 232 99 q 404 127 364 99 q 444 203 444 156 q 410 271 444 246 q 303 324 375 296 q 199 372 238 350 q 132 433 160 394 q 104 528 104 471 q 176 683 104 624 q 365 742 249 742 q 519 715 444 742 q 644 643 594 688 l 581 553 q 474 612 533 589 q 363 635 414 635 q 269 608 306 635 q 232 539 232 582 q 267 476 232 500 q 371 425 301 453 q 476 376 435 399 q 547 313 518 353 q 576 215 576 274 q 542 99 576 150 q 445 20 507 49 q 304 -8 383 -8 m 638 857 l 508 857 l 442 950 l 339 857 l 210 857 l 392 1042 l 526 1042 l 638 857 z "},"ș":{"ha":657,"x_min":-15,"x_max":644,"o":"m 304 -8 q 121 30 210 -8 q -15 129 32 68 l 44 217 q 160 132 88 165 q 301 99 232 99 q 404 127 364 99 q 444 203 444 156 q 410 271 444 246 q 303 324 375 296 q 199 372 238 350 q 132 433 160 394 q 104 528 104 471 q 176 683 104 624 q 365 742 249 742 q 519 715 444 742 q 644 643 594 688 l 581 553 q 474 612 533 589 q 363 635 414 635 q 269 608 306 635 q 232 539 232 582 q 267 476 232 500 q 371 425 301 453 q 476 376 435 399 q 547 313 518 353 q 576 215 576 274 q 542 99 576 150 q 445 20 507 49 q 304 -8 383 -8 m 188 -82 l 310 -82 l 196 -303 l 101 -303 l 188 -82 z "},"ṡ":{"ha":657,"x_min":-15,"x_max":644,"o":"m 304 -8 q 121 30 210 -8 q -15 129 32 68 l 44 217 q 160 132 88 165 q 301 99 232 99 q 404 127 364 99 q 444 203 444 156 q 410 271 444 246 q 303 324 375 296 q 199 372 238 350 q 132 433 160 394 q 104 528 104 471 q 176 683 104 624 q 365 742 249 742 q 519 715 444 742 q 644 643 594 688 l 581 553 q 474 612 533 589 q 363 635 414 635 q 269 608 306 635 q 232 539 232 582 q 267 476 232 500 q 371 425 301 453 q 476 376 435 399 q 547 313 518 353 q 576 215 576 274 q 542 99 576 150 q 445 20 507 49 q 304 -8 383 -8 m 457 1028 q 506 1009 488 1028 q 524 960 524 990 q 494 890 524 919 q 425 861 464 861 q 378 881 396 861 q 360 931 360 901 q 389 999 360 971 q 457 1028 418 1028 z "},"ṣ":{"ha":657,"x_min":-15,"x_max":644,"o":"m 304 -8 q 121 30 210 -8 q -15 129 32 68 l 44 217 q 160 132 88 165 q 301 99 232 99 q 404 127 364 99 q 444 203 444 156 q 410 271 444 246 q 303 324 375 296 q 199 372 238 350 q 132 433 160 394 q 104 528 104 471 q 176 683 104 624 q 365 742 249 742 q 519 715 444 742 q 644 643 594 688 l 581 553 q 474 612 533 589 q 363 635 414 635 q 269 608 306 635 q 232 539 232 582 q 267 476 232 500 q 371 425 301 453 q 476 376 435 399 q 547 313 518 353 q 576 215 576 274 q 542 99 576 150 q 445 20 507 49 q 304 -8 383 -8 m 243 -103 q 292 -122 274 -103 q 310 -171 310 -140 q 280 -240 310 -211 q 211 -269 250 -269 q 164 -249 182 -269 q 146 -200 146 -229 q 175 -131 146 -160 q 243 -103 204 -103 z "},"ṩ":{"ha":657,"x_min":-15,"x_max":644,"o":"m 304 -8 q 121 30 210 -8 q -15 129 32 68 l 44 217 q 160 132 88 165 q 301 99 232 99 q 404 127 364 99 q 444 203 444 156 q 410 271 444 246 q 303 324 375 296 q 199 372 238 350 q 132 433 160 394 q 104 528 104 471 q 176 683 104 624 q 365 742 249 742 q 519 715 444 742 q 644 643 594 688 l 581 553 q 474 612 533 589 q 363 635 414 635 q 269 608 306 635 q 232 539 232 582 q 267 476 232 500 q 371 425 301 453 q 476 376 435 399 q 547 313 518 353 q 576 215 576 274 q 542 99 576 150 q 445 20 507 49 q 304 -8 383 -8 m 243 -103 q 292 -122 274 -103 q 310 -171 310 -140 q 280 -240 310 -211 q 211 -269 250 -269 q 164 -249 182 -269 q 146 -200 146 -229 q 175 -131 146 -160 q 243 -103 204 -103 m 418 1028 q 467 1009 449 1028 q 485 960 485 990 q 455 890 485 919 q 386 861 425 861 q 339 881 357 861 q 321 931 321 901 q 350 999 321 971 q 418 1028 379 1028 z "},"ß":{"ha":907,"x_min":46,"x_max":861,"o":"m 585 1036 q 728 1008 665 1036 q 826 928 792 979 q 861 813 861 878 q 799 638 861 717 q 636 528 738 560 q 769 460 721 513 q 818 331 818 407 q 765 160 818 236 q 616 42 711 85 q 400 0 521 0 l 328 0 l 347 101 l 428 101 q 561 130 501 101 q 656 208 621 158 q 690 318 690 257 q 633 425 690 386 q 474 464 576 464 l 457 464 l 476 565 q 608 594 550 565 q 699 676 667 624 q 731 794 731 728 q 689 894 731 857 q 575 931 647 931 q 406 865 478 931 q 313 688 335 799 l 175 0 l 46 0 l 181 679 q 321 942 214 847 q 585 1036 428 1036 z "},"t":{"ha":554,"x_min":99,"x_max":576,"o":"m 253 221 q 247 175 247 197 q 263 128 247 142 q 313 114 279 114 q 438 151 367 114 l 461 47 q 282 -6 369 -6 q 162 34 207 -6 q 117 150 117 74 q 122 210 117 182 l 203 611 l 99 611 l 117 710 l 222 710 l 261 907 l 390 907 l 351 710 l 576 710 l 558 611 l 331 611 l 253 221 z "},"ŧ":{"ha":551,"x_min":49,"x_max":576,"o":"m 331 611 l 300 458 l 526 458 l 508 358 l 281 358 l 254 228 q 249 182 249 194 q 266 130 249 146 q 319 114 283 114 q 442 149 372 114 l 458 49 q 275 -6 361 -6 q 158 32 201 -6 q 114 144 114 69 q 121 204 114 167 l 151 358 l 49 358 l 67 458 l 172 458 l 201 611 l 99 611 l 117 710 l 222 710 l 261 907 l 390 907 l 351 710 l 576 710 l 558 611 l 331 611 z "},"ť":{"ha":554,"x_min":99,"x_max":644,"o":"m 253 221 q 247 175 247 197 q 263 128 247 142 q 313 114 279 114 q 438 151 367 114 l 461 47 q 282 -6 369 -6 q 162 34 207 -6 q 117 150 117 74 q 122 210 117 182 l 203 611 l 99 611 l 117 710 l 222 710 l 261 907 l 390 907 l 351 710 l 576 710 l 558 611 l 331 611 l 253 221 m 522 1031 l 644 1031 l 567 801 l 478 801 l 522 1031 z "},"ţ":{"ha":554,"x_min":61,"x_max":576,"o":"m 253 221 q 247 175 247 197 q 263 128 247 142 q 313 114 279 114 q 438 151 367 114 l 461 47 q 311 -4 386 4 l 274 -71 q 344 -103 321 -78 q 367 -162 367 -128 q 315 -264 367 -226 q 186 -301 263 -301 q 61 -272 117 -301 l 107 -186 q 185 -206 143 -206 q 238 -191 217 -206 q 258 -158 258 -176 q 242 -133 258 -143 q 194 -122 225 -122 l 153 -122 l 215 4 q 142 56 169 18 q 115 150 115 93 q 122 210 115 175 l 203 611 l 99 611 l 117 710 l 222 710 l 261 907 l 390 907 l 351 710 l 576 710 l 558 611 l 331 611 l 253 221 z "}}}
